<svg width="768" height="960" viewBox="0 0 768 960" fill="none" xmlns="http://www.w3.org/2000/svg">
<g clip-path="url(#clip0_40_41569)">
<rect width="768" height="960" fill="#008780"/>
<mask id="mask0_40_41569" style="mask-type:luminance" maskUnits="userSpaceOnUse" x="-618" y="-136" width="1175" height="1043">
<path d="M83.7319 -105.381L-596.246 685.134C-637.646 733.244 -614.517 808.106 -553.281 824.514L-247.895 906.342L556.691 -29.119L171.28 -132.39C139.361 -140.942 105.245 -130.431 83.7319 -105.381Z" fill="white"/>
</mask>
<g mask="url(#mask0_40_41569)">
<path d="M362.758 123.941L416.918 60.8107L471.048 -2.20645L505.925 -42.7223L498.567 -44.6937L470.357 -11.8541L416.197 51.2762L362.068 114.293L303.501 182.551L253.778 240.441L199.649 303.458L145.519 366.475L91.3899 429.493L37.2301 492.623L-16.8995 555.64L-71.029 618.657L-129.709 686.885L-179.432 744.775L-237.998 813.033L-287.691 870.809L-305.001 891.041L-297.757 892.982L-287 880.457L-228.32 812.229L-178.598 754.339L-120.061 686.195L-70.3385 628.305L-16.209 565.288L37.9509 502.157L92.0804 439.14L146.21 376.123L200.37 312.993L254.499 249.975L313.066 181.717L362.789 123.828L362.758 123.941Z" fill="white"/>
<path d="M-324.999 838.733L-275.277 780.843L-216.74 712.698L-167.017 654.809L-108.451 586.551L-54.3212 523.533L-4.59855 465.644L53.9682 397.386L103.691 339.496L162.258 271.238L211.95 213.462L266.11 150.332L324.646 82.1867L374.369 24.2972L433.049 -43.9305L445.778 -58.8385L438.534 -60.7795L423.401 -43.2401L373.678 14.6495L315.112 82.9075L265.389 140.797L211.259 203.814L152.693 272.072L102.97 329.962L44.4337 398.107L-5.289 455.996L-63.9689 524.224L-118.098 587.241L-167.708 645.161L-226.388 713.389L-276.11 771.278L-334.647 839.423L-365.147 874.924L-357.79 876.896L-324.999 838.733Z" fill="white"/>
<path d="M-612.551 793.226L-553.984 724.968L-504.262 667.078L-445.725 598.933L-396.003 541.044L-341.873 478.026L-287.713 414.896L-233.584 351.879L-179.341 288.892L-125.181 225.762L-71.0515 162.744L-12.4848 94.4865L37.2378 36.5969L37.2075 36.7101L91.3674 -26.4202L145.497 -89.4374L180.261 -129.984L173.016 -131.925L144.806 -99.0851L90.6466 -35.9547L36.5171 27.0625L-22.1628 95.2901L-71.8855 153.18L-126.015 216.197L-180.145 279.214L-234.274 342.231L-288.434 405.362L-342.563 468.379L-396.693 531.396L-455.26 599.654L-504.982 657.544L-563.549 725.802L-613.241 783.578L-630.551 803.81L-623.307 805.751L-612.551 793.226Z" fill="white"/>
<path d="M-650.817 751.43L-601.095 693.54L-542.558 625.395L-492.836 567.506L-434.156 499.278L-380.026 436.261L-330.417 378.341L-271.737 310.113L-222.014 252.224L-163.448 183.966L-113.755 126.189L-59.5954 63.059L-1.05901 -5.08577L48.6637 -62.9753L107.23 -131.233L120.073 -146.111L112.716 -148.082L97.6959 -130.513L47.9733 -72.623L-10.7067 -4.39532L-60.3162 53.5246L-114.446 116.542L-173.126 184.769L-222.848 242.659L-281.385 310.804L-331.107 368.693L-389.674 436.951L-443.804 499.969L-493.526 557.858L-552.093 626.116L-601.816 684.006L-660.352 752.15L-690.852 787.652L-683.608 789.593L-650.817 751.43Z" fill="white"/>
<path d="M-297.446 871.35L-293.039 866.222L-314.447 847.869L-301.022 832.177L-295.503 836.931L-304.49 847.383L-288.602 860.981L-266.19 834.838L-287.484 816.515L-273.886 800.627L-268.366 805.381L-277.354 815.833L-261.609 829.514L-243.43 808.302L-243.316 808.332L-238.91 803.205L-260.287 784.739L-246.862 769.046L-241.343 773.801L-250.361 784.365L-234.472 797.964L-212.03 771.707L-233.324 753.385L-219.756 737.61L-214.237 742.364L-223.224 752.815L-207.449 766.384L-189.27 745.172L-189.187 745.315L-184.75 740.074L-206.158 721.721L-192.62 706.06L-187.213 710.784L-196.201 721.235L-180.343 734.947L-157.9 708.69L-179.195 690.367L-165.596 674.479L-160.077 679.234L-169.095 689.798L-153.32 703.367L-135.14 682.155L-135.027 682.185L-130.62 677.057L-152.028 658.704L-138.49 643.042L-133.084 647.767L-142.071 658.218L-126.183 671.817L-103.771 645.673L-125.065 627.35L-111.467 611.462L-105.947 616.217L-114.935 626.668L-99.19 640.349L-81.0107 619.137L-80.8975 619.168L-76.4907 614.04L-97.8986 595.687L-84.3303 579.912L-78.8106 584.666L-87.9417 595.201L-72.0535 608.799L-49.6412 582.656L-70.9359 564.333L-57.3373 548.445L-51.8176 553.199L-60.8052 563.651L-45.0301 577.219L-26.768 556.151L-22.3308 550.91L-43.7387 532.557L-30.2008 516.895L-24.6811 521.649L-33.8122 532.184L-17.924 545.782L4.5187 519.525L-16.7761 501.203L-3.2078 485.428L2.34228 490.069L-6.67562 500.633L9.09941 514.202L27.3919 493.02L31.7987 487.893L10.3908 469.539L23.9287 453.878L29.4484 458.632L20.3477 469.053L36.2359 482.652L58.6482 456.508L37.3534 438.185L50.952 422.297L56.4718 427.052L47.4539 437.616L63.3421 451.215L81.5214 430.003L85.9283 424.875L64.5203 406.522L78.0583 390.86L83.6083 395.502L74.4773 406.036L90.3654 419.635L112.891 393.521L91.483 375.168L105.082 359.28L110.601 364.035L101.614 374.486L117.502 388.085L135.651 366.986L140.058 361.858L118.68 343.392L132.218 327.73L137.738 332.485L128.72 343.049L144.495 356.617L167.051 330.391L145.643 312.038L159.211 296.263L164.761 300.904L155.743 311.469L171.631 325.067L189.811 303.855L189.78 303.969L194.218 298.728L172.81 280.375L186.348 264.713L191.867 269.467L182.88 279.919L198.625 293.6L221.18 267.374L199.772 249.021L213.371 233.133L218.891 237.887L209.873 248.452L225.761 262.05L243.94 240.838L248.347 235.711L227.052 217.388L240.477 201.696L245.997 206.45L237.009 216.902L252.784 230.47L275.31 204.357L253.902 186.004L267.614 170.146L273.02 174.87L264.033 185.321L279.891 199.033L298.07 177.821L302.477 172.693L281.182 154.371L294.637 138.565L300.157 143.32L291.139 153.884L306.914 167.453L329.439 141.339L308.031 122.986L321.743 107.128L327.15 111.853L318.162 122.304L334.05 135.903L352.199 114.804L356.637 109.563L335.342 91.2403L348.767 75.5481L354.286 80.3027L345.268 90.8672L361.043 104.435L383.599 78.2091L362.191 59.856L375.903 43.9981L381.31 48.7223L372.292 59.2868L388.18 72.8854L406.359 51.6735L410.766 46.5459L389.471 28.2231L402.896 12.5309L408.416 17.2855L399.428 27.7368L415.203 41.3051L437.729 15.1919L416.321 -3.1612L430.033 -19.0191L435.552 -14.2645L426.421 -3.73034L442.309 9.86825L460.489 -11.3436L465.009 -16.4409L443.601 -34.7941L457.026 -50.4862L462.576 -45.8449L453.558 -35.2804L469.333 -21.7121L490.846 -46.7621L479.074 -49.9164L482.211 -47.1348L468.612 -31.2466L463.092 -36.0012L472.223 -46.5353L463.34 -54.1321L453.493 -56.7707L433.953 -34.1036L455.361 -15.7505L441.619 0.220567L436.099 -4.53399L445.087 -14.9853L429.199 -28.5839L406.786 -2.44043L428.081 15.8824L414.483 31.7706L408.963 27.016L418.094 16.4819L402.206 2.88327L379.824 28.9135L401.232 47.2667L387.489 63.2378L381.939 58.5964L390.957 48.0319L375.069 34.4333L352.657 60.5767L373.952 78.8996L360.353 94.7878L354.833 90.0332L363.821 79.5819L348.046 66.0136L325.694 91.9307L347.102 110.284L333.33 126.368L327.81 121.614L336.828 111.049L320.94 97.4505L298.497 123.707L319.792 142.03L306.223 157.805L300.673 153.164L309.691 142.599L293.916 129.031L271.534 155.061L292.942 173.414L279.2 189.385L273.68 184.631L282.668 174.179L266.78 160.581L244.367 186.724L265.662 205.047L252.064 220.935L246.544 216.181L255.562 205.616L239.787 192.048L217.405 218.078L238.813 236.431L225.071 252.403L219.521 247.761L228.538 237.197L212.65 223.598L190.238 249.742L211.533 268.064L197.934 283.953L192.414 279.198L201.402 268.747L185.627 255.178L163.275 281.095L184.57 299.418L170.798 315.503L165.391 310.778L174.409 300.214L158.521 286.615L136.078 312.872L157.373 331.195L143.805 346.97L138.254 342.328L147.272 331.764L131.497 318.196L109.115 344.226L130.41 362.549L116.668 378.52L111.261 373.795L120.249 363.344L104.391 349.632L81.9485 375.889L103.243 394.212L89.6447 410.1L84.1249 405.346L93.1428 394.781L77.3678 381.213L54.9858 407.243L76.2806 425.566L62.5385 441.537L57.0187 436.782L66.1195 426.361L50.2312 412.763L27.819 438.906L49.1137 457.229L35.5151 473.117L29.9954 468.363L38.9829 457.911L23.2383 444.23L0.856293 470.26L22.1511 488.583L8.37862 504.667L2.85885 499.913L11.9899 489.379L-3.89826 475.78L-26.4541 502.006L-5.01581 520.246L-18.6144 536.134L-24.1341 531.38L-15.1466 520.929L-31.0348 507.33L-53.2732 533.277L-31.9785 551.6L-45.7509 567.684L-51.2707 562.93L-42.1396 552.396L-58.0278 538.797L-80.5836 565.023L-59.1757 583.377L-72.7743 599.265L-78.294 594.51L-69.2761 583.946L-85.1643 570.347L-107.433 596.408L-86.1383 614.731L-99.8804 630.702L-105.4 625.947L-96.4126 615.496L-112.188 601.928L-134.713 628.041L-113.305 646.394L-126.904 662.282L-132.424 657.527L-123.406 646.963L-139.294 633.364L-161.563 659.425L-140.268 677.748L-154.01 693.719L-159.56 689.077L-150.542 678.513L-166.317 664.945L-188.843 691.058L-167.435 709.411L-181.033 725.299L-186.553 720.545L-177.566 710.093L-193.454 696.495L-215.692 722.442L-194.397 740.765L-208.17 756.849L-213.69 752.095L-204.672 741.53L-220.447 727.962L-243.003 754.188L-221.595 772.541L-235.276 788.286L-240.713 783.675L-231.695 773.11L-247.583 759.512L-269.852 785.573L-248.557 803.895L-262.299 819.866L-267.819 815.112L-258.832 804.66L-274.607 791.092L-297.132 817.205L-275.724 835.559L-289.436 851.416L-294.842 846.692L-285.825 836.128L-301.713 822.529L-324.095 848.559L-302.687 866.912L-316.429 882.884L-321.949 878.129L-312.961 867.678L-328.736 854.109L-350.188 878.933L-338.756 881.996L-341.614 879.532L-328.015 863.644L-322.496 868.398L-331.513 878.963L-323.023 886.212L-312.722 888.972L-297.559 871.319L-297.446 871.35Z" fill="white"/>
<path d="M-623.264 784.047L-618.857 778.919L-640.152 760.596L-626.727 744.904L-621.208 749.659L-630.195 760.11L-614.42 773.678L-591.895 747.565L-613.303 729.212L-599.591 713.354L-594.184 718.079L-603.172 728.53L-587.314 742.242L-569.135 721.03L-564.728 715.902L-585.992 697.466L-572.568 681.774L-567.048 686.528L-576.066 697.093L-560.291 710.661L-537.735 684.435L-559.143 666.082L-545.461 650.337L-540.055 655.061L-549.042 665.513L-533.154 679.111L-514.975 657.899L-515.005 658.013L-510.568 652.772L-531.863 634.449L-518.438 618.757L-512.918 623.511L-521.906 633.963L-506.161 647.644L-483.605 621.418L-505.013 603.065L-491.301 587.207L-485.895 591.931L-494.913 602.496L-479.025 616.094L-460.845 594.882L-456.438 589.754L-477.733 571.432L-464.308 555.74L-458.789 560.494L-467.776 570.945L-452.001 584.514L-429.476 558.401L-450.884 540.047L-437.172 524.19L-431.652 528.944L-440.753 539.365L-424.895 553.077L-406.716 531.865L-402.196 526.768L-423.604 508.415L-410.149 492.609L-404.629 497.364L-413.647 507.928L-397.872 521.497L-375.346 495.383L-396.641 477.061L-383.042 461.172L-377.523 465.927L-386.623 476.348L-370.735 489.947L-352.586 468.848L-348.036 463.637L-369.444 445.284L-356.019 429.592L-350.499 434.347L-359.517 444.911L-343.629 458.51L-321.186 432.253L-342.481 413.93L-328.913 398.155L-323.363 402.797L-332.494 413.331L-316.606 426.929L-298.426 405.717L-298.313 405.748L-293.906 400.62L-315.314 382.267L-301.89 366.575L-296.37 371.329L-305.357 381.781L-289.469 395.379L-267.057 369.236L-288.352 350.913L-274.753 335.025L-269.233 339.779L-278.251 350.344L-262.476 363.912L-244.297 342.7L-244.184 342.731L-239.777 337.603L-261.185 319.25L-247.76 303.558L-242.21 308.199L-251.228 318.763L-235.34 332.362L-212.927 306.219L-234.222 287.896L-220.623 272.008L-215.104 276.762L-224.091 287.213L-208.316 300.782L-190.167 279.683L-190.054 279.713L-185.647 274.586L-207.025 256.119L-193.6 240.427L-188.08 245.182L-197.098 255.746L-181.21 269.345L-158.767 243.088L-180.062 224.765L-166.494 208.99L-160.944 213.632L-169.962 224.196L-154.187 237.765L-136.007 216.553L-135.925 216.696L-131.487 211.455L-152.895 193.102L-139.471 177.41L-133.951 182.165L-142.938 192.616L-127.081 206.328L-104.638 180.071L-125.933 161.748L-112.334 145.86L-106.814 150.615L-115.832 161.179L-100.057 174.747L-81.8779 153.536L-81.7648 153.566L-77.3579 148.438L-98.7659 130.085L-85.2279 114.423L-79.8214 119.147L-88.8089 129.599L-72.9207 143.197L-50.5084 117.054L-71.8031 98.7311L-58.2045 82.8429L-52.6848 87.5974L-61.6724 98.0488L-45.9277 111.73L-27.7484 90.5183L-27.6352 90.5486L-23.2284 85.421L-44.6363 67.0679L-31.0681 51.2929L-25.6615 56.0171L-34.6794 66.5816L-18.7912 80.1802L3.62113 54.0367L-17.6736 35.7139L-4.07504 19.8257L1.4447 24.5802L-7.54286 35.0316L8.23214 48.5998L26.4943 27.5314L30.9315 22.2906L9.52353 3.9375L23.0615 -11.7243L28.5812 -6.96979L19.4501 3.56441L35.3384 17.163L57.781 -9.09366L36.4862 -27.4165L50.0848 -43.3047L55.6045 -38.5501L46.5867 -27.9856L62.3617 -14.4174L80.6541 -35.5989L85.061 -40.7266L63.6531 -59.0797L77.191 -74.7415L82.7107 -69.987L73.61 -59.566L89.4982 -45.9674L111.91 -72.1109L90.6158 -90.4337L104.214 -106.322L109.734 -101.567L100.716 -91.0028L116.604 -77.4042L134.784 -98.6161L139.191 -103.744L117.783 -122.097L131.321 -137.759L136.871 -133.117L127.739 -122.583L143.628 -108.985L165.14 -134.035L153.256 -137.219L156.506 -134.407L142.907 -118.519L137.387 -123.274L146.405 -133.838L137.522 -141.435L127.675 -144.074L108.248 -121.376L129.543 -103.053L115.801 -87.0822L110.281 -91.8368L119.382 -102.258L103.494 -115.856L81.0813 -89.7129L102.376 -71.3901L88.7774 -55.5019L83.2577 -60.2564L92.2756 -70.8209L76.5006 -84.3892L54.1186 -58.3589L75.4134 -40.0361L61.6712 -24.065L56.1212 -28.7064L65.2523 -39.2406L49.364 -52.8392L26.8385 -26.726L48.2465 -8.37289L34.6479 7.51532L29.1281 2.76075L38.1157 -7.69055L22.2275 -21.2891L-0.010937 4.65827L21.2838 22.9811L7.51135 39.0653L1.99164 34.3108L11.0095 23.7463L-4.76547 10.178L-27.3213 36.4043L-5.91337 54.7575L-19.4816 70.5325L-25.0317 65.8911L-16.0138 55.3266L-31.902 41.728L-54.1708 67.7887L-32.876 86.1115L-46.6182 102.083L-52.1379 97.328L-43.1503 86.8766L-58.9253 73.3084L-81.4509 99.4215L-60.0429 117.775L-73.6415 133.663L-79.1612 128.908L-70.1433 118.344L-86.0315 104.745L-108.3 130.806L-87.0056 149.129L-100.748 165.1L-106.298 160.458L-97.2799 149.894L-113.055 136.326L-135.58 162.439L-114.172 180.792L-127.771 196.68L-133.291 191.925L-124.303 181.474L-140.191 167.876L-162.43 193.823L-141.135 212.146L-154.908 228.23L-160.427 223.476L-151.409 212.911L-167.184 199.343L-189.74 225.569L-168.332 243.922L-182.014 259.667L-187.451 255.056L-178.433 244.491L-194.321 230.893L-216.59 256.953L-195.295 275.276L-209.037 291.247L-214.557 286.493L-205.569 276.041L-221.314 262.36L-243.87 288.586L-222.462 306.939L-236.174 322.797L-241.58 318.073L-232.562 307.509L-248.45 293.91L-270.832 319.94L-249.424 338.293L-263.167 354.264L-268.686 349.51L-259.699 339.059L-275.474 325.49L-297.999 351.603L-276.591 369.957L-290.303 385.814L-295.823 381.06L-286.722 370.639L-302.58 356.927L-324.962 382.957L-303.554 401.311L-317.326 417.395L-322.846 412.64L-313.828 402.076L-329.603 388.507L-352.159 414.734L-330.721 432.974L-344.433 448.832L-349.952 444.077L-340.852 433.656L-356.74 420.058L-379.092 445.975L-357.684 464.328L-371.456 480.412L-376.976 475.657L-367.958 465.093L-383.733 451.525L-406.289 477.751L-384.994 496.074L-398.593 511.962L-404.112 507.208L-394.981 496.673L-410.869 483.075L-433.251 509.105L-411.843 527.458L-425.586 543.429L-431.105 538.675L-422.118 528.223L-438.006 514.625L-460.418 540.768L-439.123 559.091L-452.722 574.979L-458.242 570.225L-449.224 559.66L-464.999 546.092L-487.381 572.122L-465.973 590.475L-479.715 606.446L-485.265 601.805L-476.247 591.24L-492.135 577.642L-514.548 603.785L-493.253 622.108L-506.852 637.996L-512.371 633.242L-503.384 622.791L-519.159 609.222L-541.51 635.139L-520.102 653.493L-533.875 669.577L-539.395 664.822L-530.377 654.258L-546.265 640.659L-568.708 666.916L-547.413 685.239L-560.981 701.014L-566.531 696.372L-557.513 685.808L-573.288 672.239L-595.67 698.27L-574.262 716.623L-588.004 732.594L-593.524 727.839L-584.537 717.388L-600.425 703.789L-622.837 729.933L-601.542 748.256L-615.141 764.144L-620.661 759.389L-611.643 748.825L-627.418 735.257L-649.8 761.287L-628.505 779.61L-642.247 795.581L-647.654 790.857L-638.666 780.405L-654.554 766.807L-675.893 791.661L-664.574 794.694L-667.432 792.229L-653.834 776.341L-648.314 781.096L-657.332 791.66L-648.841 798.909L-638.427 801.7L-623.264 784.047Z" fill="white"/>
<path d="M-237.797 691.164L-106.37 537.976L25.1707 384.817L156.681 231.773L288.108 78.5841L413.617 -67.4555L388.149 -74.2795L270.064 63.0732L138.636 216.262L7.09563 369.42L-124.415 522.465L-255.842 675.653L-387.352 828.698L-415.532 861.424L-389.951 868.279L-369.308 844.209L-237.797 691.164Z" fill="white"/>
<path d="M-364.026 582.731L-232.515 429.686L-101.088 276.498L30.4222 123.453L161.963 -29.7053L235.345 -115.224L209.425 -122.169L143.609 -45.4204L12.0986 107.624L-119.442 260.783L-250.952 413.827L-382.38 567.016L-513.92 720.174L-594.143 813.565L-568.223 820.51L-495.566 735.889L-364.026 582.731Z" fill="white"/>
<path d="M373.85 -78.1116L354.381 -83.3282C348.225 -73.9378 340.835 -67.1833 331.854 -62.1895C318.454 -54.7402 302.35 -52.1401 281.151 -49.0858C263.885 -46.6758 251.825 -42.8708 242.088 -36.8664C231.059 -30.1162 222.563 -20.1398 215.352 -5.45174C212.734 -0.208732 206.639 2.16171 201.562 -0.169272C196.485 -2.50026 194.484 -8.61686 197.072 -13.7467C206.107 -32.0709 217.528 -45.267 232.062 -54.2321C244.526 -61.8109 259.13 -66.5112 279.333 -69.4686C307.086 -73.436 322.428 -76.3616 333.411 -88.8259L292.323 -99.8354C288.49 -95.0392 284.928 -89.4425 281.719 -82.9019C279.101 -77.6589 273.007 -75.2885 267.93 -77.6194C262.853 -79.9504 260.852 -86.067 263.44 -91.1968C265.914 -96.357 268.72 -100.943 271.579 -105.272L249.393 -111.217L-553.887 824.352L-526.269 831.752C-526.245 830.303 -525.85 828.831 -525.117 827.451C-516.082 809.126 -504.66 795.93 -490.096 786.852C-479.642 780.433 -467.687 776.115 -451.976 773.167C-449.039 772.62 -445.988 772.102 -442.712 771.646C-402.993 766.032 -388.549 762.381 -376.093 729.93C-374.041 724.535 -368.021 721.538 -362.822 723.417C-357.593 725.182 -355.049 731.08 -357.101 736.475C-365.332 757.683 -375.5 770.73 -390.335 779.008C-401.725 785.297 -431.465 790.794 -431.465 790.794C-434.515 791.312 -437.648 791.685 -440.955 792.255C-458.221 794.665 -470.281 798.47 -480.018 804.474C-491.046 811.225 -499.543 821.201 -506.754 835.889C-506.845 836.229 -507.193 836.621 -507.397 836.93L-480.458 844.148C-461.415 839.182 -451.493 830.679 -442.664 807.69C-440.612 802.295 -434.593 799.298 -429.394 801.176C-424.165 802.941 -421.621 808.839 -423.673 814.234C-430.51 832.055 -438.926 843.994 -450.123 852.277L-429.522 857.796L373.85 -78.1116ZM-292.328 660.902C-300.559 682.111 -310.727 695.157 -325.562 703.435C-338.962 710.885 -355.066 713.485 -376.265 716.539C-393.531 718.949 -405.591 722.754 -415.328 728.758C-426.357 735.509 -434.853 745.485 -442.064 760.173C-444.682 765.416 -450.776 767.787 -455.854 765.455C-460.931 763.125 -462.932 757.008 -460.344 751.878C-451.309 733.554 -439.888 720.358 -425.354 711.393C-412.89 703.814 -398.286 699.114 -378.083 696.156C-338.364 690.542 -323.919 686.891 -311.463 654.44C-309.411 649.046 -303.392 646.049 -298.193 647.927C-292.964 649.692 -290.42 655.59 -292.472 660.985L-292.328 660.902ZM-225.704 583.399C-233.934 604.608 -244.103 617.655 -258.938 625.933C-270.328 632.222 -283.481 635.127 -300.181 637.689C-303.231 638.206 -306.395 638.693 -309.671 639.149C-326.937 641.559 -338.997 645.364 -348.734 651.369C-359.762 658.119 -368.259 668.095 -375.47 682.784C-378.088 688.026 -384.182 690.397 -389.26 688.066C-394.337 685.735 -396.338 679.618 -393.75 674.489C-384.715 656.164 -373.294 642.968 -358.73 633.89C-348.275 627.471 -336.321 623.153 -320.609 620.205C-317.672 619.658 -314.622 619.14 -311.345 618.684C-271.626 613.07 -257.182 609.419 -244.726 576.968C-242.674 571.573 -236.654 568.576 -231.456 570.455C-226.227 572.22 -223.682 578.118 -225.734 583.513L-225.704 583.399ZM-160.818 507.857C-169.049 529.066 -179.217 542.112 -194.052 550.39C-207.452 557.84 -223.555 560.44 -244.755 563.494C-262.021 565.904 -274.08 569.709 -283.817 575.713C-294.846 582.464 -303.343 592.44 -310.554 607.128C-313.172 612.371 -319.266 614.742 -324.343 612.411C-329.421 610.08 -331.421 603.963 -328.834 598.833C-319.799 580.509 -308.377 567.313 -293.844 558.348C-281.38 550.769 -266.775 546.069 -246.572 543.111C-206.854 537.498 -192.409 533.846 -179.953 501.395C-177.901 496.001 -171.881 493.004 -166.683 494.882C-161.454 496.647 -158.91 502.545 -160.962 507.94L-160.818 507.857ZM-94.2766 430.211C-102.507 451.42 -112.675 464.466 -127.51 472.744C-138.901 479.033 -152.054 481.939 -168.754 484.5C-171.804 485.018 -174.967 485.505 -178.244 485.961C-195.51 488.371 -207.569 492.176 -217.306 498.18C-228.335 504.931 -236.831 514.907 -244.043 529.595C-246.661 534.838 -252.755 537.209 -257.832 534.878C-262.91 532.547 -264.91 526.43 -262.322 521.3C-253.288 502.976 -241.866 489.78 -227.302 480.701C-216.847 474.283 -204.893 469.964 -189.181 467.017C-186.244 466.469 -183.194 465.952 -179.918 465.495C-140.199 459.882 -125.754 456.23 -113.298 423.78C-111.246 418.385 -105.227 415.388 -100.028 417.266C-94.7992 419.031 -92.2549 424.929 -94.307 430.324L-94.2766 430.211ZM-29.3907 354.669C-37.6212 375.877 -47.7895 388.924 -62.6244 397.202C-76.0242 404.651 -92.128 407.251 -113.328 410.306C-130.594 412.716 -142.653 416.521 -152.39 422.525C-163.419 429.275 -171.915 439.252 -179.126 453.94C-181.744 459.183 -187.839 461.553 -192.916 459.222C-197.993 456.891 -199.994 450.775 -197.406 445.645C-188.372 427.321 -176.95 414.124 -162.416 405.159C-149.952 397.581 -135.348 392.88 -115.145 389.923C-75.4262 384.309 -60.9817 380.658 -48.5257 348.207C-46.4736 342.812 -40.454 339.815 -35.2554 341.694C-30.0265 343.459 -27.4822 349.357 -29.5343 354.752L-29.3907 354.669ZM37.264 277.053C29.0335 298.262 18.8652 311.308 4.03024 319.586C-7.36027 325.875 -20.513 328.781 -37.2132 331.342C-40.2633 331.86 -43.4267 332.346 -46.7033 332.803C-63.9693 335.213 -76.0287 339.018 -85.7657 345.022C-96.7945 351.773 -105.291 361.749 -112.502 376.437C-115.12 381.68 -121.214 384.05 -126.292 381.719C-131.369 379.389 -133.37 373.272 -130.782 368.142C-121.747 349.818 -110.326 336.622 -95.7616 327.543C-85.3069 321.125 -73.3526 316.806 -57.6408 313.858C-54.7039 313.311 -51.6537 312.794 -48.3771 312.337C-8.65829 306.723 5.78619 303.072 18.2422 270.622C20.2942 265.227 26.3138 262.23 31.5125 264.108C36.7414 265.873 39.2857 271.771 37.2336 277.166L37.264 277.053ZM102.15 201.511C93.9194 222.719 83.7511 235.766 68.9161 244.044C55.5164 251.493 39.4125 254.093 18.213 257.148C0.946884 259.558 -11.1125 263.363 -20.8495 269.367C-31.8783 276.117 -40.3746 286.094 -47.5858 300.782C-50.2038 306.025 -56.2982 308.395 -61.3755 306.064C-66.4528 303.733 -68.4533 297.616 -65.8656 292.487C-56.8309 274.162 -45.4095 260.966 -30.8757 252.001C-18.4117 244.422 -3.80749 239.722 16.3956 236.765C56.1144 231.151 70.5589 227.5 83.0148 195.049C85.0669 189.654 91.0866 186.657 96.2852 188.536C101.514 190.301 104.058 196.199 102.006 201.594L102.15 201.511ZM168.774 124.008C160.544 145.217 150.376 158.263 135.541 166.541C124.15 172.83 110.997 175.736 94.2971 178.297C91.2469 178.815 88.0835 179.302 84.807 179.758C67.5409 182.168 55.4816 185.973 45.7445 191.977C34.7158 198.728 26.2194 208.704 19.0082 223.392C16.3902 228.635 10.2958 231.006 5.21853 228.675C0.14126 226.344 -1.85929 220.227 0.728424 215.097C9.76313 196.773 21.1845 183.577 35.7487 174.499C46.2034 168.08 58.1576 163.761 73.8694 160.814C76.8064 160.266 79.8566 159.749 83.1331 159.292C122.852 153.679 137.296 150.027 149.752 117.577C151.804 112.182 157.824 109.185 163.023 111.063C168.252 112.828 170.796 118.726 168.744 124.121L168.774 124.008ZM233.66 48.4657C225.43 69.6745 215.261 82.721 200.426 90.999C187.027 98.4483 170.923 101.048 149.723 104.103C132.457 106.513 120.398 110.318 110.661 116.322C99.632 123.072 91.1356 133.049 83.9244 147.737C81.3064 152.98 75.212 155.35 70.1348 153.019C65.0575 150.688 63.0569 144.572 65.6446 139.442C74.6794 121.118 86.1008 107.921 100.635 98.9563C113.099 91.3775 127.703 86.6772 147.906 83.7198C187.625 78.106 202.069 74.4548 214.525 42.0041C216.577 36.6094 222.597 33.6124 227.795 35.4906C233.024 37.2556 235.569 43.154 233.517 48.5486L233.66 48.4657ZM225.725 25.1091C222.674 25.6263 219.511 26.1131 216.234 26.5696C198.968 28.9796 186.909 32.7846 177.172 38.789C166.143 45.5392 157.647 55.5156 150.436 70.2037C147.818 75.4467 141.723 77.8171 136.646 75.4861C131.569 73.1551 129.568 67.0385 132.156 61.9087C141.19 43.5845 152.612 30.3884 167.176 21.3101C177.631 14.8913 189.585 10.5729 205.297 7.62515C208.234 7.07765 211.284 6.56044 214.561 6.10391C254.279 0.49016 268.724 -3.16107 281.18 -35.6118C283.232 -41.0065 289.252 -44.0035 294.45 -42.1253C299.679 -40.3603 302.223 -34.4619 300.171 -29.0673C291.941 -7.85857 281.773 5.18798 266.938 13.4659C255.547 19.7552 242.394 22.6607 225.694 25.2222L225.725 25.1091Z" fill="white"/>
</g>
<mask id="mask1_40_41569" style="mask-type:luminance" maskUnits="userSpaceOnUse" x="-188" y="-34" width="1175" height="1043">
<path d="M513.281 -3.63929L-166.697 786.876C-208.097 834.985 -184.968 909.847 -123.732 926.256L181.654 1008.08L986.24 72.6222L600.829 -30.6483C568.91 -39.2012 534.793 -28.6893 513.281 -3.63929Z" fill="white"/>
</mask>
<g mask="url(#mask1_40_41569)">
<path d="M792.307 225.682L846.467 162.552L900.597 99.5348L935.473 59.0189L928.116 57.0476L899.906 89.8871L845.746 153.017L791.617 216.035L733.05 284.293L683.327 342.182L629.198 405.199L575.068 468.217L520.939 531.234L466.779 594.364L412.649 657.381L358.52 720.399L299.84 788.626L250.117 846.516L191.551 914.774L141.858 972.55L124.548 992.782L131.792 994.723L142.549 982.198L201.229 913.97L250.951 856.081L309.488 787.936L359.21 730.046L413.34 667.029L467.5 603.899L521.629 540.881L575.759 477.864L629.919 414.734L684.048 351.717L742.615 283.459L792.338 225.569L792.307 225.682Z" fill="white"/>
<path d="M104.55 940.474L154.272 882.584L212.809 814.439L262.531 756.55L321.098 688.292L375.228 625.275L424.95 567.385L483.517 499.127L533.24 441.237L591.806 372.979L641.499 315.203L695.659 252.073L754.195 183.928L803.918 126.038L862.598 57.8107L875.327 42.9027L868.083 40.9617L852.95 58.5011L803.227 116.391L744.66 184.649L694.938 242.538L640.808 305.555L582.242 373.813L532.519 431.703L473.982 499.848L424.26 557.737L365.58 625.965L311.45 688.982L261.841 746.902L203.161 815.13L153.438 873.019L94.902 941.164L64.4017 976.666L71.759 978.637L104.55 940.474Z" fill="white"/>
<path d="M-183.002 894.967L-124.435 826.709L-74.7127 768.819L-16.1764 700.674L33.5463 642.785L87.6758 579.768L141.836 516.637L195.965 453.62L250.208 390.633L304.368 327.503L358.497 264.486L417.064 196.228L466.787 138.338L466.756 138.451L520.916 75.321L575.046 12.3038L609.809 -28.2423L602.565 -30.1834L574.355 2.6561L520.195 65.7865L466.066 128.804L407.386 197.031L357.663 254.921L303.534 317.938L249.404 380.955L195.275 443.972L141.115 507.103L86.9854 570.12L32.8559 633.137L-25.7108 701.395L-75.4335 759.285L-134 827.543L-183.693 885.319L-201.003 905.551L-193.758 907.492L-183.002 894.967Z" fill="white"/>
<path d="M-221.269 853.171L-171.546 795.281L-113.01 727.137L-63.2869 669.247L-4.60701 601.019L49.5225 538.002L99.132 480.082L157.812 411.855L207.535 353.965L266.101 285.707L315.794 227.931L369.953 164.8L428.49 96.6554L478.212 38.7659L536.779 -29.4921L549.622 -44.3697L542.264 -46.3411L527.245 -28.7713L477.522 29.1182L418.842 97.3459L369.233 155.266L315.103 218.283L256.423 286.511L206.701 344.4L148.164 412.545L98.4415 470.435L39.8748 538.693L-14.2547 601.71L-63.9774 659.599L-122.544 727.857L-172.267 785.747L-230.803 853.892L-261.303 889.393L-254.059 891.334L-221.269 853.171Z" fill="white"/>
<path d="M132.103 973.091L136.51 967.963L115.102 949.61L128.527 933.918L134.046 938.673L125.059 949.124L140.947 962.722L163.359 936.579L142.064 918.256L155.663 902.368L161.183 907.123L152.195 917.574L167.94 931.255L186.119 910.043L186.232 910.074L190.639 904.946L169.262 886.48L182.686 870.788L188.206 875.542L179.188 886.107L195.076 899.705L217.519 873.449L196.224 855.126L209.793 839.351L215.312 844.105L206.325 854.557L222.1 868.125L240.279 846.913L240.362 847.057L244.799 841.816L223.391 823.463L236.929 807.801L242.336 812.525L233.348 822.976L249.206 836.688L271.649 810.431L250.354 792.109L263.952 776.22L269.472 780.975L260.454 791.54L276.229 805.108L294.409 783.896L294.522 783.926L298.929 778.798L277.521 760.445L291.059 744.784L296.465 749.508L287.478 759.959L303.366 773.558L325.778 747.414L304.483 729.091L318.082 713.203L323.602 717.958L314.614 728.409L330.359 742.091L348.538 720.879L348.651 720.909L353.058 715.781L331.65 697.428L345.219 681.653L350.738 686.408L341.607 696.942L357.495 710.541L379.908 684.397L358.613 666.074L372.212 650.186L377.731 654.941L368.744 665.392L384.519 678.96L402.781 657.892L407.218 652.651L385.81 634.298L399.348 618.636L404.868 623.391L395.737 633.925L411.625 647.523L434.068 621.267L412.773 602.944L426.341 587.169L431.891 591.81L422.873 602.375L438.648 615.943L456.941 594.761L461.348 589.634L439.94 571.281L453.478 555.619L458.997 560.373L449.897 570.794L465.785 584.393L488.197 558.249L466.902 539.927L480.501 524.039L486.021 528.793L477.003 539.358L492.891 552.956L511.07 531.744L515.477 526.617L494.069 508.263L507.607 492.602L513.157 497.243L504.026 507.777L519.914 521.376L542.44 495.263L521.032 476.909L534.63 461.021L540.15 465.776L531.163 476.227L547.051 489.826L565.2 468.727L569.607 463.599L548.229 445.133L561.767 429.471L567.287 434.226L558.269 444.79L574.044 458.359L596.6 432.132L575.192 413.779L588.76 398.004L594.31 402.645L585.292 413.21L601.18 426.809L619.36 405.597L619.329 405.71L623.767 400.469L602.359 382.116L615.896 366.454L621.416 371.209L612.429 381.66L628.173 395.341L650.729 369.115L629.321 350.762L642.92 334.874L648.44 339.628L639.422 350.193L655.31 363.791L673.489 342.58L677.896 337.452L656.601 319.129L670.026 303.437L675.546 308.191L666.558 318.643L682.333 332.211L704.859 306.098L683.451 287.745L697.163 271.887L702.569 276.611L693.582 287.062L709.439 300.774L727.619 279.562L732.026 274.435L710.731 256.112L724.186 240.307L729.706 245.061L720.688 255.626L736.463 269.194L758.988 243.081L737.58 224.728L751.292 208.87L756.699 213.594L747.711 224.045L763.599 237.644L781.748 216.545L786.185 211.304L764.891 192.981L778.315 177.289L783.835 182.044L774.817 192.608L790.592 206.177L813.148 179.95L791.74 161.597L805.452 145.739L810.858 150.464L801.841 161.028L817.729 174.627L835.908 153.415L840.315 148.287L819.02 129.964L832.445 114.272L837.965 119.027L828.977 129.478L844.752 143.046L867.278 116.933L845.87 98.58L859.581 82.7221L865.101 87.4767L855.97 98.0109L871.858 111.609L890.038 90.3976L894.558 85.3003L873.15 66.9471L886.574 51.255L892.125 55.8963L883.107 66.4609L898.882 80.0291L920.394 54.9791L908.623 51.8248L911.759 54.6064L898.161 70.4946L892.641 65.7401L901.772 55.2059L892.889 47.6091L883.042 44.9705L863.502 67.6376L884.91 85.9907L871.168 101.962L865.648 97.2072L874.636 86.7559L858.748 73.1573L836.335 99.3008L857.63 117.624L844.031 133.512L838.512 128.757L847.643 118.223L831.754 104.624L809.372 130.655L830.78 149.008L817.038 164.979L811.488 160.338L820.506 149.773L804.618 136.174L782.206 162.318L803.5 180.641L789.902 196.529L784.382 191.774L793.37 181.323L777.595 167.755L755.243 193.672L776.651 212.025L762.878 228.109L757.359 223.355L766.377 212.79L750.488 199.192L728.046 225.448L749.341 243.771L735.772 259.546L730.222 254.905L739.24 244.34L723.465 230.772L701.083 256.802L722.491 275.155L708.749 291.127L703.229 286.372L712.217 275.921L696.329 262.322L673.916 288.466L695.211 306.788L681.612 322.677L676.093 317.922L685.111 307.357L669.336 293.789L646.954 319.82L668.361 338.173L654.619 354.144L649.069 349.502L658.087 338.938L642.199 325.339L619.787 351.483L641.081 369.806L627.483 385.694L621.963 380.939L630.951 370.488L615.176 356.92L592.824 382.837L614.119 401.159L600.346 417.244L594.94 412.52L603.958 401.955L588.069 388.356L565.627 414.613L586.922 432.936L573.353 448.711L567.803 444.07L576.821 433.505L561.046 419.937L538.664 445.967L559.959 464.29L546.217 480.261L540.81 475.537L549.798 465.085L533.94 451.374L511.497 477.63L532.792 495.953L519.194 511.841L513.674 507.087L522.692 496.522L506.917 482.954L484.535 508.984L505.829 527.307L492.087 543.278L486.568 538.524L495.668 528.103L479.78 514.504L457.368 540.647L478.663 558.97L465.064 574.858L459.544 570.104L468.532 559.653L452.787 545.971L430.405 572.001L451.7 590.324L437.927 606.408L432.408 601.654L441.539 591.12L425.651 577.521L403.095 603.748L424.533 621.987L410.934 637.876L405.415 633.121L414.402 622.67L398.514 609.071L376.276 635.019L397.57 653.341L383.798 669.426L378.278 664.671L387.409 654.137L371.521 640.538L348.965 666.765L370.373 685.118L356.775 701.006L351.255 696.252L360.273 685.687L344.385 672.088L322.116 698.149L343.41 716.472L329.668 732.443L324.149 727.688L333.136 717.237L317.361 703.669L294.836 729.782L316.244 748.135L302.645 764.023L297.125 759.269L306.143 748.704L290.255 735.106L267.986 761.166L289.281 779.489L275.539 795.46L269.989 790.819L279.007 780.254L263.232 766.686L240.706 792.799L262.114 811.152L248.516 827.04L242.996 822.286L251.983 811.835L236.095 798.236L213.857 824.183L235.151 842.506L221.379 858.59L215.859 853.836L224.877 843.271L209.102 829.703L186.546 855.929L207.954 874.283L194.273 890.027L188.836 885.416L197.854 874.852L181.966 861.253L159.697 887.314L180.992 905.637L167.249 921.608L161.73 916.853L170.717 906.402L154.942 892.833L132.417 918.947L153.825 937.3L140.113 953.158L134.706 948.433L143.724 937.869L127.836 924.27L105.454 950.301L126.862 968.654L113.12 984.625L107.6 979.87L116.588 969.419L100.813 955.851L79.3607 980.674L90.7928 983.738L87.9349 981.273L101.534 965.385L107.053 970.14L98.0353 980.704L106.526 987.953L116.826 990.713L131.99 973.061L132.103 973.091Z" fill="white"/>
<path d="M-193.715 885.788L-189.309 880.66L-210.603 862.338L-197.179 846.646L-191.659 851.4L-200.646 861.851L-184.871 875.42L-162.346 849.307L-183.754 830.953L-170.042 815.095L-164.635 819.82L-173.623 830.271L-157.765 843.983L-139.586 822.771L-135.179 817.643L-156.443 799.207L-143.019 783.515L-137.499 788.27L-146.517 798.834L-130.742 812.402L-108.186 786.176L-129.594 767.823L-115.912 752.078L-110.506 756.803L-119.494 767.254L-103.605 780.852L-85.426 759.641L-85.4563 759.754L-81.0191 754.513L-102.314 736.19L-88.8892 720.498L-83.3694 725.253L-92.357 735.704L-76.6123 749.385L-54.0565 723.159L-75.4644 704.806L-61.7526 688.948L-56.3461 693.672L-65.364 704.237L-49.4758 717.835L-31.2965 696.623L-26.8896 691.496L-48.1844 673.173L-34.7596 657.481L-29.2399 662.235L-38.2274 672.687L-22.4524 686.255L0.0730534 660.142L-21.3349 641.789L-7.6231 625.931L-2.10339 630.685L-11.2041 641.106L4.65377 654.818L22.8331 633.606L27.3531 628.509L5.94516 610.156L19.4002 594.35L24.92 599.105L15.9021 609.669L31.6771 623.238L54.2026 597.125L32.9078 578.802L46.5064 562.914L52.0262 567.668L42.9254 578.089L58.8136 591.688L76.9626 570.589L81.513 565.378L60.105 547.025L73.5298 531.333L79.0495 536.088L70.0316 546.652L85.9198 560.251L108.362 533.994L87.0677 515.671L100.636 499.896L106.186 504.538L97.0549 515.072L112.943 528.671L131.122 507.459L131.236 507.489L135.643 502.361L114.235 484.008L127.659 468.316L133.179 473.071L124.191 483.522L140.08 497.121L162.492 470.977L141.197 452.654L154.796 436.766L160.316 441.521L151.298 452.085L167.073 465.653L185.252 444.441L185.365 444.472L189.772 439.344L168.364 420.991L181.789 405.299L187.339 409.94L178.321 420.505L194.209 434.103L216.622 407.96L195.327 389.637L208.925 373.749L214.445 378.503L205.458 388.955L221.233 402.523L239.381 381.424L239.495 381.455L243.902 376.327L222.524 357.861L235.949 342.168L241.468 346.923L232.451 357.488L248.339 371.086L270.781 344.829L249.487 326.507L263.055 310.732L268.605 315.373L259.587 325.938L275.362 339.506L293.541 318.294L293.624 318.437L298.061 313.197L276.653 294.843L290.078 279.151L295.598 283.906L286.61 294.357L302.468 308.069L324.911 281.812L303.616 263.489L317.215 247.601L322.734 252.356L313.717 262.92L329.492 276.489L347.671 255.277L347.784 255.307L352.191 250.179L330.783 231.826L344.321 216.164L349.727 220.889L340.74 231.34L356.628 244.939L379.04 218.795L357.746 200.472L371.344 184.584L376.864 189.339L367.876 199.79L383.621 213.471L401.8 192.26L401.914 192.29L406.32 187.162L384.913 168.809L398.481 153.034L403.887 157.758L394.869 168.323L410.758 181.921L433.17 155.778L411.875 137.455L425.474 121.567L430.994 126.321L422.006 136.773L437.781 150.341L456.043 129.273L460.48 124.032L439.072 105.679L452.61 90.0169L458.13 94.7714L448.999 105.306L464.887 118.904L487.33 92.6475L466.035 74.3247L479.634 58.4365L485.153 63.1911L476.135 73.7556L491.911 87.3238L510.203 66.1423L514.61 61.0147L493.202 42.6615L506.74 26.9997L512.26 31.7542L503.159 42.1752L519.047 55.7738L541.459 29.6304L520.165 11.3076L533.763 -4.58066L539.283 0.173899L530.265 10.7384L546.153 24.337L564.333 3.12511L568.739 -2.00252L547.331 -20.3557L560.869 -36.0175L566.419 -31.3761L557.288 -20.842L573.177 -7.24335L594.689 -32.2934L582.804 -35.4779L586.054 -32.666L572.456 -16.7778L566.936 -21.5324L575.954 -32.0969L567.071 -39.6937L557.223 -42.3323L537.797 -19.6349L559.092 -1.31207L545.35 14.659L539.83 9.90444L548.931 -0.516549L533.042 -14.1151L510.63 12.0283L531.925 30.3511L518.326 46.2393L512.807 41.4848L521.824 30.9203L506.049 17.352L483.667 43.3823L504.962 61.7051L491.22 77.6762L485.67 73.0348L494.801 62.5006L478.913 48.902L456.387 75.0152L477.795 93.3683L464.197 109.257L458.677 104.502L467.665 94.0507L451.776 80.4521L429.538 106.399L450.833 124.722L437.06 140.807L431.54 136.052L440.558 125.487L424.783 111.919L402.227 138.146L423.635 156.499L410.067 172.274L404.517 167.632L413.535 157.068L397.647 143.469L375.378 169.53L396.673 187.853L382.931 203.824L377.411 199.069L386.399 188.618L370.623 175.05L348.098 201.163L369.506 219.516L355.907 235.404L350.388 230.65L359.406 220.085L343.517 206.486L321.248 232.547L342.543 250.87L328.801 266.841L323.251 262.2L332.269 251.635L316.494 238.067L293.968 264.18L315.376 282.533L301.778 298.421L296.258 293.667L305.246 283.215L289.357 269.617L267.119 295.564L288.414 313.887L274.641 329.971L269.122 325.217L278.139 314.652L262.364 301.084L239.809 327.31L261.217 345.663L247.535 361.408L242.098 356.797L251.116 346.233L235.228 332.634L212.959 358.695L234.254 377.017L220.512 392.988L214.992 388.234L223.98 377.783L208.235 364.101L185.679 390.327L207.087 408.681L193.375 424.538L187.969 419.814L196.987 409.25L181.098 395.651L158.716 421.681L180.124 440.035L166.382 456.006L160.863 451.251L169.85 440.8L154.075 427.232L131.55 453.345L152.957 471.698L139.246 487.556L133.726 482.801L142.827 472.38L126.969 458.668L104.587 484.699L125.995 503.052L112.222 519.136L106.703 514.382L115.721 503.817L99.9455 490.249L77.3897 516.475L98.828 534.715L85.1162 550.573L79.5964 545.818L88.6972 535.397L72.809 521.799L50.4573 547.716L71.8653 566.069L58.0928 582.153L52.5731 577.399L61.591 566.834L45.816 553.266L23.2602 579.492L44.5549 597.815L30.9563 613.703L25.4366 608.949L34.5676 598.414L18.6795 584.816L-3.70254 610.846L17.7054 629.199L3.96329 645.17L-1.55644 640.416L7.43113 629.965L-8.45708 616.366L-30.8694 642.509L-9.57465 660.832L-23.1732 676.72L-28.693 671.966L-19.6751 661.401L-35.4501 647.833L-57.8321 673.863L-36.4241 692.217L-50.1662 708.188L-55.7163 703.546L-46.6984 692.982L-62.5866 679.383L-84.9989 705.527L-63.7042 723.849L-77.3028 739.738L-82.8225 734.983L-73.8349 724.532L-89.6099 710.963L-111.962 736.881L-90.5537 755.234L-104.326 771.318L-109.846 766.563L-100.828 755.999L-116.716 742.4L-139.159 768.657L-117.864 786.98L-131.432 802.755L-136.982 798.113L-127.964 787.549L-143.739 773.981L-166.121 800.011L-144.713 818.364L-158.456 834.335L-163.975 829.581L-154.988 819.129L-170.876 805.531L-193.288 831.674L-171.994 849.997L-185.592 865.885L-191.112 861.131L-182.094 850.566L-197.869 836.998L-220.251 863.028L-198.956 881.351L-212.698 897.322L-218.105 892.598L-209.117 882.146L-225.006 868.548L-246.344 893.402L-235.025 896.435L-237.883 893.97L-224.285 878.082L-218.765 882.837L-227.783 893.401L-219.292 900.65L-208.879 903.441L-193.715 885.788Z" fill="white"/>
<path d="M191.752 792.905L323.179 639.717L454.72 486.559L586.23 333.514L717.657 180.325L843.166 34.2857L817.698 27.4617L699.612 164.814L568.185 318.003L436.644 471.161L305.134 624.206L173.707 777.394L42.1965 930.439L14.0169 963.166L39.5978 970.02L60.2413 945.95L191.752 792.905Z" fill="white"/>
<path d="M65.5231 684.472L197.033 531.427L328.461 378.239L459.971 225.194L591.512 72.0359L664.894 -13.4827L638.973 -20.428L573.158 56.3208L441.647 209.366L310.107 362.524L178.597 515.569L47.1691 668.757L-84.3715 821.915L-164.594 915.306L-138.674 922.252L-66.0175 837.63L65.5231 684.472Z" fill="white"/>
<path d="M803.398 23.6296L783.93 18.413C777.774 27.8034 770.384 34.5579 761.403 39.5517C748.003 47.0011 731.899 49.6011 710.699 52.6555C693.433 55.0654 681.374 58.8704 671.637 64.8748C660.608 71.625 652.112 81.6014 644.901 96.2895C642.283 101.532 636.188 103.903 631.111 101.572C626.034 99.2409 624.033 93.1244 626.621 87.9945C635.656 69.6703 647.077 56.4743 661.611 47.5091C674.075 39.9303 688.679 35.23 708.882 32.2726C736.635 28.3052 751.977 25.3797 762.959 12.9153L721.871 1.90582C718.039 6.70202 714.477 12.2987 711.268 18.8393C708.65 24.0823 702.556 26.4528 697.479 24.1218C692.401 21.7908 690.401 15.6742 692.989 10.5444C695.463 5.38424 698.269 0.798169 701.127 -3.53119L678.942 -9.47569L-124.339 926.093L-96.7203 933.493C-96.6959 932.044 -96.3016 930.572 -95.5678 929.192C-86.533 910.868 -75.1116 897.672 -60.5474 888.593C-50.0928 882.174 -38.1385 877.856 -22.4267 874.908C-19.4898 874.361 -16.4396 873.844 -13.163 873.387C26.5558 867.773 41.0003 864.122 53.4562 831.671C55.5083 826.277 61.528 823.28 66.7266 825.158C71.9555 826.923 74.4998 832.821 72.4477 838.216C64.2172 859.425 54.049 872.471 39.2141 880.749C27.8235 887.038 -1.91618 892.536 -1.91618 892.536C-4.96637 893.053 -8.09938 893.427 -11.4062 893.996C-28.6723 896.406 -40.7317 900.211 -50.4688 906.216C-61.4975 912.966 -69.9939 922.942 -77.2051 937.63C-77.296 937.97 -77.6438 938.362 -77.8479 938.671L-50.9088 945.89C-31.8658 940.923 -21.9445 932.42 -13.1156 909.431C-11.0635 904.036 -5.04385 901.039 0.154744 902.917C5.38366 904.682 7.92798 910.581 5.8759 915.975C-0.961618 933.796 -9.37731 945.735 -20.5739 954.018L0.026588 959.538L803.398 23.6296ZM137.22 762.643C128.99 783.852 118.822 796.899 103.987 805.177C90.587 812.626 74.4831 815.226 53.2836 818.28C36.0175 820.69 23.9581 824.495 14.2211 830.5C3.19231 837.25 -5.30404 847.226 -12.5152 861.914C-15.1332 867.157 -21.2277 869.528 -26.3049 867.197C-31.3822 864.866 -33.3828 858.749 -30.7951 853.619C-21.7604 835.295 -10.3389 822.099 4.19493 813.134C16.6589 805.555 31.2631 800.855 51.4662 797.897C91.185 792.284 105.629 788.632 118.085 756.182C120.138 750.787 126.157 747.79 131.356 749.668C136.585 751.433 139.129 757.331 137.077 762.726L137.22 762.643ZM203.845 685.141C195.614 706.349 185.446 719.396 170.611 727.674C159.221 733.963 146.068 736.869 129.368 739.43C126.318 739.947 123.154 740.434 119.878 740.891C102.612 743.301 90.5522 747.106 80.8151 753.11C69.7864 759.86 61.29 769.837 54.0788 784.525C51.4608 789.768 45.3664 792.138 40.2891 789.807C35.2118 787.476 33.2113 781.36 35.799 776.23C44.8337 757.906 56.2551 744.71 70.8193 735.631C81.274 729.212 93.2282 724.894 108.94 721.946C111.877 721.399 114.927 720.882 118.204 720.425C157.923 714.811 172.367 711.16 184.823 678.709C186.875 673.315 192.895 670.318 198.093 672.196C203.322 673.961 205.867 679.859 203.815 685.254L203.845 685.141ZM268.731 609.598C260.5 630.807 250.332 643.854 235.497 652.132C222.097 659.581 205.993 662.181 184.794 665.235C167.528 667.645 155.468 671.45 145.731 677.455C134.703 684.205 126.206 694.181 118.995 708.869C116.377 714.112 110.283 716.483 105.205 714.152C100.128 711.821 98.1275 705.704 100.715 700.574C109.75 682.25 121.171 669.054 135.705 660.089C148.169 652.51 162.773 647.81 182.976 644.852C222.695 639.239 237.14 635.587 249.596 603.137C251.648 597.742 257.667 594.745 262.866 596.623C268.095 598.388 270.639 604.287 268.587 609.681L268.731 609.598ZM335.272 531.952C327.042 553.161 316.873 566.207 302.039 574.485C290.648 580.775 277.495 583.68 260.795 586.242C257.745 586.759 254.582 587.246 251.305 587.702C234.039 590.112 221.98 593.917 212.242 599.922C201.214 606.672 192.717 616.648 185.506 631.336C182.888 636.579 176.794 638.95 171.717 636.619C166.639 634.288 164.639 628.171 167.226 623.041C176.261 604.717 187.683 591.521 202.247 582.443C212.701 576.024 224.656 571.705 240.367 568.758C243.304 568.21 246.355 567.693 249.631 567.237C289.35 561.623 303.794 557.972 316.25 525.521C318.302 520.126 324.322 517.129 329.521 519.007C334.75 520.772 337.294 526.671 335.242 532.065L335.272 531.952ZM400.158 456.41C391.928 477.619 381.759 490.665 366.924 498.943C353.525 506.393 337.421 508.993 316.221 512.047C298.955 514.457 286.896 518.262 277.159 524.266C266.13 531.016 257.634 540.993 250.422 555.681C247.804 560.924 241.71 563.294 236.633 560.963C231.555 558.632 229.555 552.516 232.143 547.386C241.177 529.062 252.599 515.866 267.133 506.901C279.597 499.322 294.201 494.621 314.404 491.664C354.123 486.05 368.567 482.399 381.023 449.948C383.075 444.554 389.095 441.557 394.293 443.435C399.522 445.2 402.067 451.098 400.015 456.493L400.158 456.41ZM466.813 378.794C458.582 400.003 448.414 413.049 433.579 421.327C422.189 427.617 409.036 430.522 392.336 433.084C389.285 433.601 386.122 434.088 382.846 434.544C365.579 436.954 353.52 440.759 343.783 446.764C332.754 453.514 324.258 463.49 317.047 478.178C314.429 483.421 308.334 485.792 303.257 483.461C298.18 481.13 296.179 475.013 298.767 469.883C307.802 451.559 319.223 438.363 333.787 429.285C344.242 422.866 356.196 418.547 371.908 415.6C374.845 415.052 377.895 414.535 381.172 414.078C420.891 408.465 435.335 404.813 447.791 372.363C449.843 366.968 455.863 363.971 461.061 365.849C466.29 367.614 468.835 373.513 466.782 378.907L466.813 378.794ZM531.699 303.252C523.468 324.461 513.3 337.507 498.465 345.785C485.065 353.234 468.961 355.834 447.762 358.889C430.496 361.299 418.436 365.104 408.699 371.108C397.671 377.858 389.174 387.835 381.963 402.523C379.345 407.766 373.251 410.136 368.173 407.805C363.096 405.474 361.096 399.358 363.683 394.228C372.718 375.904 384.139 362.708 398.673 353.742C411.137 346.164 425.741 341.463 445.944 338.506C485.663 332.892 500.108 329.241 512.564 296.79C514.616 291.396 520.635 288.398 525.834 290.277C531.063 292.042 533.607 297.94 531.555 303.335L531.699 303.252ZM598.323 225.749C590.093 246.958 579.924 260.004 565.089 268.282C553.699 274.572 540.546 277.477 523.846 280.039C520.796 280.556 517.632 281.043 514.356 281.499C497.09 283.909 485.03 287.714 475.293 293.719C464.265 300.469 455.768 310.445 448.557 325.133C445.939 330.376 439.845 332.747 434.767 330.416C429.69 328.085 427.69 321.968 430.277 316.838C439.312 298.514 450.733 285.318 465.298 276.24C475.752 269.821 487.706 265.503 503.418 262.555C506.355 262.007 509.405 261.49 512.682 261.034C552.401 255.42 566.845 251.769 579.301 219.318C581.353 213.923 587.373 210.926 592.572 212.804C597.8 214.569 600.345 220.468 598.293 225.862L598.323 225.749ZM663.209 150.207C654.978 171.416 644.81 184.462 629.975 192.74C616.576 200.19 600.472 202.789 579.272 205.844C562.006 208.254 549.947 212.059 540.21 218.063C529.181 224.813 520.684 234.79 513.473 249.478C510.855 254.721 504.761 257.091 499.684 254.76C494.606 252.429 492.606 246.313 495.193 241.183C504.228 222.859 515.65 209.663 530.183 200.697C542.647 193.119 557.252 188.418 577.455 185.461C617.173 179.847 631.618 176.196 644.074 143.745C646.126 138.351 652.146 135.354 657.344 137.232C662.573 138.997 665.117 144.895 663.065 150.29L663.209 150.207ZM655.273 126.85C652.223 127.367 649.06 127.854 645.783 128.311C628.517 130.721 616.458 134.526 606.721 140.53C595.692 147.28 587.196 157.257 579.984 171.945C577.366 177.188 571.272 179.558 566.195 177.227C561.117 174.896 559.117 168.78 561.705 163.65C570.739 145.326 582.161 132.13 596.725 123.051C607.18 116.633 619.134 112.314 634.846 109.366C637.783 108.819 640.833 108.302 644.109 107.845C683.828 102.231 698.273 98.5801 710.729 66.1294C712.781 60.7347 718.8 57.7377 723.999 59.6159C729.228 61.3809 731.772 67.2793 729.72 72.674C721.49 93.8826 711.321 106.929 696.486 115.207C685.096 121.496 671.943 124.402 655.243 126.963L655.273 126.85Z" fill="white"/>
</g>
<mask id="mask2_40_41569" style="mask-type:luminance" maskUnits="userSpaceOnUse" x="115" y="217" width="1175" height="1043">
<path d="M816.281 247.361L136.303 1037.88C94.9028 1085.98 118.032 1160.85 179.268 1177.26L484.654 1259.08L1289.24 323.622L903.829 220.352C871.91 211.799 837.793 222.311 816.281 247.361Z" fill="white"/>
</mask>
<g mask="url(#mask2_40_41569)">
<path d="M1095.31 476.682L1149.47 413.552L1203.6 350.535L1238.47 310.019L1231.12 308.048L1202.91 340.887L1148.75 404.017L1094.62 467.035L1036.05 535.293L986.327 593.182L932.198 656.199L878.068 719.217L823.939 782.234L769.779 845.364L715.649 908.381L661.52 971.399L602.84 1039.63L553.117 1097.52L494.551 1165.77L444.858 1223.55L427.548 1243.78L434.792 1245.72L445.549 1233.2L504.229 1164.97L553.951 1107.08L612.488 1038.94L662.21 981.046L716.34 918.029L770.5 854.899L824.629 791.881L878.759 728.864L932.919 665.734L987.048 602.717L1045.61 534.459L1095.34 476.569L1095.31 476.682Z" fill="white"/>
<path d="M407.55 1191.47L457.272 1133.58L515.809 1065.44L565.531 1007.55L624.098 939.292L678.228 876.275L727.95 818.385L786.517 750.127L836.24 692.237L894.806 623.979L944.499 566.203L998.659 503.073L1057.19 434.928L1106.92 377.038L1165.6 308.811L1178.33 293.903L1171.08 291.962L1155.95 309.501L1106.23 367.391L1047.66 435.649L997.938 493.538L943.808 556.555L885.242 624.813L835.519 682.703L776.982 750.848L727.26 808.737L668.58 876.965L614.45 939.982L564.841 997.902L506.161 1066.13L456.438 1124.02L397.902 1192.16L367.402 1227.67L374.759 1229.64L407.55 1191.47Z" fill="white"/>
<path d="M119.998 1145.97L178.565 1077.71L228.287 1019.82L286.824 951.674L336.546 893.785L390.676 830.768L444.836 767.637L498.965 704.62L553.208 641.633L607.368 578.503L661.497 515.486L720.064 447.228L769.787 389.338L769.756 389.451L823.916 326.321L878.046 263.304L912.809 222.758L905.565 220.817L877.355 253.656L823.195 316.786L769.066 379.804L710.386 448.031L660.663 505.921L606.534 568.938L552.404 631.955L498.275 694.972L444.115 758.103L389.985 821.12L335.856 884.137L277.289 952.395L227.566 1010.28L169 1078.54L119.307 1136.32L101.997 1156.55L109.242 1158.49L119.998 1145.97Z" fill="white"/>
<path d="M81.7314 1104.17L131.454 1046.28L189.99 978.137L239.713 920.247L298.393 852.019L352.523 789.002L402.132 731.082L460.812 662.855L510.535 604.965L569.101 536.707L618.794 478.931L672.953 415.8L731.49 347.655L781.212 289.766L839.779 221.508L852.622 206.63L845.264 204.659L830.245 222.229L780.522 280.118L721.842 348.346L672.233 406.266L618.103 469.283L559.423 537.511L509.701 595.4L451.164 663.545L401.442 721.435L342.875 789.693L288.745 852.71L239.023 910.599L180.456 978.857L130.733 1036.75L72.1969 1104.89L41.6966 1140.39L48.9407 1142.33L81.7314 1104.17Z" fill="white"/>
<path d="M435.103 1224.09L439.51 1218.96L418.102 1200.61L431.527 1184.92L437.046 1189.67L428.059 1200.12L443.947 1213.72L466.359 1187.58L445.064 1169.26L458.663 1153.37L464.183 1158.12L455.195 1168.57L470.94 1182.26L489.119 1161.04L489.232 1161.07L493.639 1155.95L472.262 1137.48L485.686 1121.79L491.206 1126.54L482.188 1137.11L498.076 1150.71L520.519 1124.45L499.224 1106.13L512.793 1090.35L518.312 1095.11L509.325 1105.56L525.1 1119.12L543.279 1097.91L543.362 1098.06L547.799 1092.82L526.391 1074.46L539.929 1058.8L545.336 1063.52L536.348 1073.98L552.206 1087.69L574.649 1061.43L553.354 1043.11L566.952 1027.22L572.472 1031.97L563.454 1042.54L579.229 1056.11L597.409 1034.9L597.522 1034.93L601.929 1029.8L580.521 1011.45L594.059 995.784L599.465 1000.51L590.478 1010.96L606.366 1024.56L628.778 998.414L607.483 980.091L621.082 964.203L626.602 968.958L617.614 979.409L633.359 993.091L651.538 971.879L651.651 971.909L656.058 966.781L634.65 948.428L648.219 932.653L653.738 937.408L644.607 947.942L660.495 961.541L682.908 935.397L661.613 917.074L675.212 901.186L680.731 905.941L671.744 916.392L687.519 929.96L705.781 908.892L710.218 903.651L688.81 885.298L702.348 869.636L707.868 874.391L698.737 884.925L714.625 898.523L737.068 872.267L715.773 853.944L729.341 838.169L734.891 842.81L725.873 853.375L741.648 866.943L759.941 845.761L764.348 840.634L742.94 822.281L756.478 806.619L761.997 811.373L752.897 821.794L768.785 835.393L791.197 809.249L769.902 790.927L783.501 775.039L789.021 779.793L780.003 790.358L795.891 803.956L814.07 782.744L818.477 777.617L797.069 759.263L810.607 743.602L816.157 748.243L807.026 758.777L822.914 772.376L845.44 746.263L824.032 727.909L837.63 712.021L843.15 716.776L834.163 727.227L850.051 740.826L868.2 719.727L872.607 714.599L851.229 696.133L864.767 680.471L870.287 685.226L861.269 695.79L877.044 709.359L899.6 683.132L878.192 664.779L891.76 649.004L897.31 653.645L888.292 664.21L904.18 677.809L922.36 656.597L922.329 656.71L926.767 651.469L905.359 633.116L918.896 617.454L924.416 622.209L915.429 632.66L931.173 646.341L953.729 620.115L932.321 601.762L945.92 585.874L951.44 590.628L942.422 601.193L958.31 614.791L976.489 593.58L980.896 588.452L959.601 570.129L973.026 554.437L978.546 559.191L969.558 569.643L985.333 583.211L1007.86 557.098L986.451 538.745L1000.16 522.887L1005.57 527.611L996.582 538.062L1012.44 551.774L1030.62 530.562L1035.03 525.435L1013.73 507.112L1027.19 491.307L1032.71 496.061L1023.69 506.626L1039.46 520.194L1061.99 494.081L1040.58 475.728L1054.29 459.87L1059.7 464.594L1050.71 475.045L1066.6 488.644L1084.75 467.545L1089.19 462.304L1067.89 443.981L1081.32 428.289L1086.84 433.044L1077.82 443.608L1093.59 457.177L1116.15 430.95L1094.74 412.597L1108.45 396.739L1113.86 401.464L1104.84 412.028L1120.73 425.627L1138.91 404.415L1143.31 399.287L1122.02 380.964L1135.44 365.272L1140.96 370.027L1131.98 380.478L1147.75 394.046L1170.28 367.933L1148.87 349.58L1162.58 333.722L1168.1 338.477L1158.97 349.011L1174.86 362.609L1193.04 341.398L1197.56 336.3L1176.15 317.947L1189.57 302.255L1195.12 306.896L1186.11 317.461L1201.88 331.029L1223.39 305.979L1211.62 302.825L1214.76 305.606L1201.16 321.495L1195.64 316.74L1204.77 306.206L1195.89 298.609L1186.04 295.97L1166.5 318.638L1187.91 336.991L1174.17 352.962L1168.65 348.207L1177.64 337.756L1161.75 324.157L1139.34 350.301L1160.63 368.624L1147.03 384.512L1141.51 379.757L1150.64 369.223L1134.75 355.624L1112.37 381.655L1133.78 400.008L1120.04 415.979L1114.49 411.338L1123.51 400.773L1107.62 387.174L1085.21 413.318L1106.5 431.641L1092.9 447.529L1087.38 442.774L1096.37 432.323L1080.59 418.755L1058.24 444.672L1079.65 463.025L1065.88 479.109L1060.36 474.355L1069.38 463.79L1053.49 450.192L1031.05 476.448L1052.34 494.771L1038.77 510.546L1033.22 505.905L1042.24 495.34L1026.47 481.772L1004.08 507.802L1025.49 526.155L1011.75 542.127L1006.23 537.372L1015.22 526.921L999.329 513.322L976.916 539.466L998.211 557.788L984.612 573.677L979.093 568.922L988.111 558.357L972.336 544.789L949.954 570.82L971.361 589.173L957.619 605.144L952.069 600.502L961.087 589.938L945.199 576.339L922.787 602.483L944.081 620.806L930.483 636.694L924.963 631.939L933.951 621.488L918.176 607.92L895.824 633.837L917.119 652.159L903.346 668.244L897.94 663.52L906.958 652.955L891.069 639.356L868.627 665.613L889.922 683.936L876.353 699.711L870.803 695.07L879.821 684.505L864.046 670.937L841.664 696.967L862.959 715.29L849.217 731.261L843.81 726.537L852.798 716.085L836.94 702.374L814.497 728.63L835.792 746.953L822.194 762.841L816.674 758.087L825.692 747.522L809.917 733.954L787.535 759.984L808.829 778.307L795.087 794.278L789.568 789.524L798.668 779.103L782.78 765.504L760.368 791.647L781.663 809.97L768.064 825.858L762.544 821.104L771.532 810.653L755.787 796.971L733.405 823.001L754.7 841.324L740.927 857.408L735.408 852.654L744.539 842.12L728.651 828.521L706.095 854.748L727.533 872.987L713.934 888.876L708.415 884.121L717.402 873.67L701.514 860.071L679.276 886.019L700.57 904.341L686.798 920.426L681.278 915.671L690.409 905.137L674.521 891.538L651.965 917.765L673.373 936.118L659.775 952.006L654.255 947.252L663.273 936.687L647.385 923.088L625.116 949.149L646.41 967.472L632.668 983.443L627.149 978.688L636.136 968.237L620.361 954.669L597.836 980.782L619.244 999.135L605.645 1015.02L600.125 1010.27L609.143 999.704L593.255 986.106L570.986 1012.17L592.281 1030.49L578.539 1046.46L572.989 1041.82L582.007 1031.25L566.232 1017.69L543.706 1043.8L565.114 1062.15L551.516 1078.04L545.996 1073.29L554.983 1062.83L539.095 1049.24L516.857 1075.18L538.151 1093.51L524.379 1109.59L518.859 1104.84L527.877 1094.27L512.102 1080.7L489.546 1106.93L510.954 1125.28L497.273 1141.03L491.836 1136.42L500.854 1125.85L484.966 1112.25L462.697 1138.31L483.992 1156.64L470.249 1172.61L464.73 1167.85L473.717 1157.4L457.942 1143.83L435.417 1169.95L456.825 1188.3L443.113 1204.16L437.706 1199.43L446.724 1188.87L430.836 1175.27L408.454 1201.3L429.862 1219.65L416.12 1235.62L410.6 1230.87L419.588 1220.42L403.813 1206.85L382.361 1231.67L393.793 1234.74L390.935 1232.27L404.534 1216.39L410.053 1221.14L401.035 1231.7L409.526 1238.95L419.826 1241.71L434.99 1224.06L435.103 1224.09Z" fill="white"/>
<path d="M109.285 1136.79L113.691 1131.66L92.3967 1113.34L105.821 1097.65L111.341 1102.4L102.354 1112.85L118.129 1126.42L140.654 1100.31L119.246 1081.95L132.958 1066.1L138.365 1070.82L129.377 1081.27L145.235 1094.98L163.414 1073.77L167.821 1068.64L146.557 1050.21L159.981 1034.52L165.501 1039.27L156.483 1049.83L172.258 1063.4L194.814 1037.18L173.406 1018.82L187.088 1003.08L192.494 1007.8L183.506 1018.25L199.395 1031.85L217.574 1010.64L217.544 1010.75L221.981 1005.51L200.686 987.19L214.111 971.498L219.631 976.253L210.643 986.704L226.388 1000.39L248.944 974.159L227.536 955.806L241.247 939.948L246.654 944.672L237.636 955.237L253.524 968.835L271.704 947.623L276.11 942.496L254.816 924.173L268.24 908.481L273.76 913.235L264.773 923.687L280.548 937.255L303.073 911.142L281.665 892.789L295.377 876.931L300.897 881.685L291.796 892.106L307.654 905.818L325.833 884.606L330.353 879.509L308.945 861.156L322.4 845.35L327.92 850.105L318.902 860.669L334.677 874.238L357.203 848.125L335.908 829.802L349.506 813.914L355.026 818.668L345.925 829.089L361.814 842.688L379.963 821.589L384.513 816.378L363.105 798.025L376.53 782.333L382.049 787.088L373.032 797.652L388.92 811.251L411.362 784.994L390.068 766.671L403.636 750.896L409.186 755.538L400.055 766.072L415.943 779.671L434.122 758.459L434.236 758.489L438.643 753.361L417.235 735.008L430.659 719.316L436.179 724.071L427.191 734.522L443.08 748.121L465.492 721.977L444.197 703.654L457.796 687.766L463.316 692.521L454.298 703.085L470.073 716.653L488.252 695.441L488.365 695.472L492.772 690.344L471.364 671.991L484.789 656.299L490.339 660.94L481.321 671.505L497.209 685.103L519.622 658.96L498.327 640.637L511.925 624.749L517.445 629.503L508.458 639.955L524.233 653.523L542.381 632.424L542.495 632.455L546.902 627.327L525.524 608.861L538.949 593.168L544.468 597.923L535.451 608.488L551.339 622.086L573.781 595.829L552.487 577.507L566.055 561.732L571.605 566.373L562.587 576.938L578.362 590.506L596.541 569.294L596.624 569.437L601.061 564.197L579.653 545.843L593.078 530.151L598.598 534.906L589.61 545.357L605.468 559.069L627.911 532.812L606.616 514.489L620.215 498.601L625.734 503.356L616.717 513.92L632.492 527.489L650.671 506.277L650.784 506.307L655.191 501.179L633.783 482.826L647.321 467.164L652.727 471.889L643.74 482.34L659.628 495.939L682.04 469.795L660.746 451.472L674.344 435.584L679.864 440.339L670.876 450.79L686.621 464.471L704.8 443.26L704.914 443.29L709.32 438.162L687.913 419.809L701.481 404.034L706.887 408.758L697.869 419.323L713.758 432.921L736.17 406.778L714.875 388.455L728.474 372.567L733.994 377.321L725.006 387.773L740.781 401.341L759.043 380.273L763.48 375.032L742.072 356.679L755.61 341.017L761.13 345.771L751.999 356.306L767.887 369.904L790.33 343.648L769.035 325.325L782.634 309.437L788.153 314.191L779.135 324.756L794.911 338.324L813.203 317.142L817.61 312.015L796.202 293.662L809.74 278L815.26 282.754L806.159 293.175L822.047 306.774L844.459 280.63L823.165 262.308L836.763 246.419L842.283 251.174L833.265 261.738L849.153 275.337L867.333 254.125L871.739 248.997L850.331 230.644L863.869 214.983L869.419 219.624L860.288 230.158L876.177 243.757L897.689 218.707L885.804 215.522L889.054 218.334L875.456 234.222L869.936 229.468L878.954 218.903L870.071 211.306L860.223 208.668L840.797 231.365L862.092 249.688L848.35 265.659L842.83 260.904L851.931 250.483L836.042 236.885L813.63 263.028L834.925 281.351L821.326 297.239L815.807 292.485L824.824 281.92L809.049 268.352L786.667 294.382L807.962 312.705L794.22 328.676L788.67 324.035L797.801 313.501L781.913 299.902L759.387 326.015L780.795 344.368L767.197 360.257L761.677 355.502L770.665 345.051L754.776 331.452L732.538 357.399L753.833 375.722L740.06 391.807L734.54 387.052L743.558 376.487L727.783 362.919L705.227 389.146L726.635 407.499L713.067 423.274L707.517 418.632L716.535 408.068L700.647 394.469L678.378 420.53L699.673 438.853L685.931 454.824L680.411 450.069L689.399 439.618L673.623 426.05L651.098 452.163L672.506 470.516L658.907 486.404L653.388 481.65L662.406 471.085L646.517 457.486L624.248 483.547L645.543 501.87L631.801 517.841L626.251 513.2L635.269 502.635L619.494 489.067L596.968 515.18L618.376 533.533L604.778 549.421L599.258 544.667L608.246 534.215L592.357 520.617L570.119 546.564L591.414 564.887L577.641 580.971L572.122 576.217L581.139 565.652L565.364 552.084L542.809 578.31L564.217 596.663L550.535 612.408L545.098 607.797L554.116 597.233L538.228 583.634L515.959 609.695L537.254 628.017L523.512 643.988L517.992 639.234L526.98 628.783L511.235 615.101L488.679 641.327L510.087 659.681L496.375 675.538L490.969 670.814L499.987 660.25L484.098 646.651L461.716 672.681L483.124 691.035L469.382 707.006L463.863 702.251L472.85 691.8L457.075 678.232L434.55 704.345L455.957 722.698L442.246 738.556L436.726 733.801L445.827 723.38L429.969 709.668L407.587 735.699L428.995 754.052L415.222 770.136L409.703 765.382L418.721 754.817L402.945 741.249L380.39 767.475L401.828 785.715L388.116 801.573L382.596 796.818L391.697 786.397L375.809 772.799L353.457 798.716L374.865 817.069L361.093 833.153L355.573 828.399L364.591 817.834L348.816 804.266L326.26 830.492L347.555 848.815L333.956 864.703L328.437 859.949L337.568 849.414L321.679 835.816L299.297 861.846L320.705 880.199L306.963 896.17L301.444 891.416L310.431 880.965L294.543 867.366L272.131 893.509L293.425 911.832L279.827 927.72L274.307 922.966L283.325 912.401L267.55 898.833L245.168 924.863L266.576 943.217L252.834 959.188L247.284 954.546L256.302 943.982L240.413 930.383L218.001 956.527L239.296 974.849L225.697 990.738L220.178 985.983L229.165 975.532L213.39 961.963L191.038 987.881L212.446 1006.23L198.674 1022.32L193.154 1017.56L202.172 1007L186.284 993.4L163.841 1019.66L185.136 1037.98L171.568 1053.75L166.018 1049.11L175.036 1038.55L159.261 1024.98L136.879 1051.01L158.287 1069.36L144.544 1085.34L139.025 1080.58L148.012 1070.13L132.124 1056.53L109.712 1082.67L131.006 1101L117.408 1116.89L111.888 1112.13L120.906 1101.57L105.131 1088L82.749 1114.03L104.044 1132.35L90.3016 1148.32L84.8951 1143.6L93.8827 1133.15L77.9945 1119.55L56.6556 1144.4L67.9746 1147.43L65.1167 1144.97L78.7153 1129.08L84.235 1133.84L75.2171 1144.4L83.7079 1151.65L94.1214 1154.44L109.285 1136.79Z" fill="white"/>
<path d="M494.752 1043.91L626.179 890.717L757.72 737.559L889.23 584.514L1020.66 431.325L1146.17 285.286L1120.7 278.462L1002.61 415.814L871.185 569.003L739.644 722.161L608.134 875.206L476.707 1028.39L345.197 1181.44L317.017 1214.17L342.598 1221.02L363.241 1196.95L494.752 1043.91Z" fill="white"/>
<path d="M368.523 935.472L500.033 782.427L631.461 629.239L762.971 476.194L894.512 323.036L967.894 237.517L941.973 230.572L876.158 307.321L744.647 460.366L613.107 613.524L481.597 766.569L350.169 919.757L218.629 1072.92L138.406 1166.31L164.326 1173.25L236.983 1088.63L368.523 935.472Z" fill="white"/>
<path d="M1106.4 274.63L1086.93 269.413C1080.77 278.803 1073.38 285.558 1064.4 290.552C1051 298.001 1034.9 300.601 1013.7 303.655C996.433 306.065 984.374 309.87 974.637 315.875C963.608 322.625 955.112 332.601 947.901 347.289C945.283 352.532 939.188 354.903 934.111 352.572C929.034 350.241 927.033 344.124 929.621 338.995C938.656 320.67 950.077 307.474 964.611 298.509C977.075 290.93 991.679 286.23 1011.88 283.273C1039.63 279.305 1054.98 276.38 1065.96 263.915L1024.87 252.906C1021.04 257.702 1017.48 263.299 1014.27 269.839C1011.65 275.082 1005.56 277.453 1000.48 275.122C995.401 272.791 993.401 266.674 995.989 261.544C998.463 256.384 1001.27 251.798 1004.13 247.469L981.942 241.524L178.661 1177.09L206.28 1184.49C206.304 1183.04 206.698 1181.57 207.432 1180.19C216.467 1161.87 227.888 1148.67 242.453 1139.59C252.907 1133.17 264.862 1128.86 280.573 1125.91C283.51 1125.36 286.56 1124.84 289.837 1124.39C329.556 1118.77 344 1115.12 356.456 1082.67C358.508 1077.28 364.528 1074.28 369.727 1076.16C374.956 1077.92 377.5 1083.82 375.448 1089.22C367.217 1110.42 357.049 1123.47 342.214 1131.75C330.824 1138.04 301.084 1143.54 301.084 1143.54C298.034 1144.05 294.901 1144.43 291.594 1145C274.328 1147.41 262.268 1151.21 252.531 1157.22C241.502 1163.97 233.006 1173.94 225.795 1188.63C225.704 1188.97 225.356 1189.36 225.152 1189.67L252.091 1196.89C271.134 1191.92 281.055 1183.42 289.884 1160.43C291.936 1155.04 297.956 1152.04 303.155 1153.92C308.384 1155.68 310.928 1161.58 308.876 1166.98C302.038 1184.8 293.623 1196.74 282.426 1205.02L303.027 1210.54L1106.4 274.63ZM440.22 1013.64C431.99 1034.85 421.822 1047.9 406.987 1056.18C393.587 1063.63 377.483 1066.23 356.284 1069.28C339.018 1071.69 326.958 1075.5 317.221 1081.5C306.192 1088.25 297.696 1098.23 290.485 1112.91C287.867 1118.16 281.772 1120.53 276.695 1118.2C271.618 1115.87 269.617 1109.75 272.205 1104.62C281.24 1086.3 292.661 1073.1 307.195 1064.13C319.659 1056.56 334.263 1051.85 354.466 1048.9C394.185 1043.28 408.629 1039.63 421.085 1007.18C423.138 1001.79 429.157 998.79 434.356 1000.67C439.585 1002.43 442.129 1008.33 440.077 1013.73L440.22 1013.64ZM506.845 936.141C498.614 957.349 488.446 970.396 473.611 978.674C462.221 984.963 449.068 987.869 432.368 990.43C429.318 990.947 426.154 991.434 422.878 991.891C405.612 994.301 393.552 998.106 383.815 1004.11C372.786 1010.86 364.29 1020.84 357.079 1035.52C354.461 1040.77 348.366 1043.14 343.289 1040.81C338.212 1038.48 336.211 1032.36 338.799 1027.23C347.834 1008.91 359.255 995.71 373.819 986.631C384.274 980.212 396.228 975.894 411.94 972.946C414.877 972.399 417.927 971.882 421.204 971.425C460.923 965.811 475.367 962.16 487.823 929.709C489.875 924.315 495.895 921.318 501.093 923.196C506.322 924.961 508.867 930.859 506.815 936.254L506.845 936.141ZM571.731 860.598C563.5 881.807 553.332 894.854 538.497 903.132C525.097 910.581 508.993 913.181 487.794 916.235C470.528 918.645 458.468 922.45 448.731 928.455C437.703 935.205 429.206 945.181 421.995 959.869C419.377 965.112 413.283 967.483 408.205 965.152C403.128 962.821 401.127 956.704 403.715 951.574C412.75 933.25 424.171 920.054 438.705 911.089C451.169 903.51 465.773 898.81 485.976 895.852C525.695 890.239 540.14 886.587 552.596 854.137C554.648 848.742 560.667 845.745 565.866 847.623C571.095 849.388 573.639 855.287 571.587 860.681L571.731 860.598ZM638.272 782.952C630.042 804.161 619.873 817.207 605.039 825.485C593.648 831.775 580.495 834.68 563.795 837.242C560.745 837.759 557.582 838.246 554.305 838.702C537.039 841.112 524.98 844.917 515.242 850.922C504.214 857.672 495.717 867.648 488.506 882.336C485.888 887.579 479.794 889.95 474.717 887.619C469.639 885.288 467.639 879.171 470.226 874.041C479.261 855.717 490.683 842.521 505.247 833.443C515.701 827.024 527.656 822.705 543.367 819.758C546.304 819.21 549.355 818.693 552.631 818.237C592.35 812.623 606.794 808.972 619.25 776.521C621.302 771.126 627.322 768.129 632.521 770.007C637.75 771.772 640.294 777.671 638.242 783.065L638.272 782.952ZM703.158 707.41C694.928 728.619 684.759 741.665 669.924 749.943C656.525 757.393 640.421 759.993 619.221 763.047C601.955 765.457 589.896 769.262 580.159 775.266C569.13 782.016 560.634 791.993 553.422 806.681C550.804 811.924 544.71 814.294 539.633 811.963C534.555 809.632 532.555 803.516 535.143 798.386C544.177 780.062 555.599 766.866 570.133 757.901C582.597 750.322 597.201 745.621 617.404 742.664C657.123 737.05 671.567 733.399 684.023 700.948C686.075 695.554 692.095 692.557 697.293 694.435C702.522 696.2 705.067 702.098 703.015 707.493L703.158 707.41ZM769.813 629.794C761.582 651.003 751.414 664.049 736.579 672.327C725.189 678.617 712.036 681.522 695.336 684.084C692.285 684.601 689.122 685.088 685.846 685.544C668.579 687.954 656.52 691.759 646.783 697.764C635.754 704.514 627.258 714.49 620.047 729.178C617.429 734.421 611.334 736.792 606.257 734.461C601.18 732.13 599.179 726.013 601.767 720.883C610.802 702.559 622.223 689.363 636.787 680.285C647.242 673.866 659.196 669.547 674.908 666.6C677.845 666.052 680.895 665.535 684.172 665.078C723.891 659.465 738.335 655.813 750.791 623.363C752.843 617.968 758.863 614.971 764.061 616.849C769.29 618.614 771.835 624.513 769.782 629.907L769.813 629.794ZM834.699 554.252C826.468 575.461 816.3 588.507 801.465 596.785C788.065 604.234 771.961 606.834 750.762 609.889C733.496 612.299 721.436 616.104 711.699 622.108C700.671 628.858 692.174 638.835 684.963 653.523C682.345 658.766 676.251 661.136 671.173 658.805C666.096 656.474 664.096 650.358 666.683 645.228C675.718 626.904 687.139 613.708 701.673 604.742C714.137 597.164 728.741 592.463 748.944 589.506C788.663 583.892 803.108 580.241 815.564 547.79C817.616 542.396 823.635 539.398 828.834 541.277C834.063 543.042 836.607 548.94 834.555 554.335L834.699 554.252ZM901.323 476.749C893.093 497.958 882.924 511.004 868.089 519.282C856.699 525.572 843.546 528.477 826.846 531.039C823.796 531.556 820.632 532.043 817.356 532.499C800.09 534.909 788.03 538.714 778.293 544.719C767.265 551.469 758.768 561.445 751.557 576.133C748.939 581.376 742.845 583.747 737.767 581.416C732.69 579.085 730.69 572.968 733.277 567.838C742.312 549.514 753.733 536.318 768.298 527.24C778.752 520.821 790.706 516.503 806.418 513.555C809.355 513.007 812.405 512.49 815.682 512.034C855.401 506.42 869.845 502.769 882.301 470.318C884.353 464.923 890.373 461.926 895.572 463.804C900.8 465.569 903.345 471.468 901.293 476.862L901.323 476.749ZM966.209 401.207C957.978 422.416 947.81 435.462 932.975 443.74C919.576 451.19 903.472 453.789 882.272 456.844C865.006 459.254 852.947 463.059 843.21 469.063C832.181 475.813 823.684 485.79 816.473 500.478C813.855 505.721 807.761 508.091 802.684 505.76C797.606 503.429 795.606 497.313 798.193 492.183C807.228 473.859 818.65 460.663 833.183 451.697C845.647 444.119 860.252 439.418 880.455 436.461C920.173 430.847 934.618 427.196 947.074 394.745C949.126 389.351 955.146 386.354 960.344 388.232C965.573 389.997 968.117 395.895 966.065 401.29L966.209 401.207ZM958.273 377.85C955.223 378.367 952.06 378.854 948.783 379.311C931.517 381.721 919.458 385.526 909.721 391.53C898.692 398.28 890.196 408.257 882.984 422.945C880.366 428.188 874.272 430.558 869.195 428.227C864.117 425.896 862.117 419.78 864.705 414.65C873.739 396.326 885.161 383.13 899.725 374.051C910.18 367.633 922.134 363.314 937.846 360.366C940.783 359.819 943.833 359.302 947.109 358.845C986.828 353.231 1001.27 349.58 1013.73 317.129C1015.78 311.735 1021.8 308.738 1027 310.616C1032.23 312.381 1034.77 318.279 1032.72 323.674C1024.49 344.883 1014.32 357.929 999.486 366.207C988.096 372.496 974.943 375.402 958.243 377.963L958.273 377.85Z" fill="white"/>
</g>
</g>
<defs>
<clipPath id="clip0_40_41569">
<rect width="768" height="960" fill="white"/>
</clipPath>
</defs>
</svg>
