<svg width="172" height="98" viewBox="0 0 172 98" fill="none" xmlns="http://www.w3.org/2000/svg">
<g clip-path="url(#clip0_56_41)">
<path d="M36.9501 82.44L36.9701 82.42C36.1201 83.42 35.2601 84.43 34.4101 85.43C34.1901 85.41 34.0601 85.51 34.0201 85.73C33.1501 86.19 32.2901 86.7 31.4001 87.11C25.7201 89.73 17.1201 87.63 14.8701 82.71C11.9101 76.25 11.3601 69.54 14.3701 62.86C16.0701 59.09 18.5301 58.29 22.5201 60.1C22.9301 60.82 23.3301 61.54 23.7401 62.27C24.5501 65.26 23.7701 67.97 22.2801 70.55L22.1001 70.77C20.3001 71.71 18.7201 72.65 22.0101 73.75C25.7501 75.01 30.2401 74.25 31.9601 72C34.1501 69.15 33.9701 65.86 32.0101 63.35C30.0101 60.79 27.5401 58.1 23.5901 58.49C16.3601 56.61 9.43008 57.62 4.04008 62.7C-3.34992 69.68 -0.169923 82.43 10.1401 86.58C21.9501 91.33 33.9701 90.74 45.6901 85.6C51.8301 82.95 56.5701 79 58.2101 72.16C58.4501 71.61 58.8401 71.07 58.8901 70.5C60.2801 54.83 59.1401 39.13 59.5401 23.45C59.5801 21.72 58.5501 21.81 57.3301 21.94C52.6301 22.44 47.9301 23 43.2201 23.34C40.2601 23.55 39.0501 24.5 39.1401 27.85C39.4101 38.81 39.3301 49.78 39.2101 60.75C39.1401 67.2 39.9501 73.71 38.3101 80.1L38.4001 80.32L38.3301 80.09C37.8801 80.87 37.4201 81.66 36.9701 82.44H36.9501ZM98.5101 49.52H98.5401C95.6401 51.17 93.9601 53.56 94.1301 57.02C93.9401 59.54 93.8101 62.06 94.2301 64.57C94.6401 67.74 95.1901 70.83 98.5001 72.42C99.6901 72.81 100.89 73.21 102.08 73.6C103.26 74.53 104.68 74.31 106.01 74.32C109.98 74.37 113.95 74.47 117.91 74.28C120.39 74.16 120.98 75.05 120.98 77.44C120.98 81.67 119.76 85.46 117.95 89.16L117.92 89.19C117.32 89.81 116.72 90.44 116.11 91.06C115.4 91.78 114.53 92.52 115.2 93.62C115.8 94.61 116.84 94.01 117.6 93.86C119.91 93.4 122.25 92.94 124.48 92.18C134.6 88.75 140.45 81.52 140.85 71.69C141.05 66.71 140.98 61.7 140.69 56.72C140.4 51.72 137.21 48.02 132.51 46.78C129.57 46 126.54 46.64 123.57 46.39C121.35 46.2 120.85 47.15 120.89 49.19C121 55.31 120.93 61.43 120.93 67.55C120.93 72.05 118.75 73.6667 114.39 72.4C114.3 72.21 114.15 72.11 113.94 72.11C113.32 71.56 112.71 71 112.09 70.45C109.03 64.59 111 58.27 110.42 52.18C110.27 50.59 110.93 49.3 111.74 48.03C112.5 47.3 112.31 46.52 111.38 46.51C107.97 46.47 104.43 45.74 101.3 47.87C101.09 47.8 100.91 47.85 100.78 48.03C99.8001 48.16 99.1001 48.73 98.5201 49.49L98.5101 49.52ZM87.3101 82.52C83.9201 81.21 81.7401 82.31 78.4601 86.99C78.1201 87.25 77.7701 87.5 77.4301 87.76C75.7001 88.31 74.1101 86.03 73.4701 86.45C71.4901 87.76 68.6301 88.61 67.6301 87.39C65.3401 84.57 64.5901 88.91 62.6101 87.87C61.2501 87.16 61.1401 86.56 61.1301 85.47C61.1201 82.19 61.1301 78.92 61.1301 75.47C58.5801 76.14 57.8701 77.4 58.0101 79.45C58.1601 81.68 58.0001 83.93 58.0501 86.18C58.1801 91.89 56.7001 91.65 63.7101 91.5C63.8301 91.5 63.9601 91.46 64.0801 91.44C67.8101 91.44 71.5401 91.42 75.2701 91.41C81.3301 91.8 83.3701 90.39 83.5801 85.68C85.3701 84.2 86.3401 87.33 88.0101 86.47C88.0801 87.15 87.6401 88.28 88.5301 88.39C91.2201 88.71 93.9801 89.07 96.2101 86.84C98.3501 84.71 98.2601 82.18 97.5901 79.57C97.3401 78.59 96.5901 77.82 95.4701 77.73C94.3201 77.63 93.6501 78.35 93.1901 79.3C92.3301 81.1 91.8801 82.84 93.9701 84.16L93.9301 84.12C92.6301 85.39 91.0001 84.42 89.5601 84.78C88.8001 84.03 88.0501 83.28 87.2901 82.53L87.3101 82.52ZM161.91 22.59C157.52 23.11 152.91 22.33 148.84 24.76C148.81 40.38 148.81 56 148.71 71.61C148.7 73.69 149.27 74.45 151.42 74.38C155.91 74.23 160.42 74.27 164.91 74.36C166.65 74.39 167.35 73.86 167.35 72.03C167.31 56.04 167.31 40.04 167.38 24.05C167.38 22.04 166.5 21.7 164.85 22.02C163.87 22.21 162.89 22.4 161.91 22.59ZM89.6101 48.07C89.6101 48.07 89.6101 48.07 89.6201 48.07C89.6201 40.21 89.6401 32.36 89.6001 24.5C89.6001 23.27 90.1301 21.61 87.6801 21.94C82.9901 22.57 78.2801 23 73.5701 23.51C71.7301 23.71 70.7801 24.39 70.8001 26.55C70.8901 41.64 70.8801 56.73 70.8201 71.82C70.8201 73.8 71.5201 74.41 73.4501 74.36C77.9401 74.25 82.4301 74.24 86.9201 74.38C89.0501 74.45 89.6801 73.76 89.6501 71.63C89.5401 63.78 89.6001 55.92 89.6001 48.06L89.6101 48.07ZM159.8 1.02C151.04 2.33 152.89 9.34 152.38 14.79H169.95C159.54 10.94 158.07 8.93 159.79 1.02H159.8ZM164.36 0.0100012C166.44 1.35 167.25 3.1 166.03 5.53C165.7 6.18 164.38 6.61 165.31 7.68C166.07 8.55 167.13 8.44 168.09 8.28C169.51 8.04 170.64 7.3 171.13 5.86C171.67 4.28 171.26 2.89 170.06 1.79C168.44 0.290001 166.42 -0.0799988 164.36 0.0200012V0.0100012ZM73.4401 96.63C75.0301 97.71 76.1701 97.24 76.0601 95.88C75.8001 92.57 73.0701 96.25 71.8101 94.58C71.2401 93.82 70.0601 94.99 70.1401 95.78C70.4601 98.75 72.5701 96.34 73.4301 96.63H73.4401ZM92.2901 92.04C91.4301 89.06 88.7901 92.54 87.4801 90.67C87.2401 90.33 85.9601 91.33 86.0401 91.98C86.4301 95.33 89.4801 91.48 90.6201 93.54C90.8001 93.87 91.9501 92.79 92.2901 92.04Z" fill="white"/>
<path d="M58.1998 72.16C56.5598 79 51.8198 82.95 45.6798 85.6C43.6898 85.75 41.7798 85.49 39.6798 86.31C38.3998 86.81 35.5598 88.61 34.0098 85.75C34.0498 85.53 34.1798 85.43 34.3998 85.45C37.0098 85.94 37.2798 84.44 36.9598 82.44L36.9398 82.46C38.7298 82.45 38.6598 81.36 38.2998 80.11L38.3698 80.34L38.2798 80.12C40.9198 79.56 40.0398 77.42 40.0398 75.87C40.0998 60.27 40.0898 44.67 40.0398 29.07C40.0398 27.01 40.4498 26.18 42.7598 25.25C46.4798 23.76 50.1098 24.49 53.7498 24.03C57.2298 23.58 58.1398 24.98 58.1098 28.39C57.9698 42.99 58.1298 57.59 58.1698 72.19L58.1998 72.16Z" fill="#ED3356"/>
<path d="M148.84 24.76C152.91 22.32 157.52 23.11 161.91 22.59C163.77 22.66 166.07 21.73 166.06 25.14C165.99 40.38 166.01 55.63 166.06 70.87C166.06 72.79 165.41 73.56 163.45 73.51C159.95 73.41 156.44 73.34 152.96 73.54C150.35 73.69 149.5 72.84 149.53 70.18C149.7 55.44 149.69 40.7 149.8 25.96C149.8 25.11 149.54 24.86 148.84 24.76Z" fill="#ED3356"/>
<path d="M94.2301 64.57C93.8101 62.06 93.9401 59.54 94.1301 57.02C97.0601 55.37 98.3901 52.78 98.5401 49.5L98.5101 49.51C99.3001 49.08 101.58 50.95 100.77 48.05C100.9 47.87 101.08 47.81 101.29 47.89C104.76 48.63 108.25 47.76 111.73 48.05C110.92 49.31 110.26 50.61 110.41 52.2C110.99 58.29 109.02 64.61 112.08 70.47C112.18 71.6 112.12 72.91 113.93 72.13C114.14 72.13 114.29 72.23 114.38 72.42C110.46 74.65 106.15 72.89 102.09 73.6C100.9 73.21 99.7001 72.81 98.5101 72.42C98.6001 68.98 95.9401 67.04 94.2401 64.57H94.2301Z" fill="#ED3356"/>
<path d="M102.08 73.6C106.15 72.88 110.45 74.64 114.37 72.42C118.723 73.6867 120.903 72.07 120.91 67.57C120.91 61.45 120.98 55.33 120.87 49.21C120.83 47.17 121.33 46.22 123.55 46.41C126.52 46.67 129.56 46.03 132.49 46.8C137.2 48.04 140.39 51.74 140.67 56.74C140.95 61.72 141.03 66.73 140.83 71.71C140.43 81.54 134.58 88.77 124.46 92.2C122.23 92.95 119.9 93.42 117.58 93.88C116.82 94.03 115.78 94.63 115.18 93.64C114.52 92.54 115.39 91.79 116.09 91.08C116.7 90.46 117.3 89.84 117.9 89.21C117.93 91.66 119.6 91.85 121.07 90.93C123.52 89.4 126.08 88.68 128.89 88.5C129.05 88.49 129.19 88.25 129.34 88.11C128.9 87.25 127.59 87.05 127.71 85.84C133.29 84.5133 134.967 82.3433 132.74 79.33C137.1 81.42 137.43 79.3 136.59 76.17C136.32 75.17 136.31 74.49 137.35 74.08C139.11 73.39 138.99 71.91 139.1 70.38C139.42 65.9 138.47 61.51 138.31 57.06C138.86 56.71 139.08 56.22 138.87 55.59C138.84 55.5 138.69 55.46 138.59 55.39C138.48 55.93 138.37 56.47 138.26 57.02C135.86 49.94 133.91 48.21 128.09 48.04C122.93 47.88 122.54 48.25 122.53 53.38C122.52 64.02 122.54 74.66 122.48 85.3C122.48 86.22 122.7 88.47 121.62 87.84C119.35 86.53 119.31 89.32 117.95 89.17C119.76 85.47 120.99 81.67 120.98 77.45C120.98 75.06 120.39 74.18 117.91 74.29C113.95 74.48 109.98 74.37 106.01 74.33C104.67 74.31 103.26 74.53 102.08 73.61V73.6Z" fill="#ED3356"/>
<path d="M34.0101 85.74C35.5601 88.61 38.4001 86.8 39.6801 86.3C41.7801 85.49 43.6801 85.74 45.6801 85.59C33.9601 90.73 21.9501 91.32 10.1401 86.57C-0.169916 82.43 -3.35992 69.68 4.04008 62.7C9.43008 57.61 16.3601 56.61 23.5901 58.49C23.5901 59.26 23.3701 59.9 22.5201 60.11C18.5301 58.31 16.0701 59.1 14.3701 62.87C11.3601 69.55 11.9101 76.26 14.8701 82.72C17.1201 87.64 25.7201 89.75 31.4001 87.12C32.3001 86.71 33.1501 86.2 34.0201 85.74H34.0101ZM11.3301 85.02C11.9901 85.04 13.1401 84.23 13.2801 85.68C13.4401 87.31 14.5701 87.33 15.3001 86.71C16.3801 85.8 14.9801 85.1 14.4701 84.74C11.7701 82.84 11.4001 80.21 11.5301 77.19C11.7001 73.2 11.5301 69.2 11.5901 65.2C11.6101 64.02 10.8401 62.39 12.9901 62.03C13.2001 62 13.5001 61.03 13.3501 60.67C12.9501 59.71 11.9901 60.35 11.4001 60.37C6.77008 60.52 4.93008 64.82 2.82008 67.59C-0.109916 71.44 2.88008 79 7.06008 81.93C7.65008 82.35 8.89008 82.21 8.81008 83.51C8.70008 85.38 9.77008 85.56 11.3201 85.03L11.3301 85.02Z" fill="#ED3356"/>
<path d="M89.6101 48.07C89.6101 55.93 89.5401 63.78 89.6601 71.64C89.6901 73.76 89.0601 74.46 86.9301 74.39C82.4401 74.24 77.9501 74.26 73.4601 74.37C71.5301 74.42 70.8201 73.81 70.8301 71.83C70.8901 56.74 70.9001 41.65 70.8101 26.56C70.8001 24.4 71.7501 23.72 73.5801 23.52C78.2801 23.02 83.0001 22.58 87.6901 21.95C90.1401 21.62 89.6001 23.28 89.6101 24.51C89.6501 32.37 89.6301 40.22 89.6301 48.08C89.6301 48.08 89.6301 48.08 89.6201 48.08L89.6101 48.07ZM71.5801 49.34C71.5801 56.44 71.6301 63.55 71.5501 70.65C71.5301 72.7 72.1501 73.59 74.3101 73.52C78.0401 73.4 81.7901 73.41 85.5201 73.52C87.5401 73.58 88.0701 72.69 88.0701 70.84C88.0401 56.63 88.0701 42.43 88.0601 28.22C88.0601 27.28 88.3301 25.75 87.0601 25.75C84.1301 25.75 81.7301 23.79 78.7401 24.01C73.1101 24.42 71.5801 25.86 71.5801 31.4C71.5801 37.38 71.5801 43.36 71.5801 49.34Z" fill="#ED3356"/>
<path d="M58.2001 72.16C58.1501 57.56 58.0001 42.96 58.1401 28.36C58.1701 24.94 57.2601 23.55 53.7801 24C50.1401 24.47 46.5101 23.73 42.7901 25.22C40.4701 26.15 40.0601 26.98 40.0701 29.04C40.1101 44.64 40.1201 60.24 40.0701 75.84C40.0701 77.39 40.9501 79.54 38.3101 80.09C39.9501 73.71 39.1401 67.2 39.2101 60.74C39.3301 49.77 39.4201 38.8 39.1401 27.84C39.0601 24.49 40.2701 23.55 43.2201 23.33C47.9301 22.99 52.6301 22.44 57.3301 21.93C58.5601 21.8 59.5901 21.71 59.5401 23.44C59.1401 39.12 60.2701 54.82 58.8901 70.49C58.8401 71.06 58.4401 71.6 58.2101 72.15L58.2001 72.16Z" fill="#ED3356"/>
<path d="M148.84 24.76C149.53 24.86 149.8 25.11 149.8 25.96C149.69 40.7 149.7 55.44 149.53 70.18C149.5 72.84 150.35 73.68 152.96 73.54C156.45 73.34 159.96 73.41 163.45 73.51C165.41 73.57 166.06 72.8 166.06 70.87C166.01 55.63 166 40.38 166.06 25.14C166.07 21.73 163.77 22.66 161.91 22.59C162.89 22.4 163.87 22.22 164.85 22.02C166.5 21.69 167.39 22.04 167.38 24.05C167.31 40.04 167.31 56.04 167.35 72.03C167.35 73.86 166.65 74.39 164.91 74.36C160.41 74.28 155.91 74.23 151.42 74.38C149.26 74.45 148.69 73.69 148.71 71.61C148.81 55.99 148.81 40.37 148.84 24.76Z" fill="#ED3356"/>
<path d="M159.8 1.02002C158.07 8.93002 159.54 10.93 169.96 14.79H152.39C152.89 9.34002 151.05 2.33002 159.81 1.02002H159.8Z" fill="#ED3356"/>
<path d="M22.51 60.1C23.36 59.89 23.58 59.25 23.58 58.48C27.53 58.09 30.01 60.78 32 63.34C33.96 65.85 34.14 69.14 31.95 71.99C30.22 74.24 25.74 75 22 73.74C22.03 72.75 22.06 71.75 22.09 70.76L22.27 70.54C25.51 69.84 25.24 67.26 24.99 64.97C24.9 64.12 26.68 61.91 23.73 62.26C23.32 61.54 22.92 60.82 22.51 60.09V60.1Z" fill="#ED3356"/>
<path d="M64.07 91.43C63.95 91.45 63.82 91.49 63.7 91.49C56.68 91.64 58.17 91.88 58.04 86.17C57.99 83.93 58.15 81.68 58 79.44C57.86 77.39 58.58 76.13 61.12 75.46C61.12 78.9 61.12 82.18 61.12 85.46C61.12 86.55 61.24 87.15 62.6 87.86C64.58 88.9 65.33 84.55 67.62 87.38C68.61 88.6 71.48 87.76 73.46 86.44C74.1 86.02 75.69 88.29 77.42 87.75C74.1 90.19 70.36 88.34 66.84 88.62C64.57 88.8 64.03 89.53 64.06 91.43H64.07ZM60.1 90.04C60.92 89.86 61.66 90.27 62.16 89.45C62.23 89.33 62.05 88.87 61.95 88.85C61.18 88.74 60.54 88.95 60.1 90.04Z" fill="#ED3356"/>
<path d="M93.9799 84.14C91.8899 82.81 92.3299 81.08 93.1999 79.28C93.6599 78.33 94.3299 77.62 95.4799 77.71C96.5999 77.8 97.3499 78.57 97.5999 79.55C98.2699 82.15 98.3499 84.69 96.2199 86.82C93.9799 89.05 91.2199 88.7 88.5399 88.37C87.6499 88.26 88.0899 87.14 88.0199 86.45C88.0699 85.45 88.4999 84.8 89.5899 84.76C91.0199 84.4 92.6599 85.37 93.9599 84.1C94.3199 84.06 94.6899 84.03 95.0499 83.98C96.8199 83.74 97.1099 82.53 96.9999 81.04C96.9199 79.96 96.3099 79.45 95.2999 79.67C93.5299 80.06 94.2099 81.56 94.0699 82.67C94.0099 83.15 94.0199 83.64 93.9899 84.13L93.9799 84.14Z" fill="#ED3356"/>
<path d="M164.36 0.00999148C166.42 -0.0900085 168.44 0.279992 170.06 1.77999C171.25 2.87999 171.66 4.26999 171.13 5.84999C170.64 7.28999 169.51 8.02999 168.09 8.26999C167.12 8.42999 166.07 8.54999 165.31 7.66999C164.38 6.59999 165.7 6.16999 166.03 5.51999C167.25 3.08999 166.44 1.33999 164.36 -8.51834e-06V0.00999148Z" fill="#ED3356"/>
<path d="M64.07 91.43C64.04 89.53 64.58 88.81 66.85 88.62C70.37 88.34 74.11 90.19 77.43 87.75C77.77 87.49 78.12 87.24 78.46 86.98C79.53 87.69 81.51 85.25 81.73 87.5C81.87 88.92 80.15 90.15 78.24 90.02C77.62 89.98 76.99 90.01 76.38 90.09C75.66 90.19 75.4 90.77 75.26 91.4C71.53 91.4 67.8 91.42 64.07 91.43Z" fill="#ED3356"/>
<path d="M75.2598 91.41C75.3998 90.77 75.6498 90.2 76.3798 90.1C76.9898 90.02 77.6198 89.99 78.2398 90.03C80.1498 90.16 81.8698 88.93 81.7298 87.51C81.5098 85.26 79.5298 87.7 78.4598 86.99C81.7398 82.31 83.9198 81.21 87.3098 82.52C86.6398 84.25 83.6298 83.21 83.5698 85.67C83.3598 90.39 81.3198 91.8 75.2598 91.4V91.41Z" fill="#ED3356"/>
<path d="M73.4399 96.63C72.5799 96.33 70.4699 98.74 70.1499 95.78C70.0599 94.99 71.2399 93.82 71.8199 94.58C73.0699 96.25 75.8099 92.57 76.0699 95.88C76.1799 97.24 75.0399 97.72 73.4499 96.63H73.4399Z" fill="#ED3356"/>
<path d="M98.5399 49.5C98.3899 52.78 97.0599 55.37 94.1299 57.02C93.9599 53.55 95.6399 51.17 98.5399 49.5Z" fill="#ED3356"/>
<path d="M92.2902 92.04C91.9502 92.79 90.8002 93.86 90.6202 93.54C89.4702 91.49 86.4302 95.33 86.0402 91.98C85.9602 91.33 87.2502 90.33 87.4802 90.67C88.8002 92.54 91.4302 89.06 92.2902 92.04Z" fill="#ED3356"/>
<path d="M111.72 48.05C108.24 47.77 104.75 48.64 101.28 47.89C104.41 45.76 107.95 46.49 111.36 46.53C112.29 46.54 112.48 47.32 111.72 48.05Z" fill="#ED3356"/>
<path d="M94.23 64.57C95.93 67.04 98.59 68.98 98.5 72.42C95.19 70.83 94.64 67.74 94.23 64.57Z" fill="#ED3356"/>
<path d="M83.5698 85.67C83.6198 83.21 86.6398 84.25 87.3098 82.52C88.0698 83.27 88.8198 84.02 89.5798 84.77C88.4898 84.81 88.0598 85.46 88.0098 86.46C86.3298 87.32 85.3598 84.19 83.5798 85.67H83.5698Z" fill="#ED3356"/>
<path d="M23.73 62.27C26.68 61.92 24.89 64.13 24.99 64.98C25.25 67.27 25.52 69.85 22.27 70.55C23.76 67.97 24.54 65.26 23.73 62.27Z" fill="#ED3356"/>
<path d="M36.9702 82.42C37.2902 84.42 37.0202 85.92 34.4102 85.43C35.2602 84.43 36.1202 83.42 36.9702 82.42Z" fill="#ED3356"/>
<path d="M22.1001 70.77C22.0701 71.76 22.0401 72.76 22.0101 73.75C18.7301 72.65 20.3001 71.71 22.1001 70.77Z" fill="#ED3356"/>
<path d="M100.76 48.05C101.58 50.95 99.29 49.08 98.5 49.51C99.07 48.75 99.77 48.18 100.76 48.05Z" fill="#ED3356"/>
<path d="M38.3102 80.09C38.6702 81.34 38.7402 82.43 36.9502 82.44C37.4002 81.66 37.8602 80.87 38.3102 80.09Z" fill="#ED3356"/>
<path d="M113.92 72.12C112.11 72.9 112.17 71.59 112.07 70.46C112.69 71.01 113.3 71.57 113.92 72.12Z" fill="#ED3356"/>
<path d="M117.96 89.17C119.32 89.31 119.37 86.53 121.63 87.84C122.71 88.46 122.48 86.22 122.49 85.3C122.55 74.66 122.53 64.02 122.54 53.38C122.54 48.25 122.94 47.88 128.1 48.04C133.92 48.22 135.87 49.94 138.27 57.02L138.32 57.06C138.48 61.5 139.43 65.9 139.11 70.38C139 71.91 139.13 73.39 137.36 74.08C136.32 74.49 136.33 75.17 136.6 76.17C137.45 79.3 137.12 81.42 132.75 79.33C134.977 82.3367 133.3 84.5067 127.72 85.84C127.61 87.06 128.92 87.26 129.35 88.11C129.2 88.24 129.06 88.49 128.9 88.5C126.1 88.68 123.53 89.4 121.08 90.93C119.62 91.85 117.95 91.66 117.91 89.21L117.94 89.18L117.96 89.17Z" fill="#ED3356"/>
<path d="M138.27 57.01C138.38 56.47 138.49 55.93 138.6 55.38C138.7 55.44 138.85 55.49 138.88 55.58C139.09 56.21 138.87 56.7 138.32 57.05L138.27 57.01Z" fill="#ED3356"/>
<path d="M11.33 85.02C9.77995 85.55 8.70995 85.38 8.81995 83.5C8.89995 82.19 7.65996 82.33 7.06995 81.92C2.88996 78.99 -0.0900452 71.43 2.82995 67.58C4.93995 64.81 6.77995 60.52 11.41 60.36C12.01 60.34 12.97 59.7 13.36 60.66C13.51 61.02 13.21 61.99 13 62.02C10.86 62.38 11.62 64.01 11.6 65.19C11.54 69.19 11.71 73.19 11.54 77.18C11.41 80.21 11.77 82.83 14.48 84.73C14.99 85.09 16.39 85.79 15.31 86.7C14.57 87.32 13.44 87.3 13.29 85.67C13.15 84.23 12.01 85.04 11.34 85.01L11.33 85.02Z" fill="#ED3356"/>
<path d="M71.5798 49.34C71.5798 43.36 71.5798 37.38 71.5798 31.4C71.5798 25.86 73.1098 24.42 78.7398 24.01C81.7298 23.79 84.1298 25.76 87.0598 25.75C88.3198 25.75 88.0598 27.27 88.0598 28.22C88.0598 42.43 88.0398 56.63 88.0698 70.84C88.0698 72.69 87.5398 73.58 85.5198 73.52C81.7798 73.41 78.0398 73.4 74.3098 73.52C72.1498 73.59 71.5298 72.71 71.5498 70.65C71.6398 63.55 71.5798 56.44 71.5798 49.34Z" fill="#ED3356"/>
<path d="M60.1001 90.04C60.5401 88.95 61.1801 88.74 61.9501 88.85C62.0501 88.86 62.2401 89.32 62.1601 89.45C61.6601 90.27 60.9101 89.86 60.1001 90.04Z" fill="#ED3356"/>
<path d="M93.9802 84.14C94.0002 83.65 94.0002 83.16 94.0602 82.68C94.2002 81.57 93.5202 80.07 95.2902 79.68C96.3002 79.46 96.9102 79.97 96.9902 81.05C97.1002 82.54 96.8002 83.75 95.0402 83.99C94.6802 84.04 94.3102 84.07 93.9502 84.11L93.9902 84.15L93.9802 84.14Z" fill="#ED3356"/>
</g>
<defs>
<clipPath id="clip0_56_41">
<rect width="171.36" height="97.27" fill="white"/>
</clipPath>
</defs>
</svg>
