<svg width="116" height="47" viewBox="0 0 116 47" fill="none" xmlns="http://www.w3.org/2000/svg">
<g clip-path="url(#clip0_518_16911)">
<path d="M12.1973 44.0649V41.582H12.5199V43.7579H13.7397V44.0649H12.2012H12.1973Z" fill="white"/>
<path d="M13.9923 42.5421L13.9727 41.582H14.2442L14.2205 42.5421H13.9923Z" fill="white"/>
<path d="M15.1078 43.7588H16.4181V44.0657H14.7852V41.5829H16.3748V41.8898H15.1078V43.7549V43.7588ZM15.0763 42.6532H16.2331V42.9561H15.0763V42.6532ZM15.34 41.3822L15.7767 40.9219H16.1702L15.6311 41.3822H15.34Z" fill="white"/>
<path d="M16.9316 44.0649V41.582H17.2543V43.7579H18.4741V44.0649H16.9356H16.9316Z" fill="white"/>
<path d="M19.1644 43.7588H20.4747V44.0657H18.8418V41.5829H20.4314V41.8898H19.1644V43.7549V43.7588ZM19.1369 42.6532H20.2937V42.9561H19.1369V42.6532ZM19.4005 41.3822L19.8373 40.9219H20.2308L19.6917 41.3822H19.4005Z" fill="white"/>
<path d="M22.0126 44.0965C21.8395 44.0965 21.6781 44.0651 21.5326 44.0021C21.387 43.9391 21.2611 43.8526 21.1548 43.7345C21.0486 43.6204 20.962 43.4866 20.903 43.3332C20.844 43.1797 20.8125 43.0105 20.8125 42.8256C20.8125 42.6407 20.844 42.4715 20.903 42.318C20.962 42.1646 21.0486 42.0308 21.1548 41.9167C21.2611 41.8026 21.3909 41.7121 21.5365 41.6491C21.6821 41.5862 21.8434 41.5547 22.0205 41.5547C22.1975 41.5547 22.3628 41.5862 22.5084 41.6491C22.6579 41.7121 22.7799 41.8104 22.8861 41.9364L22.6854 42.1567C22.5949 42.0583 22.4926 41.9836 22.3864 41.9403C22.2762 41.8931 22.1621 41.8695 22.0323 41.8695C21.9024 41.8695 21.7844 41.8931 21.6742 41.9403C21.564 41.9875 21.4696 42.0544 21.387 42.137C21.3043 42.2197 21.2453 42.322 21.202 42.44C21.1588 42.558 21.1351 42.684 21.1351 42.8217C21.1351 42.9594 21.1588 43.0814 21.202 43.1994C21.2453 43.3175 21.3083 43.4198 21.387 43.5063C21.4657 43.5929 21.564 43.6598 21.6703 43.707C21.7804 43.7542 21.8985 43.7778 22.0283 43.7778C22.1464 43.7778 22.2644 43.7581 22.3746 43.7149C22.4848 43.6716 22.5871 43.6047 22.6815 43.5063L22.8664 43.7778C22.7563 43.8801 22.6264 43.9588 22.4769 44.0139C22.3274 44.069 22.1739 44.0926 22.0165 44.0926L22.0126 44.0965ZM22.5556 43.7345V42.8138H22.8625V43.7818L22.5556 43.7345Z" fill="white"/>
<path d="M23.1348 44.0649L24.1539 41.582H24.4726L25.4956 44.0649H25.1572L24.2483 41.7788H24.3781L23.4692 44.0649H23.1387H23.1348ZM23.5715 43.4471L23.6581 43.1638H24.9251L25.0195 43.4471H23.5715Z" fill="white"/>
<path d="M25.832 44.0649V41.582H26.0957L27.583 43.6242H27.4453V41.582H27.7679V44.0649H27.5043L26.017 42.0227H26.1547V44.0649H25.832Z" fill="white"/>
<path d="M29.4461 44.0965C29.273 44.0965 29.1156 44.0651 28.97 44.0021C28.8244 43.9391 28.6985 43.8526 28.5923 43.7345C28.4861 43.6165 28.4034 43.4866 28.3444 43.3332C28.2854 43.1797 28.2539 43.0105 28.2539 42.8256C28.2539 42.6407 28.2854 42.4715 28.3444 42.318C28.4034 42.1646 28.4861 42.0308 28.5962 41.9167C28.7025 41.8026 28.8284 41.7121 28.974 41.6491C29.1195 41.5862 29.2769 41.5547 29.4501 41.5547C29.6232 41.5547 29.7845 41.5862 29.9301 41.6531C30.0757 41.7199 30.2016 41.8144 30.3039 41.9403L30.0954 42.1646C30.0088 42.0662 29.9144 41.9914 29.8042 41.9442C29.698 41.897 29.5838 41.8695 29.4619 41.8695C29.3399 41.8695 29.2179 41.8931 29.1077 41.9403C29.0015 41.9875 28.9071 42.0544 28.8284 42.137C28.7497 42.2236 28.6867 42.322 28.6434 42.44C28.6002 42.558 28.5766 42.684 28.5766 42.8217C28.5766 42.9594 28.6002 43.0853 28.6434 43.2033C28.6867 43.3214 28.7497 43.4198 28.8284 43.5063C28.9071 43.5929 29.0015 43.6558 29.1077 43.707C29.2179 43.7542 29.332 43.7778 29.4619 43.7778C29.5917 43.7778 29.698 43.7542 29.8042 43.7031C29.9104 43.6558 30.0088 43.5811 30.0954 43.4788L30.3039 43.7031C30.2016 43.829 30.0757 43.9273 29.9301 43.9942C29.7845 44.0611 29.6232 44.0926 29.4461 44.0926V44.0965Z" fill="white"/>
<path d="M31.0844 43.7579H32.3946V44.0649H30.7617V41.582H32.3514V41.8889H31.0844V43.754V43.7579ZM31.0529 42.6523H32.2097V42.9553H31.0529V42.6523Z" fill="white"/>
<path d="M33.7852 44.0649V41.582H34.7334C34.9734 41.582 35.1859 41.6332 35.3669 41.7394C35.5479 41.8457 35.6935 41.9873 35.7958 42.1762C35.8981 42.365 35.9493 42.5775 35.9493 42.8254C35.9493 43.0733 35.8981 43.2897 35.7958 43.4746C35.6935 43.6596 35.5519 43.8052 35.3669 43.9114C35.182 44.0137 34.9734 44.0688 34.7334 44.0688H33.7852V44.0649ZM34.1078 43.7579H34.7138C34.8987 43.7579 35.06 43.7186 35.1977 43.6399C35.3354 43.5612 35.4377 43.451 35.5125 43.3133C35.5873 43.1717 35.6266 43.0103 35.6266 42.8254C35.6266 42.6405 35.5873 42.4752 35.5125 42.3375C35.4377 42.1998 35.3315 42.0896 35.1977 42.0109C35.06 41.9322 34.8987 41.8929 34.7138 41.8929H34.1078V43.7579Z" fill="white"/>
<path d="M36.7641 43.7579H38.0743V44.0649H36.4414V41.582H38.031V41.8889H36.7641V43.754V43.7579ZM36.7326 42.6523H37.8894V42.9553H36.7326V42.6523Z" fill="white"/>
<path d="M39.459 44.0649V41.582H39.7816V43.7579H41.0014V44.0649H39.4629H39.459Z" fill="white"/>
<path d="M41.2521 42.5421L41.2324 41.582H41.5039L41.4803 42.5421H41.2521Z" fill="white"/>
<path d="M41.5586 44.0649L42.5777 41.582H42.8964L43.9194 44.0649H43.5811L42.6721 41.7788H42.802L41.893 44.0649H41.5625H41.5586ZM41.9914 43.4471L42.078 43.1638H43.345L43.4394 43.4471H41.9914Z" fill="white"/>
<path d="M44.2559 44.0649V41.582H45.1333C45.33 41.582 45.4992 41.6174 45.637 41.6843C45.7747 41.7512 45.8848 41.8535 45.9596 41.9834C46.0344 42.1132 46.0737 42.2667 46.0737 42.4477C46.0737 42.6287 46.0383 42.7821 45.9596 42.912C45.8848 43.0418 45.7786 43.1402 45.637 43.2071C45.4992 43.274 45.33 43.3094 45.1333 43.3094H44.4329L44.5785 43.1441V44.0649H44.2559ZM44.5746 43.1835L44.429 43.0103H45.1215C45.3261 43.0103 45.4835 42.9631 45.5897 42.8648C45.696 42.7664 45.7471 42.6287 45.7471 42.4516C45.7471 42.2745 45.696 42.1368 45.5897 42.0385C45.4835 41.9401 45.3261 41.8929 45.1215 41.8929H44.429L44.5746 41.7158V43.1835ZM45.7589 44.0649L45.1884 43.1638H45.5307L46.1091 44.0649H45.7589Z" fill="white"/>
<path d="M47.0095 44.0649V41.8889H46.2383V41.582H48.0994V41.8889H47.3282V44.0649H47.0095Z" fill="white"/>
<path d="M48.4473 44.0649V41.582H48.7699V44.0649H48.4473Z" fill="white"/>
<path d="M50.1 44.0965C49.9269 44.0965 49.7655 44.069 49.6081 44.01C49.4508 43.9509 49.3288 43.8762 49.2383 43.7857L49.3563 43.5103C49.4429 43.5929 49.5531 43.6598 49.6829 43.7149C49.8167 43.7699 49.9544 43.7975 50.0961 43.7975C50.2259 43.7975 50.3321 43.7817 50.4148 43.7463C50.4974 43.7149 50.5564 43.6676 50.5958 43.6086C50.6351 43.5496 50.6548 43.4866 50.6548 43.4119C50.6548 43.3253 50.6312 43.2584 50.58 43.2073C50.5289 43.1561 50.4659 43.1128 50.3833 43.0814C50.3007 43.0499 50.2141 43.0223 50.1197 42.9987C50.0252 42.9751 49.9269 42.9476 49.8285 42.9161C49.7301 42.8846 49.6436 42.8453 49.5609 42.7941C49.4783 42.743 49.4153 42.6761 49.3642 42.5935C49.317 42.5108 49.2894 42.4007 49.2894 42.2669C49.2894 42.1331 49.3209 42.0229 49.3799 41.9128C49.439 41.8026 49.5373 41.7199 49.6632 41.6531C49.7891 41.5862 49.9544 41.5547 50.1511 41.5547C50.281 41.5547 50.4108 41.5744 50.5407 41.6098C50.6705 41.6491 50.7807 41.7003 50.8751 41.775L50.7689 42.0583C50.6705 41.9875 50.5722 41.9364 50.462 41.9049C50.3557 41.8734 50.2495 41.8577 50.1511 41.8577C50.0252 41.8577 49.919 41.8734 49.8403 41.9128C49.7577 41.9482 49.6986 41.9954 49.6632 42.0544C49.6278 42.1134 49.6081 42.1803 49.6081 42.2551C49.6081 42.3416 49.6318 42.4125 49.6829 42.4636C49.7341 42.5148 49.797 42.558 49.8796 42.5895C49.9623 42.621 50.0488 42.6485 50.1433 42.6722C50.2416 42.6958 50.3361 42.7233 50.4344 42.7548C50.5328 42.7863 50.6194 42.8256 50.702 42.8768C50.7846 42.9279 50.8476 42.9909 50.8987 43.0735C50.946 43.1561 50.9735 43.2624 50.9735 43.3922C50.9735 43.5221 50.942 43.6322 50.8791 43.7424C50.8161 43.8486 50.7217 43.9352 50.5918 44.0021C50.462 44.069 50.2967 44.1005 50.1 44.1005V44.0965Z" fill="white"/>
<path d="M51.1035 44.0649L52.1226 41.582H52.4413L53.4644 44.0649H53.126L52.217 41.7788H52.3469L51.438 44.0649H51.1075H51.1035ZM51.5363 43.4471L51.6229 43.1638H52.8899L52.9843 43.4471H51.5363Z" fill="white"/>
<path d="M53.793 44.0649V41.582H54.0566L55.5439 43.6242H55.4062V41.582H55.7289V44.0649H55.4652L53.9779 42.0227H54.1156V44.0649H53.793Z" fill="white"/>
<path d="M56.0625 44.0649L57.0816 41.582H57.4003L58.4233 44.0649H58.085L57.176 41.7788H57.3059L56.3969 44.0649H56.0664H56.0625ZM56.4953 43.4471L56.5819 43.1638H57.8489L57.9433 43.4471H56.4953Z" fill="white"/>
<path d="M59.0876 44.0649V41.8889H58.3164V41.582H60.1775V41.8889H59.4063V44.0649H59.0876Z" fill="white"/>
<path d="M61.3965 44.0649V41.582H61.6601L62.6713 43.4589H62.5297L63.5252 41.582H63.7888V44.0649H63.4819V42.1172H63.5527L62.6674 43.7619H62.5179L61.6247 42.1172H61.7034V44.0649H61.3965Z" fill="white"/>
<path d="M64.125 44.0649L65.1441 41.582H65.4628L66.4858 44.0649H66.1475L65.2385 41.7788H65.3684L64.4595 44.0649H64.1289H64.125ZM64.5618 43.4471L64.6483 43.1638H65.9153L66.0097 43.4471H64.5618Z" fill="white"/>
<path d="M66.8203 44.0649V41.582H67.6978C67.8945 41.582 68.0637 41.6174 68.2014 41.6843C68.3391 41.7512 68.4493 41.8535 68.524 41.9834C68.5988 42.1132 68.6382 42.2667 68.6382 42.4477C68.6382 42.6287 68.5988 42.7821 68.524 42.912C68.4493 43.0418 68.3431 43.1402 68.2014 43.2071C68.0637 43.274 67.8945 43.3094 67.6978 43.3094H66.9974L67.143 43.1441V44.0649H66.8203ZM67.143 43.1835L66.9974 43.0103H67.6899C67.8945 43.0103 68.0519 42.9631 68.1581 42.8648C68.2644 42.7664 68.3155 42.6287 68.3155 42.4516C68.3155 42.2745 68.2644 42.1368 68.1581 42.0385C68.0519 41.9401 67.8945 41.8929 67.6899 41.8929H66.9974L67.143 41.7158V43.1835ZM68.3234 44.0649L67.7528 43.1638H68.0952L68.6736 44.0649H68.3234Z" fill="white"/>
<path d="M70.1728 44.0965C69.9996 44.0965 69.8422 44.065 69.6967 44.002C69.5511 43.9391 69.4212 43.8486 69.315 43.7345C69.2087 43.6204 69.1222 43.4866 69.0632 43.3331C69.0041 43.1797 68.9727 43.0105 68.9727 42.8295C68.9727 42.6485 69.0041 42.4793 69.0632 42.3258C69.1222 42.1724 69.2087 42.0386 69.315 41.9245C69.4212 41.8104 69.5471 41.7199 69.6927 41.6569C69.8383 41.594 69.9996 41.5625 70.1728 41.5625C70.3459 41.5625 70.5033 41.594 70.6489 41.6569C70.7944 41.7199 70.9204 41.8065 71.0266 41.9245C71.1368 42.0386 71.2194 42.1724 71.2784 42.3258C71.3374 42.4793 71.365 42.6485 71.365 42.8334C71.365 43.0184 71.3335 43.1875 71.2784 43.341C71.2194 43.4945 71.1368 43.6282 71.0266 43.7423C70.9204 43.8565 70.7905 43.947 70.6489 44.0099C70.5033 44.0729 70.3459 44.1043 70.1728 44.1043V44.0965ZM70.1728 43.7778C70.2987 43.7778 70.4128 43.7541 70.519 43.7069C70.6252 43.6597 70.7157 43.5928 70.7944 43.5063C70.8731 43.4197 70.9322 43.3174 70.9794 43.2033C71.0266 43.0892 71.0463 42.9593 71.0463 42.8256C71.0463 42.6918 71.0227 42.5619 70.9794 42.4439C70.9361 42.3298 70.8731 42.2275 70.7944 42.1409C70.7157 42.0543 70.6252 41.9875 70.519 41.9402C70.4128 41.893 70.2987 41.8694 70.1728 41.8694C70.0468 41.8694 69.9288 41.893 69.8226 41.9402C69.7163 41.9875 69.6219 42.0543 69.5432 42.1409C69.4645 42.2275 69.4015 42.3298 69.3583 42.4439C69.315 42.558 69.2914 42.6878 69.2914 42.8256C69.2914 42.9633 69.315 43.0892 69.3583 43.2033C69.4015 43.3174 69.4645 43.4197 69.5432 43.5063C69.6219 43.5928 69.7163 43.6597 69.8226 43.7069C69.9288 43.7541 70.0429 43.7778 70.1728 43.7778Z" fill="white"/>
<path d="M72.8602 44.0965C72.6871 44.0965 72.5297 44.0651 72.3841 44.0021C72.2385 43.9391 72.1126 43.8526 72.0064 43.7345C71.9001 43.6165 71.8175 43.4866 71.7585 43.3332C71.6995 43.1797 71.668 43.0105 71.668 42.8256C71.668 42.6407 71.6995 42.4715 71.7585 42.318C71.8175 42.1646 71.9001 42.0308 72.0103 41.9167C72.1165 41.8026 72.2424 41.7121 72.388 41.6491C72.5336 41.5862 72.691 41.5547 72.8641 41.5547C73.0373 41.5547 73.1986 41.5862 73.3442 41.6531C73.4898 41.7199 73.6157 41.8144 73.718 41.9403L73.5094 42.1646C73.4229 42.0662 73.3284 41.9914 73.2183 41.9442C73.112 41.897 72.9979 41.8695 72.8759 41.8695C72.754 41.8695 72.632 41.8931 72.5218 41.9403C72.4156 41.9875 72.3211 42.0544 72.2424 42.137C72.1637 42.2236 72.1008 42.322 72.0575 42.44C72.0142 42.558 71.9906 42.684 71.9906 42.8217C71.9906 42.9594 72.0142 43.0853 72.0575 43.2033C72.1008 43.3214 72.1637 43.4198 72.2424 43.5063C72.3211 43.5929 72.4156 43.6558 72.5218 43.707C72.632 43.7542 72.7461 43.7778 72.8759 43.7778C73.0058 43.7778 73.112 43.7542 73.2183 43.7031C73.3245 43.6558 73.4229 43.5811 73.5094 43.4788L73.718 43.7031C73.6157 43.829 73.4898 43.9273 73.3442 43.9942C73.1986 44.0611 73.0373 44.0926 72.8602 44.0926V44.0965Z" fill="white"/>
<path d="M73.7812 44.0649L74.8003 41.582H75.1191L76.1421 44.0649H75.8037L74.8948 41.7788H75.0246L74.1157 44.0649H73.7852H73.7812ZM74.218 43.4471L74.3046 43.1638H75.5716L75.666 43.4471H74.218Z" fill="white"/>
<path d="M76.4766 44.0649V41.582H76.7992V44.0649H76.4766Z" fill="white"/>
<path d="M77.4766 44.0649V41.582H77.7402L79.2275 43.6242H79.0898V41.582H79.4125V44.0649H79.1488L77.6615 42.0227H77.7992V44.0649H77.4766Z" fill="white"/>
<path d="M81.2738 43.7579H82.5841V44.0649H80.9512V41.582H82.5408V41.8889H81.2738V43.754V43.7579ZM81.2463 42.6523H82.4031V42.9553H81.2463V42.6523Z" fill="white"/>
<path d="M83.1055 44.0649V41.582H83.3691L84.8564 43.6242H84.7187V41.582H85.0414V44.0649H84.7777L83.2904 42.0227H83.4281V44.0649H83.1055Z" fill="white"/>
<path d="M86.5781 44.0649V41.582H86.8418L87.853 43.4589H87.7113L88.7068 41.582H88.9704V44.0649H88.6635V42.1172H88.7344L87.849 43.7619H87.6995L86.8063 42.1172H86.885V44.0649H86.5781Z" fill="white"/>
<path d="M90.6669 44.0965C90.4938 44.0965 90.3364 44.065 90.1908 44.002C90.0452 43.9391 89.9154 43.8486 89.8091 43.7345C89.7029 43.6204 89.6163 43.4866 89.5573 43.3331C89.4983 43.1797 89.4668 43.0105 89.4668 42.8295C89.4668 42.6485 89.4983 42.4793 89.5573 42.3258C89.6163 42.1724 89.7029 42.0386 89.8091 41.9245C89.9154 41.8104 90.0413 41.7199 90.1869 41.6569C90.3324 41.594 90.4938 41.5625 90.6669 41.5625C90.84 41.5625 90.9974 41.594 91.143 41.6569C91.2886 41.7199 91.4145 41.8065 91.5207 41.9245C91.6309 42.0386 91.7135 42.1724 91.7726 42.3258C91.8316 42.4793 91.8591 42.6485 91.8591 42.8334C91.8591 43.0184 91.8276 43.1875 91.7726 43.341C91.7135 43.4945 91.6309 43.6282 91.5207 43.7423C91.4145 43.8565 91.2846 43.947 91.143 44.0099C90.9974 44.0729 90.84 44.1043 90.6669 44.1043V44.0965ZM90.6669 43.7778C90.7928 43.7778 90.9069 43.7541 91.0132 43.7069C91.1194 43.6597 91.2099 43.5928 91.2886 43.5063C91.3673 43.4197 91.4263 43.3174 91.4735 43.2033C91.5207 43.0892 91.5404 42.9593 91.5404 42.8256C91.5404 42.6918 91.5168 42.5619 91.4735 42.4439C91.4302 42.3298 91.3673 42.2275 91.2886 42.1409C91.2099 42.0543 91.1194 41.9875 91.0132 41.9402C90.9069 41.893 90.7928 41.8694 90.6669 41.8694C90.541 41.8694 90.4229 41.893 90.3167 41.9402C90.2105 41.9875 90.116 42.0543 90.0373 42.1409C89.9586 42.2275 89.8957 42.3298 89.8524 42.4439C89.8091 42.558 89.7855 42.6878 89.7855 42.8256C89.7855 42.9633 89.8091 43.0892 89.8524 43.2033C89.8957 43.3174 89.9586 43.4197 90.0373 43.5063C90.116 43.5928 90.2105 43.6597 90.3167 43.7069C90.4229 43.7541 90.537 43.7778 90.6669 43.7778Z" fill="white"/>
<path d="M92.7634 44.0649V41.8889H91.9922V41.582H93.8533V41.8889H93.0821V44.0649H92.7634Z" fill="white"/>
<path d="M94.8305 44.0965C94.6573 44.0965 94.496 44.069 94.3386 44.01C94.1812 43.9509 94.0592 43.8762 93.9688 43.7857L94.0868 43.5103C94.1734 43.5929 94.2835 43.6598 94.4134 43.7149C94.5432 43.7699 94.6849 43.7975 94.8265 43.7975C94.9564 43.7975 95.0626 43.7817 95.1452 43.7463C95.2279 43.7149 95.2869 43.6676 95.3262 43.6086C95.3656 43.5496 95.3853 43.4866 95.3853 43.4119C95.3853 43.3253 95.3616 43.2584 95.3105 43.2073C95.2593 43.1561 95.1964 43.1128 95.1138 43.0814C95.0311 43.0499 94.9446 43.0223 94.8501 42.9987C94.7557 42.9751 94.6573 42.9476 94.559 42.9161C94.4606 42.8846 94.374 42.8453 94.2914 42.7941C94.2088 42.743 94.1458 42.6761 94.0986 42.5935C94.0514 42.5108 94.0238 42.4007 94.0238 42.2669C94.0238 42.1331 94.0553 42.0229 94.1143 41.9128C94.1734 41.8026 94.2678 41.7199 94.3976 41.6531C94.5235 41.5862 94.6888 41.5547 94.8855 41.5547C95.0154 41.5547 95.1452 41.5744 95.2751 41.6098C95.4049 41.6491 95.5151 41.7003 95.6095 41.775L95.5033 42.0583C95.4049 41.9875 95.3066 41.9364 95.1964 41.9049C95.0862 41.8734 94.9839 41.8577 94.8855 41.8577C94.7596 41.8577 94.6534 41.8734 94.5747 41.9128C94.4921 41.9482 94.433 41.9954 94.3976 42.0544C94.3583 42.1134 94.3425 42.1803 94.3425 42.2551C94.3425 42.3416 94.3662 42.4125 94.4173 42.4636C94.4685 42.5148 94.5314 42.558 94.614 42.5895C94.6967 42.621 94.7832 42.6485 94.8777 42.6722C94.976 42.6958 95.0705 42.7233 95.1688 42.7548C95.2672 42.7863 95.3538 42.8256 95.4364 42.8768C95.5151 42.9279 95.582 42.9909 95.6292 43.0735C95.6764 43.1561 95.704 43.2624 95.704 43.3922C95.704 43.5221 95.6725 43.6322 95.6095 43.7424C95.5466 43.8486 95.4521 43.9352 95.3223 44.0021C95.1924 44.069 95.0272 44.1005 94.8305 44.1005V44.0965Z" fill="white"/>
<g filter="url(#filter0_d_518_16911)">
<path d="M17.3306 1.71555L2.28018 32.9888C1.31223 34.9995 2.77596 37.3328 5.01089 37.3328H97.9179C99.0826 37.3328 100.145 36.6639 100.649 35.6172L115.699 4.34395C116.667 2.3333 115.203 0 112.968 0H20.0613C18.8966 0 17.8342 0.668905 17.3306 1.71555Z" fill="white"/>
</g>
<mask id="mask0_518_16911" style="mask-type:luminance" maskUnits="userSpaceOnUse" x="1" y="0" width="33" height="38">
<path d="M17.3724 1.63685L2.18824 33.1856C1.26358 35.1057 2.66435 37.3328 4.79304 37.3328H15.409L33.375 0H19.9772C18.8676 0 17.8524 0.637427 17.3724 1.63685Z" fill="white"/>
</mask>
<g mask="url(#mask0_518_16911)">
<path d="M28.4152 6.64971L29.6231 4.13147L30.8311 1.61718L31.6102 0H31.3544L30.7249 1.31027L29.5169 3.8285L28.3089 6.3428L27.0026 9.06564L25.893 11.3753L24.685 13.8896L23.4771 16.4039L22.2691 18.9182L21.0612 21.4365L19.8532 23.9507L18.6452 26.465L17.335 29.1879L16.2254 31.4976L14.919 34.2204L13.8094 36.5262L13.4238 37.3328H13.6757L13.9157 36.8331L15.2259 34.1102L16.3355 31.8006L17.6419 29.0816L18.7515 26.772L19.9594 24.2577L21.1674 21.7394L22.3754 19.2251L23.5833 16.7108L24.7913 14.1926L25.9993 11.6783L27.3056 8.95546L28.4152 6.64577V6.64971Z" fill="#00A19A"/>
<path d="M12.3216 35.81L13.4312 33.5004L14.7375 30.7815L15.8471 28.4718L17.1535 25.7489L18.3614 23.2346L19.471 20.9249L20.7774 18.2021L21.887 15.8924L23.1933 13.1696L24.3029 10.8638L25.5108 8.34558L26.8172 5.62668L27.9268 3.31698L29.237 0.594145L29.5203 0H29.2685L28.9301 0.700383L27.8205 3.01007L26.5142 5.73291L25.4046 8.0426L24.1966 10.5569L22.8903 13.2797L21.7807 15.5894L20.4744 18.3083L19.3648 20.618L18.0545 23.3409L16.8466 25.8552L15.7409 28.1649L14.4306 30.8877L13.321 33.1974L12.0147 35.9163L11.334 37.3328H11.5897L12.3216 35.81Z" fill="#00A19A"/>
<path d="M2.59926 36.8331L3.9056 34.1102L5.01519 31.8006L6.32153 29.0816L7.43112 26.772L8.63909 24.2577L9.84705 21.7394L11.055 19.2251L12.2669 16.7108L13.4749 14.1926L14.6828 11.6783L15.9892 8.95546L17.0988 6.64577V6.64971L18.3067 4.13147L19.5147 1.61718L20.2898 0H20.038L19.4085 1.31027L18.2005 3.8285L16.9925 6.3428L15.6823 9.06564L14.5727 11.3753L13.3647 13.8896L12.1567 16.4039L10.9488 18.9182L9.74081 21.4365L8.53285 23.9507L7.32488 26.465L6.01855 29.1879L4.90895 31.4976L3.60262 34.2204L2.49303 36.5262L2.10742 37.3328H2.35925L2.59926 36.8331Z" fill="#00A19A"/>
<path d="M0.995403 35.81L2.105 33.5004L3.41133 30.7815L4.52093 28.4718L5.8312 25.7489L7.03916 23.2346L8.14482 20.9249L9.45509 18.2021L10.5647 15.8924L11.871 13.1696L12.9806 10.8638L14.1886 8.34558L15.4949 5.62668L16.6045 3.31698L17.9108 0.594145L18.1981 0H17.9423L17.6079 0.700383L16.4983 3.01007L15.188 5.73291L14.0823 8.0426L12.8744 10.5569L11.5641 13.2797L10.4545 15.5894L9.14818 18.3083L8.03858 20.618L6.73225 23.3409L5.52429 25.8552L4.41469 28.1649L3.10836 30.8877L1.99876 33.1974L0.692428 35.9163L0.0117188 37.3328H0.263542L0.995403 35.81Z" fill="#00A19A"/>
<path d="M13.4982 36.6285L13.5966 36.4239L12.7428 36.0147L13.0418 35.389L13.2622 35.4953L13.0615 35.9123L13.695 36.2153L14.1947 35.1726L13.3448 34.7634L13.6478 34.1299L13.8681 34.2362L13.6674 34.6532L14.297 34.9601L14.7023 34.1142H14.7062L14.8046 33.9096L13.9507 33.4964L14.2498 32.8708L14.4701 32.977L14.2694 33.3981L14.9029 33.701L15.4026 32.6544L14.5527 32.2452L14.8557 31.6156L15.0761 31.7219L14.8754 32.1389L15.505 32.4419L15.9102 31.5959L15.9142 31.5999L16.0125 31.3913L15.1587 30.9821L15.4617 30.3565L15.6781 30.4627L15.4774 30.8798L16.1109 31.1867L16.6106 30.1401L15.7607 29.7309L16.0637 29.0974L16.284 29.2036L16.0834 29.6246L16.7129 29.9276L17.1182 29.0816H17.1221L17.2205 28.877L16.3667 28.4678L16.6696 27.8422L16.886 27.9484L16.6854 28.3655L17.3189 28.6685L17.8186 27.6258L16.9687 27.2166L17.2716 26.5831L17.492 26.6893L17.2913 27.1064L17.9209 27.4133L18.3262 26.5673H18.3301L18.4285 26.3627L17.5746 25.9535L17.8776 25.324L18.0979 25.4302L17.8933 25.8512L18.5268 26.1542L19.0265 25.1115L18.1766 24.7023L18.4796 24.0688L18.7 24.175L18.4993 24.5921L19.1288 24.8951L19.5381 24.0531L19.6364 23.8445L18.7826 23.4353L19.0856 22.8097L19.3059 22.9159L19.1013 23.3369L19.7348 23.6399L20.2345 22.5933L19.3846 22.1841L19.6876 21.5545L19.9079 21.6568L19.7073 22.0778L20.3368 22.3808L20.746 21.5348L20.8444 21.3302L19.9906 20.921L20.2935 20.2954L20.5139 20.4016L20.3093 20.8187L20.9428 21.1217L21.4425 20.079L20.5926 19.6698L20.8955 19.0363L21.1159 19.1425L20.9152 19.5635L21.5487 19.8665L21.954 19.0205L22.0524 18.8159L21.1985 18.4067L21.5015 17.7811L21.7218 17.8834L21.5172 18.3044L22.1507 18.6074L22.6544 17.5647L21.8005 17.1555L22.1035 16.522L22.3239 16.6282L22.1232 17.0453L22.7567 17.3483L23.162 16.5062L23.2603 16.3016L22.4065 15.8885L22.7095 15.2628L22.9298 15.3691L22.7291 15.7901L23.3587 16.0931L23.8623 15.0464L23.0085 14.6372L23.3115 14.0077L23.5318 14.11L23.3311 14.531L23.9646 14.834L24.3699 13.988V13.9919L24.4683 13.7834L23.6144 13.3742L23.9174 12.7486L24.1378 12.8548L23.9371 13.2719L24.5667 13.5788L25.0703 12.5321L24.2165 12.1229L24.5194 11.4894L24.7398 11.5957L24.5391 12.0167L25.1726 12.3197L25.5779 11.4737L25.6762 11.2691L24.8263 10.8599L25.1254 10.2343L25.3457 10.3405L25.1451 10.7576L25.7746 11.0605L26.2783 10.0178L25.4244 9.60863L25.7313 8.97514L25.9477 9.08138L25.7471 9.49846L26.3806 9.80537L26.7858 8.9594L26.8842 8.75479L26.0343 8.34558L26.3334 7.71602L26.5537 7.82226L26.353 8.24328L26.9826 8.54625L27.4862 7.50354L26.6324 7.09433L26.9393 6.46084L27.1557 6.56708L26.955 6.98416L27.5885 7.28713L27.9938 6.4451L28.0922 6.23656L27.2423 5.82735L27.5413 5.20172L27.7617 5.30796L27.561 5.72898L28.1905 6.03195L28.6942 4.98531L27.8404 4.5761L28.1473 3.94261L28.3637 4.04885L28.163 4.46986L28.7965 4.77284L29.2018 3.92687L29.3001 3.72226L28.4502 3.31305L28.7493 2.68743L28.9696 2.79366L28.769 3.21075L29.3985 3.51372L29.9022 2.47102L29.0483 2.0618L29.3552 1.42831L29.5756 1.53455L29.371 1.95556L30.0045 2.25854L30.4097 1.41257L30.512 1.20796L29.6582 0.798752L29.9572 0.173128L30.1776 0.275432L29.9769 0.696449L30.6065 0.999423L31.0865 0H30.6773L30.8032 0.0629558L30.5002 0.696449L30.2799 0.590211L30.4845 0.169194L30.1304 0H29.788L29.3513 0.90499L30.2051 1.3142L29.8982 1.95163L29.6779 1.84539L29.8785 1.42831L29.2451 1.12533L28.7453 2.16804L29.5952 2.57725L29.2923 3.21075L29.0719 3.10451L29.2765 2.68349L28.643 2.38052L28.1433 3.41929L28.9972 3.8285L28.6903 4.46593L28.4699 4.36362L28.6706 3.94261L28.0371 3.63963L27.5374 4.68234L28.3873 5.09155L28.0843 5.72504L27.864 5.61881L28.0646 5.20172L27.4351 4.89875L26.9354 5.93358L27.7892 6.3428L27.4823 6.98416L27.2619 6.87792L27.4626 6.4569L26.8291 6.15393L26.3294 7.20057L27.1793 7.60978L26.8763 8.23934L26.656 8.13704L26.8567 7.71602L26.2271 7.41305L25.7274 8.45182L26.5812 8.86103L26.2743 9.49846L26.054 9.39222L26.2547 8.97514L25.6212 8.67216L25.1215 9.71487L25.9714 10.1241L25.6684 10.7576L25.448 10.6513L25.6487 10.2303L25.0191 9.92734L24.5194 10.9661L25.3733 11.3753L25.0664 12.0128L24.846 11.9105L25.0467 11.4894L24.4132 11.1865L23.9135 12.2292L24.7634 12.6384L24.4604 13.2719L24.2401 13.1656L24.4407 12.7486L23.8112 12.4456L23.3115 13.4804L24.1614 13.8896L23.8545 14.531L23.6381 14.4247L23.8387 14.0037L23.2052 13.7008L22.7055 14.7474L23.5554 15.1566L23.2525 15.7862L23.0321 15.6839L23.2328 15.2628L22.6032 14.9599L22.1035 15.9986L22.9534 16.4079L22.6465 17.0453L22.4301 16.939L22.6308 16.522L21.9973 16.2151L21.4976 17.2617L22.3475 17.6709L22.0445 18.3044L21.8241 18.1982L22.0248 17.7771L21.3953 17.4742L20.8955 18.5129L21.7454 18.9222L21.4385 19.5596L21.2182 19.4533L21.4228 19.0363L20.7893 18.7333L20.2896 19.776L21.1395 20.1852L20.8365 20.8187L20.6162 20.7125L20.8168 20.2954L20.1873 19.9885L19.6876 21.0272L20.5375 21.4365L20.2306 22.0778L20.0102 21.9716L20.2148 21.5506L19.5813 21.2476L19.0777 22.2942L19.9315 22.6995L19.6286 23.333L19.4082 23.2268L19.6089 22.8097L18.9754 22.5067L18.4796 23.5415L19.3295 23.9507L19.0226 24.5921L18.8023 24.4859L19.0069 24.0649L18.3734 23.7619L17.8697 24.8085L18.7236 25.2177L18.4206 25.8512L18.2002 25.745L18.4009 25.324L17.7674 25.021L17.2716 26.0598L18.1216 26.469L17.8146 27.1064L17.5943 27.0002L17.795 26.5831L17.1654 26.2801L16.6618 27.3228L17.5156 27.732L17.2126 28.3655L16.9923 28.2593L17.193 27.8383L16.5595 27.5353L16.0637 28.5741L16.9136 28.9833L16.6067 29.6207L16.3863 29.5184L16.587 29.0974L15.9574 28.7944L15.4538 29.8371L16.3076 30.2463L16.0047 30.8798L15.7843 30.7736L15.985 30.3565L15.3515 30.0535L14.8557 31.0884L15.7056 31.4976L15.3987 32.1389L15.1784 32.0327L15.379 31.6117L14.7495 31.3087L14.2458 32.3554L15.0997 32.7646L14.7928 33.3941L14.5764 33.2918L14.777 32.8708L14.1435 32.5678L13.6478 33.6066L14.4977 34.0158L14.1907 34.6532L13.9704 34.547L14.1711 34.1299L13.5415 33.8269L13.0379 34.8696L13.8917 35.2789L13.5848 35.9123L13.3684 35.8061L13.5691 35.3851L12.9356 35.0821L12.4359 36.1209L13.2897 36.5301L12.9828 37.1675L12.7624 37.0613L12.9631 36.6442L12.3336 36.3412L11.8535 37.3328H12.2509L12.1368 37.2777L12.4398 36.6442L12.6601 36.7505L12.4595 37.1715L12.7979 37.3328H13.1559L13.4943 36.6285H13.4982Z" fill="#00A19A"/>
<path d="M2.17204 36.6285L2.2704 36.4239L1.4205 36.0147L1.71954 35.389L1.93989 35.4953L1.73921 35.9123L2.36877 36.2153L2.87242 35.1726L2.01858 34.7634L2.32549 34.1299L2.5419 34.2362L2.34123 34.6532L2.97472 34.9601L3.38 34.1142L3.47837 33.9096L2.62847 33.4964L2.92751 32.8708L3.14785 32.977L2.94718 33.3981L3.57674 33.701L4.08038 32.6544L3.22655 32.2452L3.53345 31.6156L3.74987 31.7219L3.54919 32.1389L4.18269 32.4419L4.58797 31.5959V31.5999L4.68633 31.3913L3.83643 30.9821L4.13547 30.3565L4.35582 30.4627L4.15514 30.8798L4.7847 31.1867L5.28835 30.1401L4.43451 29.7309L4.74142 29.0974L4.95783 29.2036L4.75716 29.6246L5.39065 29.9276L5.79593 29.0816L5.8943 28.877L5.04439 28.4678L5.34343 27.8422L5.56378 27.9484L5.36311 28.3655L5.99267 28.6685L6.49631 27.6258L5.64247 27.2166L5.94938 26.5831L6.16973 26.6893L5.96512 27.1064L6.59862 27.4133L7.00389 26.5673L7.1062 26.3627L6.25236 25.9535L6.5514 25.324L6.77174 25.4302L6.57107 25.8512L7.20063 26.1542L7.70428 25.1115L6.85437 24.7023L7.15735 24.0688L7.37769 24.175L7.17309 24.5921L7.80658 24.8951L8.21186 24.0531L8.31416 23.8445L7.46032 23.4353L7.75936 22.8097L7.97971 22.9159L7.77904 23.3369L8.41253 23.6399L8.91224 22.5933L8.06234 22.1841L8.36531 21.5545L8.58566 21.6568L8.38105 22.0778L9.01454 22.3808L9.41982 21.5348H9.42376L9.52213 21.3302L8.66829 20.921L8.96733 20.2954L9.18767 20.4016L8.987 20.8187L9.62049 21.1217L10.1202 20.079L9.2703 19.6698L9.57328 19.0363L9.79362 19.1425L9.59295 19.5635L10.2225 19.8665L10.6278 19.0205H10.6317L10.7301 18.8159L9.87625 18.4067L10.1753 17.7811L10.3956 17.8834L10.195 18.3044L10.8285 18.6074L11.3282 17.5647L10.4783 17.1555L10.7812 16.522L11.0016 16.6282L10.8009 17.0453L11.4305 17.3483L11.8358 16.5062H11.8397L11.9381 16.3016L11.0842 15.8885L11.3833 15.2628L11.6036 15.3691L11.4029 15.7901L12.0364 16.0931L12.5361 15.0464L11.6862 14.6372L11.9892 14.0077L12.2096 14.11L12.0089 14.531L12.6384 14.834L13.0437 13.988L13.0477 13.9919L13.146 13.7834L12.2922 13.3742L12.5912 12.7486L12.8116 12.8548L12.6109 13.2719L13.2444 13.5788L13.7441 12.5321L12.8942 12.1229L13.1972 11.4894L13.4175 11.5957L13.2168 12.0167L13.8464 12.3197L14.2517 11.4737H14.2556L14.354 11.2691L13.5001 10.8599L13.8031 10.2343L14.0195 10.3405L13.8189 10.7576L14.4524 11.0605L14.9521 10.0178L14.1022 9.60863L14.4051 8.97514L14.6255 9.08138L14.4248 9.49846L15.0544 9.80537L15.4596 8.9594H15.4636L15.5619 8.75479L14.7081 8.34558L15.0111 7.71602L15.2275 7.82226L15.0268 8.24328L15.6603 8.54625L16.16 7.50354L15.3101 7.09433L15.6131 6.46084L15.8334 6.56708L15.6328 6.98416L16.2623 7.28713L16.6715 6.4451L16.7699 6.23656L15.9161 5.82735L16.219 5.20172L16.4394 5.30796L16.2348 5.72898L16.8683 6.03195L17.368 4.98531L16.5181 4.5761L16.8211 3.94261L17.0414 4.04885L16.8407 4.46986L17.4703 4.77284L17.8795 3.92687L17.9779 3.72226L17.124 3.31305L17.427 2.68743L17.6474 2.79366L17.4428 3.21075L18.0762 3.51372L18.576 2.47102L17.7261 2.0618L18.029 1.42831L18.2494 1.53455L18.0487 1.95556L18.6822 2.25854L19.0875 1.41257L19.1858 1.20796L18.332 0.798752L18.635 0.173128L18.8553 0.275432L18.6507 0.696449L19.2842 0.999423L19.7642 0H19.3511L19.4809 0.0629558L19.178 0.696449L18.9576 0.590211L19.1583 0.169194L18.8042 0H18.4618L18.029 0.90499L18.8789 1.3142L18.572 1.95163L18.3517 1.84539L18.5563 1.42831L17.9228 1.12533L17.4231 2.16804L18.273 2.57725L17.97 3.21075L17.7497 3.10451L17.9503 2.68349L17.3208 2.38052L16.8211 3.41929L17.671 3.8285L17.3641 4.46593L17.1437 4.36362L17.3483 3.94261L16.7148 3.63963L16.2112 4.68234L17.065 5.09155L16.762 5.72504L16.5417 5.61881L16.7424 5.20172L16.1089 4.89875L15.6131 5.93358L16.463 6.3428L16.1561 6.98416L15.9357 6.87792L16.1364 6.4569L15.5069 6.15393L15.0032 7.20057L15.8571 7.60978L15.5541 8.23934L15.3337 8.13704L15.5344 7.71602L14.9009 7.41305L14.4051 8.45182L15.255 8.86103L14.9481 9.49846L14.7278 9.39222L14.9285 8.97514L14.2989 8.67216L13.7953 9.71487L14.6491 10.1241L14.3461 10.7576L14.1258 10.6513L14.3264 10.2303L13.6929 9.92734L13.1972 10.9661L14.0471 11.3753L13.7402 12.0128L13.5198 11.9105L13.7205 11.4894L13.0909 11.1865L12.5873 12.2292L13.4411 12.6384L13.1382 13.2719L12.9178 13.1656L13.1185 12.7486L12.485 12.4456L11.9892 13.4804L12.8391 13.8896L12.5322 14.531L12.3119 14.4247L12.5125 14.0037L11.883 13.7008L11.3793 14.7474L12.2332 15.1566L11.9263 15.7862L11.7098 15.6839L11.9105 15.2628L11.277 14.9599L10.7812 15.9986L11.6311 16.4079L11.3242 17.0453L11.1039 16.939L11.3046 16.522L10.675 16.2151L10.1714 17.2617L11.0252 17.6709L10.7183 18.3044L10.5019 18.1982L10.7025 17.7771L10.0691 17.4742L9.56934 18.5129L10.4232 18.9222L10.1163 19.5596L9.89593 19.4533L10.0966 19.0363L9.46704 18.7333L8.96339 19.776L9.81723 20.1852L9.51032 20.8187L9.28998 20.7125L9.49458 20.2954L8.86109 19.9885L8.36138 21.0272L9.21522 21.4365L8.90831 22.0778L8.68796 21.9716L8.88863 21.5506L8.25907 21.2476L7.75543 22.2942L8.60927 22.6995L8.30236 23.333L8.08201 23.2268L8.28662 22.8097L7.65313 22.5067L7.15341 23.5415L8.00725 23.9507L7.70034 24.5921L7.48 24.4859L7.68067 24.0649L7.05111 23.7619L6.54746 24.8085L7.39737 25.2177L7.09439 25.8512L6.87405 25.745L7.07865 25.324L6.44516 25.021L5.94545 26.0598L6.79929 26.469L6.49238 27.1064L6.27203 27.0002L6.4727 26.5831L5.83921 26.2801L5.3395 27.3228L6.1894 27.732L5.88643 28.3655L5.66608 28.2593L5.86675 27.8383L5.2372 27.5353L4.73748 28.5741L5.59132 28.9833L5.28441 29.6207L5.06407 29.5184L5.26474 29.0974L4.63125 28.7944L4.13154 29.8371L4.98144 30.2463L4.67846 30.8798L4.45812 30.7736L4.65879 30.3565L4.02923 30.0535L3.52952 31.0884L4.38336 31.4976L4.07645 32.1389L3.8561 32.0327L4.05678 31.6117L3.42328 31.3087L2.92357 32.3554L3.77347 32.7646L3.4705 33.3941L3.25015 33.2918L3.45083 32.8708L2.82127 32.5678L2.32156 33.6066L3.17539 34.0158L2.86848 34.6532L2.64814 34.547L2.84881 34.1299L2.21532 33.8269L1.71561 34.8696L2.56551 35.2789L2.26253 35.9123L2.04219 35.8061L2.24286 35.3851L1.6133 35.0821L1.11359 36.1209L1.96349 36.5301L1.65658 37.1675L1.44017 37.0613L1.64085 36.6442L1.00735 36.3412L0.53125 37.3328H0.924724L0.810616 37.2777L1.11359 36.6442L1.33394 36.7505L1.13326 37.1715L1.47165 37.3328H1.83365L2.17204 36.6285Z" fill="#00A19A"/>
<path d="M13.867 30.266L16.7983 24.1554L19.7337 18.0447L22.669 11.938L25.6003 5.82735L28.4019 0H27.5166L24.8803 5.48109L21.9489 11.5917L19.0136 17.7024L16.0783 23.8091L13.1469 29.9197L10.2116 36.0265L9.58203 37.3328H10.4713L10.9316 36.3727L13.867 30.266Z" fill="#00A19A"/>
<path d="M8.83053 27.8461L11.7658 21.7394L14.6972 15.6288L17.6325 9.52207L20.5679 3.41142L22.2047 0H21.3036L19.836 3.06123L16.9007 9.16794L13.9654 15.2786L11.03 21.3853L8.09867 27.4959L5.16335 33.6066L3.37305 37.3328H4.2741L5.89521 33.9568L8.83053 27.8461Z" fill="#00A19A"/>
<path d="M27.0204 0H26.3437C26.2256 0.358061 26.0446 0.641362 25.7967 0.881381C25.4269 1.23944 24.9272 1.46372 24.2661 1.74702C23.7271 1.97524 23.369 2.20345 23.1054 2.48282C22.8063 2.7976 22.6175 3.19501 22.5112 3.73407C22.4719 3.92687 22.2948 4.05671 22.1099 4.02524C21.925 3.99376 21.8069 3.81276 21.8463 3.62389C21.98 2.95105 22.2358 2.4238 22.6293 2.00672C22.9677 1.65259 23.4005 1.37322 24.03 1.10173C24.8957 0.731861 25.3679 0.503646 25.6157 0.00393474H24.1874C24.1048 0.192802 24.0379 0.405278 23.9907 0.645297C23.9513 0.838099 23.7743 0.967946 23.5894 0.936468C23.4044 0.90499 23.2864 0.723992 23.3257 0.535124C23.3611 0.346257 23.4123 0.173128 23.4674 0.00786948H22.6962L4.77344 37.3328H5.73351C5.72171 37.2856 5.72171 37.2344 5.73351 37.1833C5.86729 36.5104 6.12305 35.9832 6.51653 35.5622C6.79983 35.2631 7.15002 35.0192 7.63399 34.787C7.72449 34.7437 7.81892 34.7005 7.92123 34.6572C9.16067 34.1299 9.59743 33.886 9.7194 32.7252C9.73908 32.5324 9.90827 32.3829 10.0932 32.3986C10.2781 32.4104 10.4119 32.5796 10.3922 32.7724C10.3096 33.5318 10.0932 34.0434 9.68399 34.4408C9.36921 34.7437 8.45242 35.1805 8.45242 35.1805C8.35798 35.2238 8.25962 35.2631 8.15731 35.3103C7.61825 35.5386 7.26019 35.7668 6.99656 36.0461C6.69752 36.3609 6.50866 36.7583 6.40242 37.2974C6.40242 37.3092 6.39455 37.3249 6.39061 37.3367H7.32708C7.90155 37.0101 8.14944 36.6481 8.23601 35.8258C8.25568 35.633 8.42487 35.4835 8.60981 35.4992C8.79474 35.511 8.92852 35.6802 8.90885 35.873C8.84196 36.5104 8.67276 36.9708 8.38159 37.3367H9.09771L27.0204 0ZM11.8363 29.7584C11.7537 30.5178 11.5373 31.0293 11.128 31.4268C10.7582 31.7848 10.2585 32.0091 9.59743 32.2924C9.05837 32.5206 8.70031 32.7488 8.43668 33.0282C8.13764 33.343 7.94877 33.7404 7.84253 34.2794C7.80319 34.4722 7.62612 34.6021 7.44119 34.5706C7.25626 34.5391 7.13821 34.3581 7.17756 34.1693C7.31134 33.4964 7.5671 32.9692 7.96058 32.5521C8.29896 32.198 8.73178 31.9186 9.36134 31.6471C10.6008 31.1198 11.0375 30.8759 11.1595 29.7151C11.1792 29.5223 11.3484 29.3728 11.5333 29.3886C11.7182 29.4004 11.852 29.5696 11.8324 29.7624L11.8363 29.7584ZM13.3236 26.6657C13.241 27.4251 13.0246 27.9366 12.6154 28.334C12.3006 28.637 11.8992 28.8456 11.3799 29.0738C11.2854 29.1171 11.1871 29.1603 11.0848 29.2036C10.5457 29.4318 10.1876 29.6601 9.92401 29.9394C9.62497 30.2542 9.4361 30.6516 9.32986 31.1907C9.29052 31.3835 9.11345 31.5133 8.92852 31.4818C8.74359 31.4504 8.62555 31.2694 8.66489 31.0805C8.79867 30.4077 9.05443 29.8804 9.44791 29.4594C9.73121 29.1603 10.0814 28.9164 10.5654 28.6842C10.6559 28.641 10.7503 28.5977 10.8526 28.5544C12.092 28.0271 12.5288 27.7832 12.6508 26.6224C12.6705 26.4296 12.8396 26.2801 13.0246 26.2959C13.2095 26.3077 13.3433 26.4769 13.3236 26.6697V26.6657ZM14.7716 23.6517C14.689 24.4111 14.4726 24.9226 14.0634 25.32C13.6935 25.6781 13.1938 25.9024 12.5327 26.1857C11.9937 26.4139 11.6356 26.6421 11.372 26.9215C11.073 27.2363 10.8841 27.6337 10.7778 28.1727C10.7385 28.3655 10.5614 28.4954 10.3765 28.4639C10.1916 28.4324 10.0735 28.2514 10.1129 28.0625C10.2467 27.3897 10.5024 26.8625 10.8959 26.4454C11.2343 26.0912 11.6671 25.8119 12.2967 25.5404C13.5361 25.0131 13.9729 24.7692 14.0948 23.6084C14.1145 23.4156 14.2837 23.2661 14.4686 23.2818C14.6536 23.2936 14.7873 23.4628 14.7677 23.6556L14.7716 23.6517ZM16.255 20.5551C16.1724 21.3145 15.956 21.826 15.5467 22.2234C15.232 22.5264 14.8306 22.7349 14.3112 22.9631C14.2168 23.0064 14.1184 23.0497 14.0161 23.093C13.4771 23.3212 13.119 23.5494 12.8554 23.8288C12.5563 24.1436 12.3675 24.541 12.2612 25.08C12.2219 25.2728 12.0448 25.4027 11.8599 25.3712C11.675 25.3397 11.5569 25.1587 11.5963 24.9698C11.7301 24.297 11.9858 23.7698 12.3793 23.3487C12.6626 23.0497 13.0128 22.8057 13.4968 22.5736C13.5872 22.5303 13.6817 22.487 13.784 22.4437C15.0234 21.9165 15.4602 21.6725 15.5822 20.5118C15.6018 20.319 15.771 20.1695 15.956 20.1852C16.1409 20.197 16.2747 20.3662 16.255 20.559V20.5551ZM17.703 17.5411C17.6204 18.3005 17.4039 18.812 16.9947 19.2094C16.6249 19.5675 16.1252 19.7917 15.4641 20.075C14.9251 20.3032 14.567 20.5315 14.3034 20.8108C14.0043 21.1256 13.8155 21.523 13.7092 22.0621C13.6699 22.2549 13.4928 22.3847 13.3079 22.3532C13.123 22.3218 13.0049 22.1408 13.0443 21.9519C13.178 21.2791 13.4338 20.7518 13.8273 20.3347C14.1657 19.9806 14.5985 19.7012 15.228 19.4297C16.4675 18.9025 16.9042 18.6585 17.0262 17.4978C17.0459 17.305 17.2151 17.1555 17.4 17.1712C17.5849 17.183 17.7187 17.3522 17.699 17.545L17.703 17.5411ZM19.1903 14.4444C19.1077 15.2038 18.8913 15.7153 18.4821 16.1128C18.1673 16.4157 17.7659 16.6243 17.2466 16.8525C17.1521 16.8958 17.0538 16.939 16.9515 16.9823C16.4124 17.2105 16.0543 17.4388 15.7907 17.7181C15.4917 18.0329 15.3028 18.4303 15.1966 18.9694C15.1572 19.1622 14.9801 19.292 14.7952 19.2605C14.6103 19.2291 14.4922 19.0481 14.5316 18.8592C14.6654 18.1864 14.9211 17.6591 15.3146 17.2381C15.5979 16.939 15.9481 16.6951 16.4321 16.4629C16.5226 16.4197 16.617 16.3764 16.7193 16.3331C17.9587 15.8058 18.3955 15.5619 18.5175 14.4011C18.5372 14.2083 18.7063 14.0588 18.8913 14.0746C19.0762 14.0864 19.21 14.2556 19.1903 14.4484V14.4444ZM20.6383 11.4304C20.5557 12.1898 20.3393 12.7013 19.93 13.0987C19.5602 13.4568 19.0605 13.6811 18.3994 13.9644C17.8604 14.1926 17.5023 14.4208 17.2387 14.7002C16.9396 15.015 16.7508 15.4124 16.6445 15.9514C16.6052 16.1442 16.4281 16.2741 16.2432 16.2426C16.0583 16.2111 15.9402 16.0301 15.9796 15.8413C16.1134 15.1684 16.3691 14.6412 16.7626 14.2241C17.101 13.87 17.5338 13.5906 18.1633 13.3191C19.4028 12.7918 19.8395 12.5479 19.9615 11.3871C19.9812 11.1943 20.1504 11.0448 20.3353 11.0605C20.5203 11.0724 20.654 11.2415 20.6344 11.4343L20.6383 11.4304ZM22.1256 8.33771C22.043 9.09711 21.8266 9.60863 21.4174 10.006C21.1026 10.309 20.7013 10.5176 20.1819 10.7458C20.0874 10.7891 19.9891 10.8323 19.8868 10.8756C19.3477 11.1038 18.9896 11.332 18.726 11.6114C18.427 11.9262 18.2381 12.3236 18.1319 12.8627C18.0925 13.0555 17.9155 13.1853 17.7305 13.1538C17.5456 13.1224 17.4276 12.9414 17.4669 12.7525C17.6007 12.0796 17.8564 11.5524 18.2499 11.1314C18.5332 10.8323 18.8834 10.5884 19.3674 10.3562C19.4579 10.3129 19.5523 10.2697 19.6546 10.2264C20.8941 9.69913 21.3308 9.45517 21.4528 8.29443C21.4725 8.10163 21.6417 7.95211 21.8266 7.96784C22.0115 7.97965 22.1453 8.14884 22.1256 8.34164V8.33771ZM23.5736 5.3237C23.491 6.0831 23.2746 6.59462 22.8654 6.99203C22.4955 7.35009 21.9958 7.57437 21.3347 7.85767C20.7957 8.08589 20.4376 8.3141 20.174 8.59347C19.875 8.90825 19.6861 9.30565 19.5799 9.84471C19.5405 10.0375 19.3634 10.1674 19.1785 10.1359C18.9936 10.1044 18.8755 9.92341 18.9149 9.73454C19.0487 9.0617 19.3044 8.53445 19.6979 8.11736C20.0363 7.76324 20.4691 7.48387 21.0987 7.21237C22.3381 6.68512 22.7749 6.44117 22.8968 5.28042C22.9165 5.08762 23.0857 4.9381 23.2706 4.95384C23.4556 4.96564 23.5894 5.13483 23.5697 5.32763L23.5736 5.3237ZM23.1133 4.63512C23.0188 4.6784 22.9204 4.72168 22.8181 4.76497C22.2791 4.99318 21.921 5.2214 21.6574 5.50076C21.3584 5.81554 21.1695 6.21295 21.0633 6.75201C21.0239 6.94481 20.8468 7.07466 20.6619 7.04318C20.477 7.0117 20.3589 6.8307 20.3983 6.64184C20.5321 5.969 20.7878 5.44174 21.1813 5.02073C21.4646 4.72169 21.8148 4.47773 22.2988 4.24558C22.3893 4.2023 22.4837 4.15902 22.586 4.11574C23.8254 3.58848 24.2622 3.34453 24.3842 2.18378C24.4038 1.99098 24.573 1.84146 24.758 1.8572C24.9429 1.869 25.0767 2.03819 25.057 2.231C24.9744 2.9904 24.758 3.50192 24.3488 3.89933C24.034 4.2023 23.6326 4.41084 23.1133 4.63906V4.63512Z" fill="#00A19A"/>
</g>
<path d="M53.2487 8.36964C52.9103 8.59392 52.6467 8.89689 52.4578 9.27463C52.1942 9.83729 52.2139 10.3488 52.5129 10.7974C52.7765 11.2499 53.2094 11.4741 53.8114 11.4741C54.2245 11.4741 54.6023 11.36 54.9406 11.1358C55.279 10.9115 55.5427 10.6085 55.7315 10.2308C55.9952 9.6681 55.9755 9.15658 55.6764 8.70802C55.3735 8.25553 54.9446 8.03125 54.378 8.03125C53.9648 8.03125 53.5871 8.14536 53.2487 8.36964Z" fill="#00A19A"/>
<path d="M71.2388 22.7983L73.4383 18.1711L75.0752 14.614C75.2247 14.315 75.2444 14.0199 75.1302 13.7405C75.0161 13.4572 74.8115 13.2408 74.5086 13.0913C74.2056 12.9418 73.9065 12.9221 73.6036 13.0362C73.3006 13.1503 73.0763 13.3549 72.9268 13.6579L72.8127 13.9412C72.0966 13.2998 71.1365 12.9811 69.9325 12.9811C69.2557 12.9811 68.5789 13.0952 67.9021 13.3195C67.2254 13.5438 66.5761 13.8468 65.9544 14.2245C65.3328 14.6022 64.778 15.0429 64.29 15.5505C63.8021 16.0581 63.4244 16.6129 63.1608 17.2149L58.7578 26.6976C58.7027 26.8157 58.6516 26.9337 58.6083 27.0478C58.3683 27.4885 58.1204 27.8426 57.8607 28.1141C57.4829 28.5076 57.0895 28.7909 56.6763 28.9601C56.2632 29.1293 55.8579 29.2316 55.4644 29.2709C55.071 29.3103 54.6814 29.326 54.3076 29.326C53.6308 29.326 53.1783 29.2985 52.9541 29.2395C52.7298 29.1844 52.5763 29.1175 52.5016 29.0427C52.1907 28.7437 52.6314 28.0472 52.895 27.4059L58.7067 14.9878H60.9062C61.2052 14.9878 61.4806 14.8737 61.7246 14.6495C61.9686 14.4252 62.0905 14.1419 62.0905 13.8035C62.0905 13.5045 61.9686 13.2408 61.7246 13.0126C61.4806 12.7883 61.2052 12.6742 60.9062 12.6742H59.7769L61.9213 8.15714C62.3345 7.2915 62.8893 6.58718 63.5857 6.04025C64.2822 5.49333 64.8921 5.22183 65.4193 5.22183H67.3395C67.6779 5.22183 67.9612 5.10772 68.1854 4.88344C68.4097 4.65916 68.5238 4.39553 68.5238 4.09256C68.5238 3.75417 68.4097 3.47087 68.1854 3.24659C67.9612 3.02231 67.6779 2.9082 67.3395 2.9082H65.4193C64.3648 2.9082 63.3024 3.31348 62.2322 4.1201C61.158 4.93066 60.3396 5.93402 59.7769 7.13805L57.239 12.6703H55.6572C55.3543 12.6703 55.0946 12.7844 54.8663 13.0087C54.6421 13.233 54.528 13.4966 54.528 13.7996C54.528 14.1379 54.6421 14.4212 54.8663 14.6455C55.0906 14.8698 55.3543 14.9839 55.6572 14.9839H56.1648L50.8018 26.4104L50.4437 27.2209C50.0699 27.8269 49.6095 28.3345 49.0587 28.7437C48.3426 29.2709 47.7209 29.5346 47.1975 29.5346C47.048 29.5346 46.9969 29.5346 46.9142 29.507C46.8592 29.4874 46.8395 29.4598 46.8041 29.4244C46.7293 29.3103 46.69 29.1136 46.69 28.8303C46.69 28.547 46.7529 28.2086 46.9811 27.7207L47.0283 27.6184L53.1233 14.6377C53.2374 14.3386 53.2452 14.0356 53.1508 13.7327C53.0564 13.4336 52.8596 13.2251 52.5567 13.111C52.2537 12.9615 51.9546 12.9418 51.6517 13.0559C51.3487 13.17 51.1244 13.3746 50.9749 13.6776L44.88 26.7173C44.8524 26.7803 44.8288 26.8432 44.8013 26.9062C44.5062 27.5042 44.1993 27.9685 43.8806 28.3069C43.5028 28.7004 43.1094 28.9837 42.6962 29.1529C42.2831 29.3221 41.8778 29.4244 41.4843 29.4637C41.0908 29.5031 40.7013 29.5188 40.3275 29.5188C39.6507 29.5188 39.1982 29.4913 38.9739 29.4323C38.7497 29.3772 38.5962 29.3103 38.5214 29.2355C38.4821 29.1608 38.4821 29.0467 38.5214 28.8971C38.5214 28.6729 38.6513 28.24 38.9149 27.5987L44.7265 15.1806H46.926C47.2251 15.1806 47.5005 15.0665 47.7445 14.8423C47.9884 14.618 48.1104 14.3347 48.1104 13.9963C48.1104 13.6973 47.9884 13.4336 47.7445 13.2054C47.5005 12.9811 47.2251 12.867 46.926 12.867H45.7968L47.9412 8.34995C48.3544 7.4843 48.9092 6.77998 49.6056 6.23306C50.3021 5.68613 50.9119 5.41463 51.4392 5.41463H53.3593C53.6977 5.41463 53.981 5.30052 54.2053 5.07624C54.4296 4.85196 54.5437 4.58834 54.5437 4.28536C54.5437 3.94697 54.4296 3.66367 54.2053 3.43939C53.981 3.21511 53.6977 3.10101 53.3593 3.10101H51.4392C50.3847 3.10101 49.3223 3.50628 48.2521 4.3129C47.1779 5.12346 46.3594 6.12682 45.7968 7.33085L43.2589 12.8631H41.6771C41.3741 12.8631 41.1144 12.9772 40.8862 13.2015C40.6619 13.4258 40.5478 13.6894 40.5478 13.9924C40.5478 14.3307 40.6619 14.614 40.8862 14.8383C41.1105 15.0626 41.3741 15.1767 41.6771 15.1767H42.1847L36.8216 26.6583L36.1331 28.1141C35.9796 28.3778 35.834 28.606 35.6884 28.8027C35.3107 29.3103 34.9172 29.566 34.5041 29.566C34.2405 29.566 34.1106 29.511 34.1106 29.3969C34.0358 29.2827 33.9965 29.086 33.9965 28.8027C33.9965 28.5194 34.6379 26.9494 34.6733 26.6858C34.9723 25.8202 35.0667 25.0765 34.9566 24.4548C34.8425 23.8331 34.6261 23.298 34.3073 22.8455C33.9886 22.393 33.5912 22.0074 33.123 21.6887C32.6508 21.37 32.2298 21.0946 31.8521 20.8703C30.9864 20.343 30.4316 19.9102 30.1877 19.5718C29.9437 19.2334 30.0106 18.6865 30.3844 17.935C31.2107 16.0148 32.4698 14.9485 34.087 14.8541C34.327 14.8383 34.8936 14.8344 35.4012 14.9446C35.712 15.0115 35.9088 15.3302 35.8104 15.6331C35.7593 15.7945 35.6924 15.9755 35.6019 16.184C35.3933 16.6719 34.8976 17.6635 34.6693 18.1042C34.5552 18.4071 34.5474 18.6983 34.6418 18.9777C34.7362 19.261 34.933 19.4774 35.2359 19.6269C35.35 19.7017 35.5192 19.741 35.7435 19.741C36.2314 19.741 36.5895 19.5167 36.8177 19.0642C36.9869 18.8242 37.0577 18.6944 37.1561 18.3875C37.5299 17.6359 37.8525 16.8647 38.1162 16.0738C38.3798 15.283 38.305 14.5511 37.8919 13.8743C37.3646 13.0834 36.4833 12.7608 35.0117 12.69H33.9926C31.4704 12.69 29.5542 14.1379 28.24 16.9237C27.8268 17.7894 27.6458 18.5409 27.7049 19.1823C27.7599 19.8236 27.9488 20.3784 28.2675 20.8467C28.5862 21.3188 28.9718 21.7123 29.4243 22.031C29.8768 22.3497 30.29 22.6252 30.6677 22.8495C31.5334 23.3767 32.1157 23.8371 32.4187 24.2305C32.7177 24.624 32.7374 25.1985 32.4738 25.954C32.096 27.0832 31.494 27.9292 30.6677 28.4958C29.8414 29.0585 29.0505 29.4008 28.299 29.511C27.697 29.5857 27.1501 29.566 26.6621 29.4559C26.1742 29.3418 25.8162 29.1372 25.588 28.8342C25.3991 28.5351 25.3322 28.2046 25.3912 27.8466C25.4463 27.4885 25.5526 27.1619 25.7021 26.859C25.8516 26.5599 25.8791 26.2569 25.7847 25.954C25.6903 25.6549 25.4935 25.4267 25.1906 25.2772C24.8876 25.1277 24.5885 25.108 24.2856 25.2221C23.9865 25.3362 23.7583 25.5408 23.6088 25.8438C23.0815 26.9731 22.9045 27.9056 23.0737 28.6375C23.2429 29.3732 23.4593 29.9084 23.7229 30.2468C24.136 30.774 24.6712 31.1793 25.3322 31.4587C26.0405 31.7616 26.8471 31.9033 27.756 31.8797C27.8583 31.8797 27.9645 31.8797 28.0668 31.8797C28.2754 31.8836 28.4839 31.8639 28.6925 31.8246C29.2197 31.7498 29.7745 31.6003 30.3569 31.3721C30.9392 31.1478 31.494 30.8252 32.0213 30.412C32.0213 30.4868 32.0567 30.5615 32.1354 30.6363C32.639 31.4272 33.3787 31.8364 34.3624 31.8757L31.7891 37.3293H34.3388L37.2741 31.2029C37.7266 31.5059 38.2421 31.6829 38.8284 31.738C39.4107 31.7931 39.9104 31.8246 40.3236 31.8246C40.6974 31.8246 41.1695 31.8049 41.7361 31.7695C42.2988 31.7341 42.9008 31.5806 43.5422 31.317C43.9593 31.1439 44.3763 30.9039 44.7856 30.593C44.7974 30.6166 44.8092 30.6363 44.821 30.6599C45.3482 31.4862 46.1391 31.9033 47.1897 31.9033C47.6107 31.9033 48.0317 31.8364 48.4567 31.7065L45.9896 37.3214H48.4527L51.2425 31.014C51.695 31.317 52.2104 31.4941 52.7927 31.5492C53.3751 31.6042 53.8748 31.6357 54.2879 31.6357C54.6617 31.6357 55.1339 31.616 55.7005 31.5806C56.2632 31.5452 56.8652 31.3918 57.5066 31.1281C57.9512 30.9471 58.3919 30.6835 58.8286 30.3451C59.4739 31.3682 60.5914 31.8836 62.1889 31.8836C62.9404 31.8836 63.7116 31.7538 64.5025 31.4901C65.2934 31.2265 66.0056 30.8488 66.647 30.3609C66.6824 30.4356 66.7138 30.4828 66.7335 30.5025C66.7532 30.5222 66.7807 30.5694 66.8201 30.6442C67.3473 31.4705 68.1382 31.8875 69.1888 31.8875C70.2394 31.8875 71.2939 31.4823 72.3484 30.6756C73.4029 29.8651 74.2095 28.8617 74.7761 27.6577C74.9256 27.3587 74.9532 27.0557 74.8627 26.7527C74.7682 26.4537 74.5715 26.2255 74.2685 26.0759C73.9656 25.9264 73.6665 25.9067 73.3636 26.0208C73.0606 26.135 72.8363 26.3396 72.6868 26.6425C72.2736 27.5082 71.7188 28.2125 71.0224 28.7594C70.3259 29.3064 69.716 29.5779 69.1888 29.5779C68.9999 29.5779 68.8858 29.5582 68.8504 29.5228C68.8111 29.4874 68.7756 29.448 68.7363 29.4087C68.6615 29.2946 68.6222 29.0978 68.6222 28.8145C68.6222 28.5312 68.7363 28.1456 68.9606 27.6577L71.2191 22.8022L71.2388 22.7983ZM66.8909 26.6937C66.5132 27.4846 65.8639 28.1613 64.9432 28.724C64.0225 29.2867 63.1096 29.57 62.2046 29.57C61.4531 29.57 60.9613 29.3811 60.737 29.0073C60.5481 28.6689 60.5875 28.2164 60.8511 27.6538L65.2541 18.1711C65.6279 17.3802 66.2771 16.7034 67.2018 16.1407C68.1225 15.5781 69.0353 15.2948 69.9403 15.2948C70.6564 15.2948 71.1444 15.4836 71.408 15.8574C71.5969 16.1958 71.5575 16.6483 71.2939 17.211L71.0696 17.7186L66.8909 26.6937Z" fill="#00A19A"/>
<path d="M86.4585 29.7862L85.6047 31.5529C85.5102 31.7811 85.3371 31.8953 85.0931 31.8953C84.979 31.8953 84.8925 31.8756 84.8374 31.8402C84.6839 31.7811 84.5816 31.6788 84.5226 31.5254C84.4675 31.3719 84.4754 31.2224 84.5501 31.069L87.5996 24.5098C87.753 24.2068 87.7727 23.9786 87.6586 23.8251C87.5445 23.6362 87.3084 23.5418 86.9464 23.5418C86.49 23.5418 86.0296 23.6835 85.5614 23.9707C85.0971 24.254 84.7666 24.5963 84.5777 24.9977L82.3231 29.7902L81.4968 31.5569C81.4024 31.7851 81.2292 31.8992 80.9853 31.8992C80.8712 31.8992 80.7846 31.8795 80.7295 31.8441C80.5761 31.7851 80.4738 31.6828 80.4147 31.5293C80.3596 31.3759 80.3675 31.2263 80.4423 31.0729L84.3495 22.7194C84.4242 22.566 84.5344 22.4637 84.6761 22.4047C84.8177 22.3456 84.9672 22.3574 85.1167 22.4322C85.2309 22.4912 85.3253 22.5857 85.4 22.7155C85.8762 22.4873 86.3877 22.3732 86.9385 22.3732C87.7176 22.3732 88.2881 22.6408 88.6501 23.1719C88.6501 23.2113 88.658 23.231 88.6777 23.231C89.02 22.9634 89.3938 22.7549 89.803 22.6053C90.2122 22.4519 90.6254 22.3771 91.0425 22.3771C91.8215 22.3771 92.3921 22.6447 92.7541 23.1759C93.0964 23.7267 93.1043 24.3366 92.7816 25.0016L90.5585 29.7941C90.4444 30.042 90.3893 30.2348 90.3893 30.3804C90.3893 30.526 90.409 30.6243 90.4444 30.6794C90.4641 30.6991 90.4837 30.707 90.4995 30.707C90.5191 30.7266 90.5664 30.7345 90.6411 30.7345C90.9087 30.7345 91.2195 30.6007 91.5815 30.3371C91.9435 30.0695 92.2268 29.7193 92.4354 29.2826C92.4944 29.1291 92.5967 29.0268 92.7501 28.9678C92.9036 28.9088 93.0531 28.9206 93.2066 28.9954C93.36 29.0701 93.4623 29.1842 93.5213 29.3377C93.5804 29.4911 93.5686 29.6406 93.4938 29.7941C93.2105 30.404 92.7934 30.9116 92.2544 31.3208C91.7114 31.73 91.1762 31.9346 90.6451 31.9346C90.1139 31.9346 89.7125 31.7261 89.4489 31.309C89.1262 30.7581 89.1341 30.0931 89.4764 29.3141L89.504 29.2865L91.7271 24.5255C91.8609 24.2028 91.8688 23.9746 91.7546 23.8408C91.6405 23.652 91.4045 23.5575 91.0425 23.5575C90.586 23.5575 90.1257 23.6992 89.6614 23.9864C89.1971 24.2697 88.8666 24.6121 88.6777 25.0134L86.4546 29.8059L86.4585 29.7862Z" fill="#DEDC00"/>
<path d="M100.542 29.7589C100.259 30.3688 99.8499 30.8764 99.3148 31.2856C98.7836 31.6948 98.2485 31.8994 97.7173 31.8994C97.1861 31.8994 96.7848 31.6909 96.5211 31.2738C96.5015 31.2344 96.4897 31.2108 96.4779 31.203C96.47 31.1951 96.4543 31.1715 96.4346 31.1321C96.1119 31.38 95.7499 31.5689 95.3525 31.7027C94.9512 31.8365 94.5616 31.9034 94.1839 31.9034C93.3655 31.9034 92.7949 31.6358 92.4723 31.1046C92.13 30.5734 92.1221 29.9635 92.4448 29.2789L94.6679 24.4864C94.8017 24.1834 94.9905 23.9001 95.2384 23.6443C95.4863 23.3886 95.7657 23.1643 96.0804 22.9754C96.3952 22.7866 96.7218 22.6331 97.0641 22.519C97.4065 22.4049 97.7488 22.3459 98.0911 22.3459C98.701 22.3459 99.185 22.5072 99.547 22.8298L99.602 22.6882C99.6768 22.5347 99.7909 22.4324 99.9444 22.3734C100.098 22.3144 100.247 22.3262 100.401 22.401C100.554 22.4757 100.657 22.5859 100.716 22.7275C100.771 22.8692 100.763 23.0187 100.688 23.1682L99.8617 24.9664L98.7482 27.3036L97.6071 29.755C97.493 30.0029 97.4379 30.1957 97.4379 30.3413C97.4379 30.4868 97.4576 30.5852 97.493 30.6403C97.5127 30.66 97.5324 30.6796 97.552 30.6993C97.5717 30.719 97.6268 30.7269 97.7212 30.7269C97.9888 30.7269 98.2957 30.5891 98.6459 30.3137C98.9961 30.0383 99.2794 29.6802 99.4879 29.2435C99.5627 29.09 99.6768 28.9877 99.8303 28.9287C99.9837 28.8697 100.133 28.8815 100.287 28.9562C100.44 29.031 100.539 29.1451 100.586 29.2986C100.633 29.452 100.617 29.6015 100.542 29.755V29.7589ZM94.1839 30.7308C94.6403 30.7308 95.1007 30.5891 95.5689 30.3019C96.0332 30.0186 96.3637 29.6763 96.5526 29.2749L98.6616 24.7421L98.7757 24.4864C98.9095 24.2031 98.9292 23.9749 98.8308 23.8017C98.6971 23.6129 98.4492 23.5184 98.0911 23.5184C97.6347 23.5184 97.1743 23.6601 96.7061 23.9473C96.2418 24.2306 95.9113 24.5729 95.7224 24.9743L93.4993 29.7629C93.3655 30.0462 93.3458 30.2744 93.4442 30.4475C93.5583 30.6364 93.8062 30.7308 94.1839 30.7308Z" fill="#DEDC00"/>
<path d="M78.2362 30.2269C78.1063 30.8486 77.4965 31.3522 76.8748 31.3522C76.2531 31.3522 75.8557 30.8486 75.9855 30.2269C76.1154 29.6052 76.7253 29.1016 77.3469 29.1016C77.9686 29.1016 78.366 29.6052 78.2362 30.2269Z" fill="#DEDC00"/>
</g>
<defs>
<filter id="filter0_d_518_16911" x="-3.72344" y="-5.7" width="125.425" height="48.732" filterUnits="userSpaceOnUse" color-interpolation-filters="sRGB">
<feFlood flood-opacity="0" result="BackgroundImageFix"/>
<feColorMatrix in="SourceAlpha" type="matrix" values="0 0 0 0 0 0 0 0 0 0 0 0 0 0 0 0 0 0 127 0" result="hardAlpha"/>
<feOffset/>
<feGaussianBlur stdDeviation="2.85"/>
<feComposite in2="hardAlpha" operator="out"/>
<feColorMatrix type="matrix" values="0 0 0 0 0 0 0 0 0 0 0 0 0 0 0 0 0 0 0.19 0"/>
<feBlend mode="normal" in2="BackgroundImageFix" result="effect1_dropShadow_518_16911"/>
<feBlend mode="normal" in="SourceGraphic" in2="effect1_dropShadow_518_16911" result="shape"/>
</filter>
<clipPath id="clip0_518_16911">
<rect width="116" height="46.2843" fill="white"/>
</clipPath>
</defs>
</svg>
