<svg width="21" height="20" viewBox="0 0 21 20" fill="none" xmlns="http://www.w3.org/2000/svg">
<path d="M4.66602 12.4998C3.88945 12.4998 3.50116 12.4998 3.19488 12.373C2.7865 12.2038 2.46204 11.8794 2.29288 11.471C2.16602 11.1647 2.16602 10.7764 2.16602 9.99984V4.33317C2.16602 3.39975 2.16602 2.93304 2.34767 2.57652C2.50746 2.26292 2.76243 2.00795 3.07603 1.84816C3.43255 1.6665 3.89926 1.6665 4.83268 1.6665H10.4993C11.2759 1.6665 11.6642 1.6665 11.9705 1.79337C12.3789 1.96253 12.7033 2.28698 12.8725 2.69536C12.9993 3.00165 12.9993 3.38993 12.9993 4.1665M10.666 18.3332H16.166C17.0994 18.3332 17.5661 18.3332 17.9227 18.1515C18.2363 17.9917 18.4912 17.7368 18.651 17.4232C18.8327 17.0666 18.8327 16.5999 18.8327 15.6665V10.1665C18.8327 9.23308 18.8327 8.76637 18.651 8.40985C18.4912 8.09625 18.2363 7.84128 17.9227 7.68149C17.5661 7.49984 17.0994 7.49984 16.166 7.49984H10.666C9.73259 7.49984 9.26588 7.49984 8.90937 7.68149C8.59576 7.84128 8.34079 8.09625 8.18101 8.40985C7.99935 8.76637 7.99935 9.23308 7.99935 10.1665V15.6665C7.99935 16.5999 7.99935 17.0666 8.18101 17.4232C8.34079 17.7368 8.59576 17.9917 8.90937 18.1515C9.26588 18.3332 9.7326 18.3332 10.666 18.3332Z" stroke="#344054" stroke-width="1.66667" stroke-linecap="round" stroke-linejoin="round"/>
</svg>
