<svg width="108" height="109" viewBox="0 0 108 109" fill="none" xmlns="http://www.w3.org/2000/svg">
    <rect x="0.03125" y="0.388672" width="107.936" height="107.936" rx="53.9678" fill="#FFE1E1" fill-opacity="0.62"/>
    <path d="M53.9961 57.9537V45.9395" stroke="#FF5454" stroke-width="4.62581" stroke-linecap="round" stroke-linejoin="round"/>
    <path d="M60.5197 29.1033L85.1233 72.1619C87.9823 77.1668 84.3684 83.3956 78.6054 83.3956H29.3983C23.6321 83.3956 20.0182 77.1668 22.8804 72.1619L47.4839 29.1033C50.3654 24.0567 57.6382 24.0567 60.5197 29.1033Z" stroke="#FF5454" stroke-width="4.62581" stroke-linecap="round" stroke-linejoin="round"/>
    <path d="M53.7256 64.8906C52.4488 64.8906 51.4127 65.9268 51.4219 67.2035C51.4219 68.4803 52.4581 69.5164 53.7348 69.5164C55.0115 69.5164 56.0477 68.4803 56.0477 67.2035C56.0477 65.9268 55.0115 64.8906 53.7256 64.8906Z" fill="#FF5454"/>
</svg>