<svg width="424" height="308" viewBox="0 0 424 308" fill="none" xmlns="http://www.w3.org/2000/svg">
<circle cx="212" cy="154.273" r="153.636" fill="#00A19A" fill-opacity="0.35"/>
<circle cx="50.682" cy="39.0453" r="15.3636" fill="#008780" fill-opacity="0.35"/>
<circle cx="381" cy="242.614" r="11.5227" fill="#008780" fill-opacity="0.35"/>
<circle cx="48.7612" cy="265.659" r="19.2045" fill="#008780" fill-opacity="0.35"/>
<circle cx="404.045" cy="88.977" r="19.2045" fill="#008780" fill-opacity="0.35"/>
<circle cx="367.556" cy="21.7611" r="13.4432" fill="#008780" fill-opacity="0.35"/>
<g filter="url(#filter0_dd_100_26873)">
<path fill-rule="evenodd" clip-rule="evenodd" d="M218.694 31.3633C186.553 31.3633 158.121 47.2457 140.819 71.5904C135.169 70.258 129.277 69.5529 123.22 69.5529C81.037 69.5529 46.8408 103.749 46.8408 145.932C46.8408 188.115 81.037 222.311 123.22 222.311L123.305 222.311H314.067C314.101 222.311 314.135 222.311 314.169 222.311C351.079 222.311 381.001 192.39 381.001 155.48C381.001 118.569 351.079 88.6478 314.169 88.6478C311.547 88.6478 308.96 88.7988 306.417 89.0925C291.787 55.1355 258.017 31.3633 218.694 31.3633Z" fill="#008780"/>
<circle cx="123.22" cy="145.932" r="76.3792" fill="url(#paint0_linear_100_26873)"/>
<circle cx="218.695" cy="126.837" r="95.474" fill="url(#paint1_linear_100_26873)"/>
<circle cx="314.169" cy="155.48" r="66.8318" fill="url(#paint2_linear_100_26873)"/>
</g>
<rect x="158.228" y="161.955" width="107.545" height="107.545" rx="53.7727" fill="#00A19A" fill-opacity="0.37"/>
<path d="M232.165 235.892L224.323 228.05M229.924 214.607C229.924 225.125 221.397 233.652 210.879 233.652C200.361 233.652 191.835 225.125 191.835 214.607C191.835 204.089 200.361 195.562 210.879 195.562C221.397 195.562 229.924 204.089 229.924 214.607Z" stroke="white" stroke-width="3.84091" stroke-linecap="round" stroke-linejoin="round"/>
<defs>
<filter id="filter0_dd_100_26873" x="8.43173" y="31.3633" width="410.978" height="267.766" filterUnits="userSpaceOnUse" color-interpolation-filters="sRGB">
<feFlood flood-opacity="0" result="BackgroundImageFix"/>
<feColorMatrix in="SourceAlpha" type="matrix" values="0 0 0 0 0 0 0 0 0 0 0 0 0 0 0 0 0 0 127 0" result="hardAlpha"/>
<feMorphology radius="7.68182" operator="erode" in="SourceAlpha" result="effect1_dropShadow_100_26873"/>
<feOffset dy="15.3636"/>
<feGaussianBlur stdDeviation="7.68182"/>
<feColorMatrix type="matrix" values="0 0 0 0 0.0627451 0 0 0 0 0.0941176 0 0 0 0 0.156863 0 0 0 0.03 0"/>
<feBlend mode="normal" in2="BackgroundImageFix" result="effect1_dropShadow_100_26873"/>
<feColorMatrix in="SourceAlpha" type="matrix" values="0 0 0 0 0 0 0 0 0 0 0 0 0 0 0 0 0 0 127 0" result="hardAlpha"/>
<feMorphology radius="7.68182" operator="erode" in="SourceAlpha" result="effect2_dropShadow_100_26873"/>
<feOffset dy="38.4091"/>
<feGaussianBlur stdDeviation="23.0455"/>
<feColorMatrix type="matrix" values="0 0 0 0 0.0627451 0 0 0 0 0.0941176 0 0 0 0 0.156863 0 0 0 0.08 0"/>
<feBlend mode="normal" in2="effect1_dropShadow_100_26873" result="effect2_dropShadow_100_26873"/>
<feBlend mode="normal" in="SourceGraphic" in2="effect2_dropShadow_100_26873" result="shape"/>
</filter>
<linearGradient id="paint0_linear_100_26873" x1="64.5717" y1="95.4676" x2="199.599" y2="222.312" gradientUnits="userSpaceOnUse">
<stop stop-color="white"/>
<stop offset="0.350715" stop-color="#00A19A"/>
</linearGradient>
<linearGradient id="paint1_linear_100_26873" x1="145.384" y1="63.7563" x2="314.169" y2="222.311" gradientUnits="userSpaceOnUse">
<stop stop-color="white"/>
<stop offset="0.350715" stop-color="#00A19A"/>
</linearGradient>
<linearGradient id="paint2_linear_100_26873" x1="262.851" y1="111.323" x2="381.001" y2="222.311" gradientUnits="userSpaceOnUse">
<stop stop-color="white"/>
<stop offset="0.350715" stop-color="#00A19A"/>
</linearGradient>
</defs>
</svg>
