<svg width="16" height="16" viewBox="0 0 16 16" fill="none" xmlns="http://www.w3.org/2000/svg">
<path d="M10 8.66699C10 8.13656 9.78929 7.62785 9.41421 7.25278C9.03914 6.87771 8.53043 6.66699 8 6.66699C7.46957 6.66699 6.96086 6.87771 6.58579 7.25278C6.21071 7.62785 6 8.13656 6 8.66699" stroke="#344054" stroke-width="1.33333" stroke-linecap="round" stroke-linejoin="round"/>
<path d="M2.66602 12.9997V2.99967C2.66602 2.55765 2.84161 2.13372 3.15417 1.82116C3.46673 1.5086 3.89065 1.33301 4.33268 1.33301H12.666C12.8428 1.33301 13.0124 1.40325 13.1374 1.52827C13.2624 1.65329 13.3327 1.82286 13.3327 1.99967V13.9997C13.3327 14.1765 13.2624 14.3461 13.1374 14.4711C13.0124 14.5961 12.8428 14.6663 12.666 14.6663H4.33268C3.89065 14.6663 3.46673 14.4907 3.15417 14.1782C2.84161 13.8656 2.66602 13.4417 2.66602 12.9997ZM2.66602 12.9997C2.66602 12.5576 2.84161 12.1337 3.15417 11.8212C3.46673 11.5086 3.89065 11.333 4.33268 11.333H13.3327" stroke="#344054" stroke-width="1.33333" stroke-linecap="round" stroke-linejoin="round"/>
<path d="M7.99935 6.66667C8.73573 6.66667 9.33268 6.06971 9.33268 5.33333C9.33268 4.59695 8.73573 4 7.99935 4C7.26297 4 6.66602 4.59695 6.66602 5.33333C6.66602 6.06971 7.26297 6.66667 7.99935 6.66667Z" stroke="#344054" stroke-width="1.33333" stroke-linecap="round" stroke-linejoin="round"/>
</svg>
