<svg width="16" height="16" viewBox="0 0 16 16" fill="none" xmlns="http://www.w3.org/2000/svg">
<g clip-path="url(#clip0_558_2631)">
<path d="M8.00065 9.99967C9.10522 9.99967 10.0007 9.10424 10.0007 7.99967C10.0007 6.89511 9.10522 5.99967 8.00065 5.99967C6.89608 5.99967 6.00065 6.89511 6.00065 7.99967C6.00065 9.10424 6.89608 9.99967 8.00065 9.99967Z" stroke="#344054" stroke-width="1.5" stroke-linecap="round" stroke-linejoin="round"/>
<path d="M12.4855 9.81786C12.4048 10.0007 12.3808 10.2034 12.4164 10.4C12.4521 10.5966 12.5458 10.7781 12.6855 10.9209L12.7219 10.9573C12.8346 11.0698 12.924 11.2035 12.985 11.3507C13.046 11.4978 13.0774 11.6555 13.0774 11.8148C13.0774 11.9741 13.046 12.1318 12.985 12.279C12.924 12.4261 12.8346 12.5598 12.7219 12.6724C12.6093 12.7851 12.4756 12.8745 12.3285 12.9355C12.1813 12.9965 12.0236 13.0279 11.8643 13.0279C11.705 13.0279 11.5473 12.9965 11.4001 12.9355C11.253 12.8745 11.1193 12.7851 11.0067 12.6724L10.9703 12.636C10.8275 12.4963 10.6461 12.4026 10.4495 12.3669C10.2529 12.3313 10.0501 12.3554 9.86732 12.436C9.68806 12.5129 9.53519 12.6404 9.4275 12.803C9.31982 12.9656 9.26204 13.1562 9.26126 13.3512V13.4542C9.26126 13.7757 9.13355 14.084 8.90623 14.3113C8.67892 14.5386 8.37061 14.6663 8.04914 14.6663C7.72766 14.6663 7.41935 14.5386 7.19204 14.3113C6.96472 14.084 6.83701 13.7757 6.83701 13.4542V13.3997C6.83232 13.1991 6.76739 13.0045 6.65066 12.8413C6.53393 12.6781 6.37079 12.5538 6.18247 12.4845C5.99967 12.4038 5.7969 12.3798 5.60029 12.4154C5.40369 12.4511 5.22227 12.5448 5.07944 12.6845L5.04308 12.7209C4.9305 12.8336 4.79682 12.923 4.64967 12.984C4.50252 13.045 4.34479 13.0764 4.1855 13.0764C4.02621 13.0764 3.86848 13.045 3.72133 12.984C3.57418 12.923 3.4405 12.8336 3.32792 12.7209C3.21523 12.6083 3.12582 12.4746 3.06482 12.3275C3.00382 12.1803 2.97242 12.0226 2.97242 11.8633C2.97242 11.704 3.00382 11.5463 3.06482 11.3991C3.12582 11.252 3.21523 11.1183 3.32792 11.0057L3.36429 10.9694C3.50401 10.8265 3.59773 10.6451 3.63338 10.4485C3.66903 10.2519 3.64496 10.0491 3.56429 9.86634C3.48746 9.68709 3.3599 9.53421 3.1973 9.42653C3.0347 9.31885 2.84416 9.26106 2.64914 9.26028H2.54611C2.22463 9.26028 1.91632 9.13258 1.68901 8.90526C1.46169 8.67794 1.33398 8.36963 1.33398 8.04816C1.33398 7.72668 1.46169 7.41838 1.68901 7.19106C1.91632 6.96374 2.22463 6.83604 2.54611 6.83604H2.60065C2.80125 6.83135 2.99581 6.76641 3.15901 6.64968C3.32222 6.53295 3.44654 6.36982 3.5158 6.18149C3.59648 5.9987 3.62054 5.79592 3.5849 5.59932C3.54925 5.40271 3.45552 5.2213 3.3158 5.07846L3.27944 5.0421C3.16674 4.92953 3.07734 4.79584 3.01634 4.64869C2.95534 4.50154 2.92394 4.34381 2.92394 4.18452C2.92394 4.02523 2.95534 3.8675 3.01634 3.72035C3.07734 3.5732 3.16674 3.43952 3.27944 3.32695C3.39201 3.21425 3.5257 3.12484 3.67284 3.06384C3.81999 3.00285 3.97772 2.97145 4.13701 2.97145C4.29631 2.97145 4.45404 3.00285 4.60118 3.06384C4.74833 3.12484 4.88202 3.21425 4.99459 3.32695L5.03095 3.36331C5.17379 3.50303 5.35521 3.59676 5.55181 3.6324C5.74841 3.66805 5.95119 3.64399 6.13398 3.56331H6.18247C6.36172 3.48648 6.5146 3.35892 6.62228 3.19632C6.72997 3.03372 6.78775 2.84318 6.78853 2.64816V2.54513C6.78853 2.22365 6.91624 1.91535 7.14355 1.68803C7.37087 1.46071 7.67918 1.33301 8.00065 1.33301C8.32213 1.33301 8.63043 1.46071 8.85775 1.68803C9.08507 1.91535 9.21277 2.22365 9.21277 2.54513V2.59967C9.21355 2.7947 9.27134 2.98524 9.37902 3.14784C9.4867 3.31044 9.63958 3.438 9.81883 3.51483C10.0016 3.5955 10.2044 3.61957 10.401 3.58392C10.5976 3.54827 10.779 3.45455 10.9219 3.31483L10.9582 3.27846C11.0708 3.16576 11.2045 3.07636 11.3516 3.01536C11.4988 2.95436 11.6565 2.92296 11.8158 2.92296C11.9751 2.92296 12.1328 2.95436 12.28 3.01536C12.4271 3.07636 12.5608 3.16576 12.6734 3.27846C12.7861 3.39104 12.8755 3.52472 12.9365 3.67187C12.9975 3.81902 13.0289 3.97675 13.0289 4.13604C13.0289 4.29533 12.9975 4.45306 12.9365 4.60021C12.8755 4.74736 12.7861 4.88104 12.6734 4.99361L12.637 5.02998C12.4973 5.17281 12.4036 5.35423 12.3679 5.55083C12.3323 5.74744 12.3563 5.95021 12.437 6.13301V6.18149C12.5138 6.36075 12.6414 6.51362 12.804 6.62131C12.9666 6.72899 13.1571 6.78678 13.3522 6.78755H13.4552C13.7767 6.78755 14.085 6.91526 14.3123 7.14258C14.5396 7.36989 14.6673 7.6782 14.6673 7.99967C14.6673 8.32115 14.5396 8.62946 14.3123 8.85677C14.085 9.08409 13.7767 9.2118 13.4552 9.2118H13.4007C13.2056 9.21257 13.0151 9.27036 12.8525 9.37804C12.6899 9.48573 12.5623 9.6386 12.4855 9.81786Z" stroke="#344054" stroke-width="1.5" stroke-linecap="round" stroke-linejoin="round"/>
</g>
<defs>
<clipPath id="clip0_558_2631">
<rect width="16" height="16" fill="white"/>
</clipPath>
</defs>
</svg>
