<svg width="3031" height="283" viewBox="0 0 3031 283" fill="none" xmlns="http://www.w3.org/2000/svg">
<rect width="1440" height="266.284" transform="translate(581 4)" fill="#008780"/>
<g opacity="0.3">
<mask id="path-1-inside-1_158_26403" fill="white">
<path d="M0.735698 272.428L21.3793 229.804C47.5311 233.292 70.8947 230.534 93.5728 222.242C127.406 209.87 156.774 185.239 194.78 152.247C225.596 125.258 250.891 109.668 276.528 101.586C305.475 92.3533 336.265 92.5804 373.456 102.332C386.799 105.735 400.378 98.5441 404.036 85.9366C407.695 73.3292 399.896 60.3738 386.801 57.0909C340.344 44.9931 299.335 45.0182 261.065 57.0774C228.44 67.5876 197.642 86.3258 161.34 117.695C111.641 160.932 82.8648 183.709 43.831 184.078L87.3986 94.1215C101.814 94.6784 117.237 96.9466 133.794 101.294C147.137 104.697 160.715 97.5061 164.374 84.8986C168.032 72.2912 160.233 59.3358 147.138 56.0529C134.163 52.5223 121.699 50.463 109.61 48.8915L133.134 0.319746L3030.6 10.0415L3001.32 70.5083C2998.7 68.3246 2995.48 66.7644 2991.9 65.9475C2945.44 53.8497 2904.43 53.8748 2865.92 65.814C2838.44 74.5351 2812.39 89.1494 2783.01 112.549C2777.52 116.929 2771.92 121.556 2766.07 126.679C2695.06 188.658 2666.37 208.724 2589.54 181C2576.8 176.358 2562.22 182.454 2557.57 194.581C2552.68 206.588 2559.25 220.175 2571.99 224.817C2622.34 242.777 2661.16 244.75 2698.67 231.099C2727.36 220.515 2782.83 176.097 2782.83 176.097C2788.43 171.47 2793.91 166.474 2800.01 161.471C2830.82 134.482 2856.12 118.892 2881.75 110.81C2910.7 101.578 2941.49 101.805 2978.68 111.557C2979.43 111.917 2980.66 111.901 2981.52 112.013L2952.96 170.993C2914.86 197.213 2884.5 201.783 2830.07 182.151C2817.33 177.509 2802.75 183.604 2798.1 195.731C2793.2 207.739 2799.78 221.325 2812.52 225.967C2854.71 241.198 2888.86 244.584 2920.79 237.408L2898.95 282.51L0.735698 272.428ZM2338.12 223.829C2388.47 241.789 2427.29 243.762 2464.8 230.111C2498.63 217.738 2528 193.107 2566.01 160.116C2596.82 133.126 2622.12 117.536 2647.75 109.454C2676.7 100.222 2707.49 100.449 2744.68 110.201C2758.02 113.604 2771.6 106.413 2775.26 93.8052C2778.92 81.1978 2771.12 68.2423 2758.03 64.9595C2711.57 52.8616 2670.56 52.8869 2632.29 64.9461C2599.66 75.4563 2568.87 94.1945 2532.56 125.563C2461.55 187.542 2432.86 207.608 2356.04 179.884C2343.29 175.243 2328.72 181.338 2324.07 193.465C2319.17 205.473 2325.75 219.059 2338.49 223.701L2338.12 223.829ZM2097.97 223.166C2148.32 241.126 2187.14 243.099 2224.65 229.449C2253.33 218.865 2278.71 199.949 2308.92 174.199C2314.53 169.571 2320.26 164.696 2326.1 159.573C2356.92 132.584 2382.21 116.994 2407.85 108.912C2436.8 99.6795 2467.59 99.9065 2504.78 109.658C2518.12 113.061 2531.7 105.87 2535.36 93.2629C2539.02 80.6554 2531.22 67.7 2518.12 64.4171C2471.67 52.3192 2430.66 52.3444 2392.14 64.2837C2364.66 73.0047 2338.62 87.619 2309.23 111.019C2303.75 115.399 2298.14 120.026 2292.29 125.149C2221.28 187.128 2192.59 207.194 2115.77 179.47C2103.02 174.828 2088.45 180.923 2083.8 193.051C2078.9 205.058 2085.47 218.645 2098.22 223.287L2097.97 223.166ZM1863.98 222.426C1914.32 240.386 1953.14 242.359 1990.65 228.708C2024.49 216.336 2053.85 191.705 2091.86 158.713C2122.68 131.724 2147.97 116.134 2173.61 108.052C2202.56 98.8194 2233.35 99.0464 2270.54 108.798C2283.88 112.201 2297.46 105.01 2301.12 92.4027C2304.78 79.7952 2296.98 66.8398 2283.88 63.557C2237.42 51.4591 2196.42 51.4842 2158.15 63.5435C2125.52 74.0537 2094.72 92.7919 2058.42 124.161C1987.41 186.14 1958.72 206.206 1881.89 178.482C1869.15 173.84 1854.57 179.935 1849.92 192.063C1845.03 204.07 1851.6 217.657 1864.34 222.299L1863.98 222.426ZM1623.7 221.396C1674.05 239.356 1712.86 241.329 1750.38 227.678C1779.06 217.095 1804.43 198.179 1834.65 172.428C1840.26 167.801 1845.98 162.926 1851.83 157.803C1882.65 130.813 1907.94 115.224 1933.58 107.141C1962.52 97.9092 1993.32 98.1362 2030.51 107.888C2043.85 111.291 2057.43 104.1 2061.09 91.4925C2064.75 78.8851 2056.95 65.9296 2043.85 62.6467C1997.39 50.5489 1956.39 50.574 1917.87 62.5133C1890.39 71.2344 1864.35 85.8486 1834.96 109.249C1829.48 113.628 1823.87 118.255 1818.02 123.378C1747.01 185.357 1718.32 205.423 1641.5 177.699C1628.75 173.058 1614.17 179.153 1609.52 191.28C1604.63 203.288 1611.2 216.874 1623.95 221.516L1623.7 221.396ZM1389.7 220.656C1440.05 238.616 1478.87 240.589 1516.38 226.938C1550.21 214.565 1579.58 189.934 1617.59 156.943C1648.4 129.953 1673.7 114.363 1699.34 106.281C1728.28 97.049 1759.07 97.276 1796.26 107.028C1809.61 110.431 1823.19 103.24 1826.85 90.6323C1830.5 78.0248 1822.7 65.0694 1809.61 61.7865C1763.15 49.6887 1722.14 49.7139 1683.87 61.7731C1651.25 72.2833 1620.45 91.0214 1584.15 122.39C1513.13 184.369 1484.45 204.435 1407.62 176.712C1394.88 172.07 1380.3 178.165 1375.65 190.292C1370.75 202.299 1377.33 215.886 1390.07 220.528L1389.7 220.656ZM1149.31 219.873C1199.65 237.833 1238.47 239.806 1275.98 226.156C1304.67 215.572 1330.04 196.656 1360.26 170.906C1365.87 166.278 1371.59 161.403 1377.44 156.28C1408.25 129.291 1433.55 113.701 1459.19 105.619C1488.13 96.3865 1518.92 96.6135 1556.11 106.365C1569.46 109.768 1583.04 102.577 1586.69 89.9699C1590.35 77.3624 1582.55 64.407 1569.46 61.1242C1523 49.0263 1481.99 49.0514 1443.48 60.9907C1416 69.7117 1389.95 84.3259 1360.57 107.726C1355.08 112.105 1349.48 116.733 1343.63 121.856C1272.62 183.835 1243.93 203.901 1167.1 176.177C1154.36 171.535 1139.78 177.63 1135.13 189.757C1130.24 201.765 1136.81 215.352 1149.55 219.993L1149.31 219.873ZM915.312 219.133C965.661 237.093 1004.48 239.066 1041.99 225.415C1075.82 213.043 1105.19 188.411 1143.2 155.42C1174.01 128.431 1199.31 112.841 1224.94 104.759C1253.89 95.5264 1284.68 95.7534 1321.87 105.505C1335.22 108.908 1348.79 101.717 1352.45 89.1097C1356.11 76.5022 1348.31 63.5468 1335.22 60.264C1288.76 48.1661 1247.75 48.1912 1209.48 60.2505C1176.86 70.7607 1146.06 89.4988 1109.76 120.868C1038.74 182.847 1010.06 202.913 933.23 175.189C920.486 170.547 905.909 176.642 901.259 188.77C896.361 200.777 902.937 214.364 915.68 219.005L915.312 219.133ZM675.162 218.471C725.51 236.431 764.327 238.404 801.839 224.753C830.522 214.17 855.899 195.253 886.115 169.503C891.721 164.876 897.447 160.001 903.294 154.878C934.11 127.888 959.405 112.298 985.042 104.216C1013.99 94.9839 1044.78 95.2109 1081.97 104.963C1095.31 108.366 1108.89 101.175 1112.55 88.5673C1116.21 75.9598 1108.41 63.0044 1095.31 59.7216C1048.86 47.6237 1007.85 47.6489 969.331 59.5881C941.855 68.3092 915.809 82.9233 886.425 106.323C880.939 110.703 875.332 115.33 869.486 120.453C798.472 182.432 769.785 202.498 692.959 174.774C680.216 170.132 665.638 176.228 660.988 188.355C656.091 200.362 662.666 213.949 675.409 218.591L675.162 218.471ZM441.168 217.731C491.516 235.691 530.333 237.664 567.845 224.013C601.678 211.64 631.046 187.009 669.052 154.017C699.868 127.028 725.164 111.438 750.8 103.356C779.747 94.1238 810.537 94.3507 847.728 104.103C861.071 107.505 874.65 100.315 878.309 87.7071C881.967 75.0996 874.168 62.1442 861.073 58.8614C814.616 46.7635 773.607 46.7887 735.337 58.8479C702.712 69.3581 671.914 88.0962 635.612 119.465C564.598 181.444 535.911 201.51 459.085 173.786C446.342 169.144 431.764 175.24 427.115 187.367C422.217 199.374 428.792 212.961 441.535 217.603L441.168 217.731ZM411.842 167.733C417.449 163.105 423.175 158.23 429.022 153.107C459.838 126.118 485.133 110.528 510.769 102.446C539.716 93.2134 570.506 93.4406 607.698 103.192C621.041 106.595 634.62 99.4042 638.278 86.7967C641.937 74.1893 634.138 61.2339 621.042 57.9511C574.585 45.8532 533.577 45.8783 495.059 57.8175C467.583 66.5386 441.537 81.153 412.153 104.553C406.667 108.932 401.06 113.56 395.214 118.683C324.2 180.661 295.513 200.728 218.687 173.004C205.944 168.362 191.366 174.457 186.716 186.585C181.819 198.592 188.394 212.179 201.137 216.821C251.486 234.78 290.303 236.753 327.814 223.103C356.498 212.519 381.874 193.603 412.09 167.853L411.842 167.733Z"/>
</mask>
<path d="M0.735698 272.428L21.3793 229.804C47.5311 233.292 70.8947 230.534 93.5728 222.242C127.406 209.87 156.774 185.239 194.78 152.247C225.596 125.258 250.891 109.668 276.528 101.586C305.475 92.3533 336.265 92.5804 373.456 102.332C386.799 105.735 400.378 98.5441 404.036 85.9366C407.695 73.3292 399.896 60.3738 386.801 57.0909C340.344 44.9931 299.335 45.0182 261.065 57.0774C228.44 67.5876 197.642 86.3258 161.34 117.695C111.641 160.932 82.8648 183.709 43.831 184.078L87.3986 94.1215C101.814 94.6784 117.237 96.9466 133.794 101.294C147.137 104.697 160.715 97.5061 164.374 84.8986C168.032 72.2912 160.233 59.3358 147.138 56.0529C134.163 52.5223 121.699 50.463 109.61 48.8915L133.134 0.319746L3030.6 10.0415L3001.32 70.5083C2998.7 68.3246 2995.48 66.7644 2991.9 65.9475C2945.44 53.8497 2904.43 53.8748 2865.92 65.814C2838.44 74.5351 2812.39 89.1494 2783.01 112.549C2777.52 116.929 2771.92 121.556 2766.07 126.679C2695.06 188.658 2666.37 208.724 2589.54 181C2576.8 176.358 2562.22 182.454 2557.57 194.581C2552.68 206.588 2559.25 220.175 2571.99 224.817C2622.34 242.777 2661.16 244.75 2698.67 231.099C2727.36 220.515 2782.83 176.097 2782.83 176.097C2788.43 171.47 2793.91 166.474 2800.01 161.471C2830.82 134.482 2856.12 118.892 2881.75 110.81C2910.7 101.578 2941.49 101.805 2978.68 111.557C2979.43 111.917 2980.66 111.901 2981.52 112.013L2952.96 170.993C2914.86 197.213 2884.5 201.783 2830.07 182.151C2817.33 177.509 2802.75 183.604 2798.1 195.731C2793.2 207.739 2799.78 221.325 2812.52 225.967C2854.71 241.198 2888.86 244.584 2920.79 237.408L2898.95 282.51L0.735698 272.428ZM2338.12 223.829C2388.47 241.789 2427.29 243.762 2464.8 230.111C2498.63 217.738 2528 193.107 2566.01 160.116C2596.82 133.126 2622.12 117.536 2647.75 109.454C2676.7 100.222 2707.49 100.449 2744.68 110.201C2758.02 113.604 2771.6 106.413 2775.26 93.8052C2778.92 81.1978 2771.12 68.2423 2758.03 64.9595C2711.57 52.8616 2670.56 52.8869 2632.29 64.9461C2599.66 75.4563 2568.87 94.1945 2532.56 125.563C2461.55 187.542 2432.86 207.608 2356.04 179.884C2343.29 175.243 2328.72 181.338 2324.07 193.465C2319.17 205.473 2325.75 219.059 2338.49 223.701L2338.12 223.829ZM2097.97 223.166C2148.32 241.126 2187.14 243.099 2224.65 229.449C2253.33 218.865 2278.71 199.949 2308.92 174.199C2314.53 169.571 2320.26 164.696 2326.1 159.573C2356.92 132.584 2382.21 116.994 2407.85 108.912C2436.8 99.6795 2467.59 99.9065 2504.78 109.658C2518.12 113.061 2531.7 105.87 2535.36 93.2629C2539.02 80.6554 2531.22 67.7 2518.12 64.4171C2471.67 52.3192 2430.66 52.3444 2392.14 64.2837C2364.66 73.0047 2338.62 87.619 2309.23 111.019C2303.75 115.399 2298.14 120.026 2292.29 125.149C2221.28 187.128 2192.59 207.194 2115.77 179.47C2103.02 174.828 2088.45 180.923 2083.8 193.051C2078.9 205.058 2085.47 218.645 2098.22 223.287L2097.97 223.166ZM1863.98 222.426C1914.32 240.386 1953.14 242.359 1990.65 228.708C2024.49 216.336 2053.85 191.705 2091.86 158.713C2122.68 131.724 2147.97 116.134 2173.61 108.052C2202.56 98.8194 2233.35 99.0464 2270.54 108.798C2283.88 112.201 2297.46 105.01 2301.12 92.4027C2304.78 79.7952 2296.98 66.8398 2283.88 63.557C2237.42 51.4591 2196.42 51.4842 2158.15 63.5435C2125.52 74.0537 2094.72 92.7919 2058.42 124.161C1987.41 186.14 1958.72 206.206 1881.89 178.482C1869.15 173.84 1854.57 179.935 1849.92 192.063C1845.03 204.07 1851.6 217.657 1864.34 222.299L1863.98 222.426ZM1623.7 221.396C1674.05 239.356 1712.86 241.329 1750.38 227.678C1779.06 217.095 1804.43 198.179 1834.65 172.428C1840.26 167.801 1845.98 162.926 1851.83 157.803C1882.65 130.813 1907.94 115.224 1933.58 107.141C1962.52 97.9092 1993.32 98.1362 2030.51 107.888C2043.85 111.291 2057.43 104.1 2061.09 91.4925C2064.75 78.8851 2056.95 65.9296 2043.85 62.6467C1997.39 50.5489 1956.39 50.574 1917.87 62.5133C1890.39 71.2344 1864.35 85.8486 1834.96 109.249C1829.48 113.628 1823.87 118.255 1818.02 123.378C1747.01 185.357 1718.32 205.423 1641.5 177.699C1628.75 173.058 1614.17 179.153 1609.52 191.28C1604.63 203.288 1611.2 216.874 1623.95 221.516L1623.7 221.396ZM1389.7 220.656C1440.05 238.616 1478.87 240.589 1516.38 226.938C1550.21 214.565 1579.58 189.934 1617.59 156.943C1648.4 129.953 1673.7 114.363 1699.34 106.281C1728.28 97.049 1759.07 97.276 1796.26 107.028C1809.61 110.431 1823.19 103.24 1826.85 90.6323C1830.5 78.0248 1822.7 65.0694 1809.61 61.7865C1763.15 49.6887 1722.14 49.7139 1683.87 61.7731C1651.25 72.2833 1620.45 91.0214 1584.15 122.39C1513.13 184.369 1484.45 204.435 1407.62 176.712C1394.88 172.07 1380.3 178.165 1375.65 190.292C1370.75 202.299 1377.33 215.886 1390.07 220.528L1389.7 220.656ZM1149.31 219.873C1199.65 237.833 1238.47 239.806 1275.98 226.156C1304.67 215.572 1330.04 196.656 1360.26 170.906C1365.87 166.278 1371.59 161.403 1377.44 156.28C1408.25 129.291 1433.55 113.701 1459.19 105.619C1488.13 96.3865 1518.92 96.6135 1556.11 106.365C1569.46 109.768 1583.04 102.577 1586.69 89.9699C1590.35 77.3624 1582.55 64.407 1569.46 61.1242C1523 49.0263 1481.99 49.0514 1443.48 60.9907C1416 69.7117 1389.95 84.3259 1360.57 107.726C1355.08 112.105 1349.48 116.733 1343.63 121.856C1272.62 183.835 1243.93 203.901 1167.1 176.177C1154.36 171.535 1139.78 177.63 1135.13 189.757C1130.24 201.765 1136.81 215.352 1149.55 219.993L1149.31 219.873ZM915.312 219.133C965.661 237.093 1004.48 239.066 1041.99 225.415C1075.82 213.043 1105.19 188.411 1143.2 155.42C1174.01 128.431 1199.31 112.841 1224.94 104.759C1253.89 95.5264 1284.68 95.7534 1321.87 105.505C1335.22 108.908 1348.79 101.717 1352.45 89.1097C1356.11 76.5022 1348.31 63.5468 1335.22 60.264C1288.76 48.1661 1247.75 48.1912 1209.48 60.2505C1176.86 70.7607 1146.06 89.4988 1109.76 120.868C1038.74 182.847 1010.06 202.913 933.23 175.189C920.486 170.547 905.909 176.642 901.259 188.77C896.361 200.777 902.937 214.364 915.68 219.005L915.312 219.133ZM675.162 218.471C725.51 236.431 764.327 238.404 801.839 224.753C830.522 214.17 855.899 195.253 886.115 169.503C891.721 164.876 897.447 160.001 903.294 154.878C934.11 127.888 959.405 112.298 985.042 104.216C1013.99 94.9839 1044.78 95.2109 1081.97 104.963C1095.31 108.366 1108.89 101.175 1112.55 88.5673C1116.21 75.9598 1108.41 63.0044 1095.31 59.7216C1048.86 47.6237 1007.85 47.6489 969.331 59.5881C941.855 68.3092 915.809 82.9233 886.425 106.323C880.939 110.703 875.332 115.33 869.486 120.453C798.472 182.432 769.785 202.498 692.959 174.774C680.216 170.132 665.638 176.228 660.988 188.355C656.091 200.362 662.666 213.949 675.409 218.591L675.162 218.471ZM441.168 217.731C491.516 235.691 530.333 237.664 567.845 224.013C601.678 211.64 631.046 187.009 669.052 154.017C699.868 127.028 725.164 111.438 750.8 103.356C779.747 94.1238 810.537 94.3507 847.728 104.103C861.071 107.505 874.65 100.315 878.309 87.7071C881.967 75.0996 874.168 62.1442 861.073 58.8614C814.616 46.7635 773.607 46.7887 735.337 58.8479C702.712 69.3581 671.914 88.0962 635.612 119.465C564.598 181.444 535.911 201.51 459.085 173.786C446.342 169.144 431.764 175.24 427.115 187.367C422.217 199.374 428.792 212.961 441.535 217.603L441.168 217.731ZM411.842 167.733C417.449 163.105 423.175 158.23 429.022 153.107C459.838 126.118 485.133 110.528 510.769 102.446C539.716 93.2134 570.506 93.4406 607.698 103.192C621.041 106.595 634.62 99.4042 638.278 86.7967C641.937 74.1893 634.138 61.2339 621.042 57.9511C574.585 45.8532 533.577 45.8783 495.059 57.8175C467.583 66.5386 441.537 81.153 412.153 104.553C406.667 108.932 401.06 113.56 395.214 118.683C324.2 180.661 295.513 200.728 218.687 173.004C205.944 168.362 191.366 174.457 186.716 186.585C181.819 198.592 188.394 212.179 201.137 216.821C251.486 234.78 290.303 236.753 327.814 223.103C356.498 212.519 381.874 193.603 412.09 167.853L411.842 167.733Z" stroke="#DEDC00" stroke-width="2" mask="url(#path-1-inside-1_158_26403)"/>
</g>
<mask id="path-2-inside-2_158_26403" fill="white">
<path d="M693 166.284H1909V222.284H693V166.284Z"/>
</mask>
<path d="M693 166.284V167.284H1909V166.284V165.284H693V166.284Z" fill="#008780" mask="url(#path-2-inside-2_158_26403)"/>
</svg>
