<svg width="66" height="66" viewBox="0 0 66 66" fill="none" xmlns="http://www.w3.org/2000/svg">
    <rect x="5" y="5" width="56" height="56" rx="28" fill="#66DCDC"/>
    <rect x="5" y="5" width="56" height="56" rx="28" stroke="#88E6E6" stroke-width="10"/>
    <path d="M21.334 27.167L30.8597 33.835C31.6311 34.375 32.0168 34.6449 32.4363 34.7495C32.8069 34.8419 33.1944 34.8419 33.565 34.7495C33.9845 34.6449 34.3702 34.375 35.1416 33.835L44.6673 27.167M26.934 42.3337H39.0673C41.0275 42.3337 42.0076 42.3337 42.7563 41.9522C43.4149 41.6166 43.9503 41.0812 44.2858 40.4226C44.6673 39.6739 44.6673 38.6938 44.6673 36.7337V29.267C44.6673 27.3068 44.6673 26.3267 44.2858 25.578C43.9503 24.9195 43.4149 24.384 42.7563 24.0485C42.0076 23.667 41.0275 23.667 39.0673 23.667H26.934C24.9738 23.667 23.9937 23.667 23.245 24.0485C22.5865 24.384 22.051 24.9195 21.7155 25.578C21.334 26.3267 21.334 27.3068 21.334 29.267V36.7337C21.334 38.6938 21.334 39.6739 21.7155 40.4226C22.051 41.0812 22.5865 41.6166 23.245 41.9522C23.9937 42.3337 24.9738 42.3337 26.934 42.3337Z" stroke="#008780" stroke-width="2" stroke-linecap="round" stroke-linejoin="round"/>
</svg>
