<svg width="40" height="40" viewBox="0 0 40 40" fill="none" xmlns="http://www.w3.org/2000/svg">
<rect width="40" height="40" rx="20" fill="#F6F68A"/>
<path d="M15 23C16.6569 23 18 21.6569 18 20C18 18.3431 16.6569 17 15 17C13.3431 17 12 18.3431 12 20C12 21.6569 13.3431 23 15 23Z" stroke="#008780" stroke-width="1.67" stroke-linecap="round" stroke-linejoin="round"/>
<path d="M18 17V23" stroke="#008780" stroke-width="1.67" stroke-linecap="round" stroke-linejoin="round"/>
<path d="M25 23C26.6569 23 28 21.6569 28 20C28 18.3431 26.6569 17 25 17C23.3431 17 22 18.3431 22 20C22 21.6569 23.3431 23 25 23Z" stroke="#008780" stroke-width="1.67" stroke-linecap="round" stroke-linejoin="round"/>
<path d="M22 15V23" stroke="#008780" stroke-width="1.67" stroke-linecap="round" stroke-linejoin="round"/>
<path d="M30 25V26C30 26.5 29.5 27 29 27H11C10.5 27 10 26.5 10 26V25" stroke="#008780" stroke-width="1.67" stroke-linecap="round" stroke-linejoin="round"/>
</svg>
