<svg width="104" height="104" viewbox="0 0 104 104" fill="none" xmlns="http://www.w3.org/2000/svg">
						<g filter="url(#filter0_dd_2_24523)">
							<rect x="12" y="2" width="80" height="80" rx="40" fill="url(#paint0_linear_2_24523)"/>
							<path d="M45.675 44.05C45.375 44.8333 45.125 45.575 44.925 46.275C46.1417 45.3917 47.5667 44.85 49.2 44.65C50.7333 44.45 52.1667 43.8833 53.5 42.95C54.8 42.0333 55.8083 40.9083 56.525 39.575L54.725 37.75L57.725 34.725C58.275 34.175 58.875 33.1917 59.525 31.775C56.1083 32.3083 53.2417 33.625 50.925 35.725C48.7417 37.725 46.9917 40.5 45.675 44.05ZM58.25 37.75L59.5 39C59.0667 40.2833 58.3917 41.4917 57.475 42.625C56.4917 43.825 55.3417 44.8083 54.025 45.575C52.6083 46.4083 51.1 46.925 49.5 47.125C46.1667 47.5417 44.0833 49.8333 43.25 54H40.75L40.825 53.525C41.2083 51.225 41.5667 49.3833 41.9 48C42.4667 45.6 43.1583 43.45 43.975 41.55C45.025 39.15 46.3 37.1 47.8 35.4C49.55 33.4 51.6167 31.8667 54 30.8C56.6833 29.6 59.7667 29 63.25 29C62 32.75 60.75 35.25 59.5 36.5L58.25 37.75Z" fill="white"/>
						</g>
						<defs>
							<filter id="filter0_dd_2_24523" x="0" y="0" width="104" height="104" filterunits="userSpaceOnUse" color-interpolation-filters="sRGB">
								<feFlood flood-opacity="0" result="BackgroundImageFix"/>
								<feColorMatrix in="SourceAlpha" type="matrix" values="0 0 0 0 0 0 0 0 0 0 0 0 0 0 0 0 0 0 127 0" result="hardAlpha"/>
								<feMorphology radius="4" operator="erode" in="SourceAlpha" result="effect1_dropShadow_2_24523"/>
								<feOffset dy="4"/>
								<feGaussianBlur stddeviation="3"/>
								<feComposite in2="hardAlpha" operator="out"/>
								<feColorMatrix type="matrix" values="0 0 0 0 0 0 0 0 0 0 0 0 0 0 0 0 0 0 0.1 0"/>
								<feBlend mode="normal" in2="BackgroundImageFix" result="effect1_dropShadow_2_24523"/>
								<feColorMatrix in="SourceAlpha" type="matrix" values="0 0 0 0 0 0 0 0 0 0 0 0 0 0 0 0 0 0 127 0" result="hardAlpha"/>
								<feMorphology radius="3" operator="erode" in="SourceAlpha" result="effect2_dropShadow_2_24523"/>
								<feOffset dy="10"/>
								<feGaussianBlur stddeviation="7.5"/>
								<feComposite in2="hardAlpha" operator="out"/>
								<feColorMatrix type="matrix" values="0 0 0 0 0 0 0 0 0 0 0 0 0 0 0 0 0 0 0.1 0"/>
								<feBlend mode="normal" in2="effect1_dropShadow_2_24523" result="effect2_dropShadow_2_24523"/>
								<feBlend mode="normal" in="SourceGraphic" in2="effect2_dropShadow_2_24523" result="shape"/>
							</filter>
							<linearGradient id="paint0_linear_2_24523" x1="12" y1="2" x2="92" y2="82" gradientunits="userSpaceOnUse">
								<stop stop-color="#FB7185"/>
								<stop offset="1" stop-color="#E11D48"/>
							</linearGradient>
						</defs>
					</svg>